<svg width="327" height="277" viewBox="0 0 327 277" fill="none" xmlns="http://www.w3.org/2000/svg">
<path d="M55.28 93.7563C55.28 93.7563 60.4695 92.5391 63.6649 89.5631C67.3025 86.178 67.294 83.8804 67.294 83.8804L77.0575 89.4368C77.0575 89.4368 76.9294 91.3054 73.953 95.2374C70.8347 99.3575 67.5994 100.69 65.5785 101.325C65.056 101.489 64.748 101.562 64.748 101.562L55.28 93.7563Z" fill="#F2F2F2"/>
<path d="M216.511 66.1669C216.511 66.1669 221.832 66.4511 225.725 64.4884C230.154 62.2547 230.782 60.0459 230.782 60.0459L238.623 68.1151C238.623 68.1151 237.983 69.8758 234.037 72.8182C229.902 75.9027 226.425 76.2777 224.309 76.3211C223.762 76.3317 223.446 76.3172 223.446 76.3172L216.511 66.1669Z" fill="#F2F2F2"/>
<path d="M239.503 81.9053C239.503 81.9053 241.002 87.0492 244.134 90.0936C247.697 93.557 249.977 93.4195 249.977 93.4195L245.011 103.538C245.011 103.538 243.148 103.514 239.08 100.746C234.816 97.8443 233.312 94.6703 232.569 92.6754C232.377 92.1602 232.286 91.8542 232.286 91.8542L239.503 81.9053Z" fill="#F2F2F2"/>
<g opacity="0.3">
<path d="M200.544 159.13C200.492 160.36 200.407 162.808 200.335 164.966H141.671V169.592H144.621V193.211C130.508 185.054 122.176 180.691 103.125 183.632C97.9901 184.427 93.0531 185.066 88.3175 185.382C88.1736 183.954 87.9839 182.137 87.7753 180.243C87.9453 180.157 88.1088 180.072 88.2658 179.98C88.2658 179.98 85.519 163.123 84.1914 158.189L84.5772 157.965C84.5772 157.965 84.4203 156.253 84.2502 153.931C86.0553 153.733 92.8242 152.917 93.5436 151.833C93.9491 151.221 94.1524 150.543 94.2434 150.017L96.9509 149.51L97.6049 147.346L150.33 147.069V159.189C150.33 160.274 151.207 161.156 152.286 161.156H158.276L156.66 164.847H172.802V163.794H163.423L164.528 161.155H175.502C176.581 161.155 177.458 160.274 177.458 159.188V146.93L184.9 146.891L189.438 152.687C190.223 153.688 191.63 153.924 192.695 153.239C194.657 151.976 197.796 149.931 200.314 148.127C200.478 152.037 200.661 156.419 200.544 159.13Z" fill="#FFBE55"/>
<path d="M67.6118 158.466C66.0743 162.835 64.4268 170.717 66.0291 182.37C66.0291 182.37 66.5 182.436 67.3234 182.521C67.3561 182.902 67.3888 183.298 67.4215 183.699C60.495 181.705 54.1708 177.968 48.4745 171.612C35.5514 157.196 38.5991 131.332 67.6962 120.883C67.4738 124.996 67.7878 126.825 67.3103 129.247C67.2057 129.667 67.1272 130.003 67.0749 130.227C67.0612 130.286 67.0487 130.345 67.0291 130.411C67.0291 130.424 67.0226 130.444 67.0226 130.457C66.8656 131.009 66.6694 131.601 66.4209 132.266C66.2116 132.819 66.1397 133.219 66.1789 133.496V133.502C65.3222 134.668 64.5962 136.832 63.8899 140.596C63.1836 144.359 62.752 148.537 63.079 149.188C63.2032 149.445 63.9422 149.525 64.799 149.525C66.1266 149.525 67.7354 149.333 67.7354 149.333C68.1671 149.308 68.6451 149.262 69.1481 149.209C69.5732 152.282 67.1861 158.334 67.1861 158.334L67.6118 158.466Z" fill="#FFBE55"/>
<path d="M250.398 122.91C233.766 116.37 222.479 113.666 212.904 91.789C203.329 69.9119 196.547 55.7389 171.82 51.7319C151.859 48.4947 132.41 53.2985 121.462 65.8063L127.93 65.7727L156 65.6273L191.787 65.4437C195.946 65.4181 199.341 68.7993 199.36 72.9846L199.701 139.234V139.43C200.074 139.234 200.499 139.076 200.937 138.951C202.174 137.818 204.724 136.555 206.869 136.168C206.869 136.168 206.869 136.174 206.862 136.187C206.921 136.168 206.954 136.154 206.954 136.154L212.899 136.49C212.899 136.49 218.883 139.858 220.256 140.714C221.146 141.267 220.276 145.866 219.511 149.681C227.005 150.031 227.568 151.484 227.568 151.484C227.568 151.484 226.691 157.926 225.645 164.966H239.274V169.592H236.109V175.664C240.439 173.171 245.285 170.841 250.798 168.815C288.062 155.13 270.77 130.917 250.398 122.91ZM214.84 127.042C213.525 131.634 212.421 132.134 212.421 132.134C211.217 133.39 206.809 134.938 205.828 134.838C204.854 134.74 204.101 131.456 203.847 131.193C203.598 130.923 202.408 130.621 202.571 130.212C202.728 129.799 203.964 127.258 203.395 126.929C202.912 126.646 203.455 125.284 203.82 124.502C203.82 124.502 201.002 121.64 203.428 120.278C210.354 116.383 212.27 121.212 212.806 121.351C213.343 121.489 216.363 121.692 214.84 127.042Z" fill="#FFBE55"/>
<path d="M214.84 127.042C213.525 131.634 212.42 132.134 212.42 132.134C211.217 133.39 206.809 134.938 205.828 134.838C204.854 134.74 204.101 131.456 203.847 131.193C203.598 130.923 202.408 130.621 202.571 130.212C202.728 129.799 203.964 127.258 203.395 126.929C202.912 126.646 203.455 125.284 203.82 124.502C203.82 124.502 201.002 121.64 203.428 120.278C210.354 116.383 212.27 121.212 212.806 121.351C213.343 121.489 216.363 121.692 214.84 127.042Z" fill="#FFBE55"/>
<path d="M84.5563 133.688C84.0004 133.148 83.4713 132.714 83.0332 132.496C81.4636 131.707 78.6376 131.187 77.7292 131.029L76.7482 130.174C76.6697 129.917 76.5847 129.654 76.5128 129.378C76.4415 129.108 76.3754 128.838 76.3166 128.568C76.624 128.621 76.8725 128.641 77.0491 128.648C78.1085 128.667 79.0634 125.614 79.0634 125.614C79.0634 125.614 79.9724 125.43 80.1941 125.293C80.41 125.154 79.5473 122.364 79.8279 121.417C80.115 120.47 80.2399 119.265 80.2399 119.265C80.2988 118.699 80.2595 118.16 80.1287 117.653C81.6526 117.338 83.0979 116.995 84.4713 116.64L84.5563 133.688Z" fill="#FFBE55"/>
<path d="M97.6036 147.346L96.9496 149.51L94.2421 150.018C94.1505 150.543 93.9478 151.222 93.5423 151.833C92.8229 152.918 86.054 153.734 84.2489 153.932C84.419 156.254 84.5759 157.966 84.5759 157.966L84.1901 158.189C85.5177 163.124 88.2645 179.98 88.2645 179.98C88.1075 180.073 87.944 180.158 87.774 180.243C87.9826 182.138 88.1723 183.955 88.3162 185.383C85.9094 185.533 83.5557 185.613 81.2595 185.579C78.722 185.539 76.2505 185.369 73.8431 185.033C71.6464 184.731 69.5071 184.291 67.4215 183.698C67.3882 183.298 67.3555 182.902 67.3234 182.52C66.4994 182.435 66.0291 182.369 66.0291 182.369C64.4268 170.716 66.0743 162.834 67.6118 158.466L67.1867 158.333C67.1867 158.333 69.5738 152.281 69.1487 149.208C68.6452 149.261 68.1677 149.307 67.7361 149.333C67.7361 149.333 66.1273 149.524 64.7996 149.524C63.9429 149.524 63.2045 149.444 63.0796 149.187C62.7526 148.537 63.1843 144.358 63.8906 140.595C64.5969 136.831 65.3228 134.667 66.1796 133.501V133.495C66.1403 133.219 66.2123 132.818 66.4215 132.265C66.6701 131.601 66.8663 131.008 67.0232 130.456C67.0232 130.443 67.0298 130.422 67.0298 130.41C67.0494 130.344 67.0625 130.285 67.0755 130.226C67.1279 130.002 67.2063 129.666 67.311 129.246C67.7878 126.825 67.4745 124.995 67.6969 120.882C67.9519 120.791 68.2135 120.699 68.4816 120.606C68.5994 120.566 68.7164 120.528 68.8342 120.482C70.5875 119.89 72.4384 119.356 74.3801 118.877C75.675 118.555 77.0092 118.264 78.3891 118.002C78.8861 117.909 79.3766 117.81 79.8541 117.705C79.9456 117.692 80.0372 117.673 80.1287 117.653C80.2595 118.16 80.2988 118.699 80.2399 119.265C80.2399 119.265 80.1157 120.469 79.8279 121.417C79.5467 122.364 80.41 125.154 80.1941 125.293C79.9718 125.43 79.0634 125.614 79.0634 125.614C79.0634 125.614 78.1085 128.667 77.049 128.648C76.8718 128.641 76.624 128.621 76.3166 128.568C76.3754 128.838 76.4408 129.108 76.5128 129.377C76.5847 129.654 76.6697 129.917 76.7482 130.174L77.7292 131.029C78.6383 131.187 81.4636 131.707 83.0332 132.496C83.4713 132.713 84.0004 133.147 84.5563 133.688V133.846L84.5897 139.517V139.826C84.5962 140.866 84.8055 141.859 85.1842 142.76C85.2365 142.872 85.2888 142.984 85.3346 143.089C86.5641 145.636 89.167 147.386 92.1623 147.373L97.6036 147.346Z" fill="#FFBE55"/>
<path d="M110.102 96.4137V102.217C110.102 103.27 109.259 104.125 108.206 104.125H106.087C107.937 101.571 109.148 98.8343 110.051 95.9854C110.082 96.1248 110.102 96.2683 110.102 96.4137Z" fill="#FFBE55"/>
<path d="M110.102 111.553V117.357C110.102 118.415 109.259 119.271 108.206 119.271H102.438C101.391 119.271 100.541 118.415 100.541 117.357V111.553C100.541 110.501 101.392 109.645 102.438 109.645H108.206C109.259 109.645 110.102 110.501 110.102 111.553Z" fill="#FFBE55"/>
<path d="M110.102 126.699V132.502C110.102 133.555 109.259 134.41 108.206 134.41H102.438C101.391 134.41 100.541 133.554 100.541 132.502V126.699C100.541 125.64 101.392 124.784 102.438 124.784H108.206C109.259 124.784 110.102 125.64 110.102 126.699Z" fill="#FFBE55"/>
<path d="M177.458 146.931V159.19C177.458 160.275 176.581 161.157 175.502 161.157H164.528L163.423 163.795H172.802V164.848H156.66L158.276 161.158H152.286C151.207 161.158 150.33 160.276 150.33 159.19V147.071L177.458 146.931Z" fill="#FFBE55"/>
<path d="M183.408 81.5044H116.001V83.8665H183.408V81.5044Z" fill="#FFBE55"/>
<path d="M183.408 96.6243H116.001V98.9863H183.408V96.6243Z" fill="#FFBE55"/>
<path d="M183.408 112.968H116.001V115.337H183.408V112.968Z" fill="#FFBE55"/>
<path d="M183.408 128.095H116.001V130.457H183.408V128.095Z" fill="#FFBE55"/>
<path d="M239.273 164.966V169.592H236.108V175.665C235.231 176.165 234.381 176.672 233.551 177.185C233.06 177.488 232.583 177.79 232.105 178.094C222.243 184.423 215.154 191.456 208.457 197.141C206.501 198.799 204.585 200.345 202.637 201.728C199.222 204.149 195.73 206.057 191.838 207.175C189.727 207.787 187.502 208.162 185.102 208.26C176.698 208.609 166.228 205.549 151.474 197.167C150.362 196.536 149.289 195.924 148.256 195.318C147.765 195.042 147.289 194.759 146.811 194.483C146.065 194.055 145.333 193.627 144.62 193.212V169.592H141.669V164.966H200.333C200.405 162.809 200.49 160.361 200.543 159.131C200.66 156.419 200.477 152.037 200.313 148.129C197.795 149.932 194.657 151.978 192.695 153.241C191.629 153.926 190.222 153.69 189.438 152.689L184.9 146.893L192.205 146.853C196.299 146.832 199.621 143.523 199.7 139.43C200.072 139.234 200.497 139.076 200.936 138.951C202.172 137.818 204.722 136.555 206.867 136.167C206.867 136.167 206.867 136.174 206.861 136.187C206.92 136.167 206.952 136.154 206.952 136.154L212.897 136.49C212.897 136.49 218.881 139.858 220.255 140.714C221.144 141.267 220.274 145.866 219.509 149.681C227.004 150.031 227.566 151.484 227.566 151.484C227.566 151.484 226.689 157.926 225.644 164.966H239.273V164.966Z" fill="#FFBE55"/>
</g>
<path opacity="0.7" d="M110.102 96.4137V102.217C110.102 103.27 109.259 104.125 108.206 104.125H102.438C101.391 104.125 100.541 103.269 100.541 102.217V96.4137C100.541 95.361 101.392 94.5056 102.438 94.5056H108.206C109.108 94.5056 109.86 95.1379 110.05 95.986C110.082 96.1248 110.102 96.2683 110.102 96.4137Z" fill="#FFBE55"/>
<path opacity="0.7" d="M110.102 81.3861V87.1893C110.102 88.2479 109.259 89.1039 108.206 89.1039H102.438C101.391 89.1039 100.541 88.2479 100.541 87.1893V81.3861C100.541 80.3334 101.392 79.478 102.438 79.478H108.206C109.259 79.478 110.102 80.334 110.102 81.3861Z" fill="#FFBE55"/>
<path opacity="0.7" d="M110.102 111.553V117.357C110.102 118.415 109.259 119.271 108.206 119.271H102.438C101.391 119.271 100.541 118.415 100.541 117.357V111.553C100.541 110.501 101.392 109.645 102.438 109.645H108.206C109.259 109.645 110.102 110.501 110.102 111.553Z" fill="#FFBE55"/>
<path opacity="0.7" d="M110.102 126.699V132.502C110.102 133.555 109.259 134.41 108.206 134.41H102.438C101.391 134.41 100.541 133.554 100.541 132.502V126.699C100.541 125.64 101.392 124.784 102.438 124.784H108.206C109.259 124.784 110.102 125.64 110.102 126.699Z" fill="#FFBE55"/>
<path opacity="0.6" d="M199.359 72.9846C199.341 68.7993 195.946 65.4181 191.786 65.4437L155.999 65.6273L127.93 65.7727L121.462 65.8063L91.7497 65.957C87.5843 65.9839 84.2287 69.3922 84.2483 73.584L84.4706 116.64L84.5557 133.688V133.846L84.589 139.517V139.826C84.5956 140.866 84.8048 141.86 85.1835 142.76C85.2358 142.872 85.2881 142.984 85.3339 143.089C86.5634 145.636 89.1664 147.386 92.1617 147.373L97.6023 147.347L150.328 147.071L177.456 146.932L184.898 146.893L192.203 146.853C196.297 146.832 199.62 143.523 199.698 139.43V139.234L199.359 72.9846ZM110.102 132.503C110.102 133.555 109.259 134.411 108.206 134.411H102.438C101.391 134.411 100.541 133.555 100.541 132.503V126.7C100.541 125.641 101.392 124.785 102.438 124.785H108.206C109.259 124.785 110.102 125.641 110.102 126.7V132.503ZM110.102 117.357C110.102 118.415 109.259 119.271 108.206 119.271H102.438C101.391 119.271 100.541 118.415 100.541 117.357V111.553C100.541 110.501 101.392 109.645 102.438 109.645H108.206C109.259 109.645 110.102 110.501 110.102 111.553V117.357ZM110.102 102.217C110.102 103.27 109.259 104.125 108.206 104.125H102.438C101.391 104.125 100.541 103.269 100.541 102.217V96.4138C100.541 95.3611 101.392 94.5057 102.438 94.5057H108.206C109.108 94.5057 109.86 95.138 110.05 95.9861C110.083 96.1249 110.102 96.269 110.102 96.4138V102.217ZM110.102 87.1899C110.102 88.2486 109.259 89.1045 108.206 89.1045H102.438C101.391 89.1045 100.541 88.2486 100.541 87.1899V81.3867C100.541 80.334 101.392 79.4786 102.438 79.4786H108.206C109.259 79.4786 110.102 80.3346 110.102 81.3867V87.1899ZM183.408 130.456H116.001V128.094H183.408V130.456ZM183.408 115.337H116.001V112.968H183.408V115.337ZM183.408 98.9864H116.001V96.6243H183.408V98.9864ZM183.408 83.8665H116.001V81.5045H183.408V83.8665Z" fill="#FFBE55"/>
<path opacity="0.7" d="M183.408 81.5044H116.001V83.8665H183.408V81.5044Z" fill="#FFBE55"/>
<path opacity="0.7" d="M183.408 96.6243H116.001V98.9863H183.408V96.6243Z" fill="#FFBE55"/>
<path opacity="0.7" d="M183.408 112.968H116.001V115.337H183.408V112.968Z" fill="#FFBE55"/>
<path opacity="0.7" d="M183.408 128.095H116.001V130.457H183.408V128.095Z" fill="#FFBE55"/>
<path d="M183.408 81.5046H116.001V83.8667H183.408V81.5046Z" fill="white"/>
<path d="M183.408 96.6245H116.001V98.9866H183.408V96.6245Z" fill="white"/>
<path d="M183.408 112.968H116.001V115.337H183.408V112.968Z" fill="white"/>
<path d="M183.408 128.095H116.001V130.457H183.408V128.095Z" fill="white"/>
<path d="M110.102 81.3861V87.1893C110.102 88.2479 109.259 89.1039 108.206 89.1039H102.438C101.391 89.1039 100.541 88.2479 100.541 87.1893V81.3861C100.541 80.3334 101.392 79.478 102.438 79.478H108.206C109.259 79.478 110.102 80.334 110.102 81.3861Z" fill="#FFBE55"/>
<path d="M110.102 111.553V117.357C110.102 118.415 109.259 119.271 108.206 119.271H102.438C101.391 119.271 100.541 118.415 100.541 117.357V111.553C100.541 110.501 101.392 109.645 102.438 109.645H108.206C109.259 109.645 110.102 110.501 110.102 111.553Z" fill="#FFBE55"/>
<path d="M104.996 116.783L102.341 114.463C102.123 114.271 102.101 113.941 102.29 113.721C102.478 113.503 102.807 113.48 103.026 113.67L104.902 115.311L107.573 112.307C107.764 112.09 108.093 112.072 108.309 112.265C108.525 112.459 108.544 112.79 108.35 113.007L104.996 116.783Z" fill="white"/>
<path d="M110.102 96.4139V102.217C110.102 103.27 109.259 104.125 108.206 104.125H102.438C101.391 104.125 100.541 103.269 100.541 102.217V96.4139C100.541 95.3612 101.392 94.5059 102.438 94.5059H108.206C109.108 94.5059 109.86 95.1382 110.05 95.9863C110.082 96.1251 110.102 96.2685 110.102 96.4139Z" fill="#FFBE55"/>
<path d="M104.996 101.641L102.341 99.3213C102.123 99.1299 102.101 98.7983 102.29 98.5798C102.478 98.3601 102.807 98.337 103.026 98.5272L104.902 100.168L107.573 97.1639C107.764 96.9481 108.093 96.9303 108.309 97.1231C108.525 97.3172 108.544 97.6488 108.35 97.8633L104.996 101.641Z" fill="white"/>
<path d="M110.102 126.699V132.502C110.102 133.555 109.259 134.41 108.206 134.41H102.438C101.391 134.41 100.541 133.554 100.541 132.502V126.699C100.541 125.64 101.392 124.784 102.438 124.784H108.206C109.259 124.784 110.102 125.64 110.102 126.699Z" fill="#FFBE55"/>
<path d="M104.996 131.926L102.341 129.607C102.123 129.416 102.101 129.085 102.29 128.864C102.478 128.645 102.807 128.622 103.026 128.812L104.902 130.453L107.573 127.449C107.764 127.233 108.093 127.216 108.309 127.409C108.525 127.602 108.544 127.933 108.35 128.148L104.996 131.926Z" fill="white"/>
<path d="M104.207 85.0246C104.207 84.9002 104.213 84.7805 104.231 84.666C104.246 84.5515 104.277 84.4436 104.323 84.337C104.369 84.2304 104.436 84.1317 104.521 84.039C104.608 83.9462 104.722 83.8626 104.861 83.787C104.932 83.7482 105.025 83.6982 105.141 83.6356C105.259 83.5751 105.372 83.5021 105.482 83.4212C105.592 83.3402 105.687 83.2448 105.768 83.1382C105.849 83.033 105.891 82.9158 105.891 82.7862C105.891 82.6079 105.824 82.4678 105.696 82.3671C105.565 82.2645 105.418 82.2158 105.25 82.2158C105.144 82.2158 105.045 82.2362 104.963 82.2776C104.88 82.3178 104.804 82.3678 104.737 82.423C104.669 82.4809 104.611 82.5454 104.562 82.6158C104.515 82.6849 104.471 82.7481 104.434 82.8033L103.6 82.2158C103.741 81.8842 103.964 81.6269 104.269 81.442C104.573 81.2584 104.917 81.167 105.299 81.167C105.505 81.167 105.71 81.1953 105.913 81.2545C106.118 81.3164 106.303 81.4111 106.463 81.5401C106.628 81.6697 106.758 81.8381 106.861 82.0454C106.962 82.2506 107.015 82.5013 107.015 82.7948C107.015 83.1034 106.95 83.3639 106.824 83.5725C106.697 83.7811 106.51 83.9646 106.262 84.1212C106.149 84.1982 106.033 84.2666 105.918 84.3258C105.803 84.3864 105.696 84.4482 105.598 84.5134C105.503 84.5792 105.424 84.6522 105.364 84.7331C105.306 84.814 105.274 84.9114 105.274 85.0259H104.207V85.0246ZM104.231 87.0189V85.797H105.29V87.0189H104.231Z" fill="white"/>
<path d="M238.103 143.774C238.103 143.774 239.753 143.486 239.722 142.812C239.688 142.136 239.972 141.215 240.075 140.93C240.214 140.55 240.228 139.202 240.684 139.394C241.138 139.586 240.76 141.621 240.76 142.065C240.761 142.512 242.19 141.265 242.624 141.261C243.058 141.257 244.903 143.947 243.829 144.678C242.753 145.41 241.136 145.423 240.972 145.591C240.808 145.76 239.384 146.325 239.384 146.325L238.103 143.774Z" fill="#EEA886"/>
<path d="M242.333 141.367C242.333 141.367 245.771 139.363 246.107 139.438C246.446 139.511 246.54 139.718 246.226 139.919C245.913 140.121 242.96 141.96 242.96 141.96C242.96 141.96 247.415 140.328 247.702 140.323C247.872 140.321 248.077 140.713 247.918 140.837C247.759 140.961 243.435 142.851 243.435 142.851C243.435 142.851 247.598 141.336 247.84 141.409C248.054 141.474 248.158 141.883 247.858 142.017C247.557 142.152 243.771 143.793 243.771 143.793C243.771 143.793 246.871 142.896 247.045 143.087C247.151 143.204 247.343 143.533 246.536 143.738C245.729 143.943 243.877 144.64 243.877 144.64L242.333 141.367Z" fill="#EEA886"/>
<path d="M217.428 186.757L224.175 215.062H225.661L219.939 186.695L217.428 186.757Z" fill="#858585"/>
<path d="M210.065 186.757L216.815 215.062H218.301L212.578 186.695L210.065 186.757Z" fill="#858585"/>
<path d="M201.84 186.757L195.093 215.062H193.605L199.327 186.695L201.84 186.757Z" fill="#858585"/>
<path d="M227.567 151.484C227.567 151.484 226.69 157.926 225.644 164.966C225.553 165.565 225.461 166.163 225.37 166.769V166.775C225.245 167.598 225.121 168.42 224.997 169.236C224.977 169.354 224.958 169.472 224.938 169.592C224.676 171.289 224.415 172.947 224.153 174.486C223.859 176.262 223.578 177.875 223.323 179.204C223.192 179.862 223.074 180.448 222.963 180.948C222.695 182.131 222.406 183.079 222.106 183.849C220.896 187 219.581 187.034 219.581 187.034H190.504C190.302 184.231 191.08 179.52 191.08 179.52L191.407 179.092L198.687 169.592L198.961 169.236L200.255 167.545V167.538L201.321 166.151L201.884 165.42L202.231 164.966L202.328 164.842L202.858 164.144L213.97 149.643C216.14 149.597 217.972 149.623 219.509 149.682C227.005 150.031 227.567 151.484 227.567 151.484Z" fill="#E2D2CA"/>
<path d="M200.787 169.165L204.576 168.5L202.049 162.099L200.787 169.165Z" fill="#24263D"/>
<path d="M185.507 212.254C185.507 212.254 183.016 213.744 181.889 214.299C180.759 214.853 176.371 215.022 175.938 215.438C175.505 215.853 175.667 217.173 176.394 217.306C177.122 217.439 182.459 217.911 184.238 217.486C186.017 217.063 189.348 217.76 190.085 217.507C190.822 217.252 190.336 213.254 190.048 212.358C189.761 211.461 185.507 212.254 185.507 212.254Z" fill="#0E538C"/>
<path d="M185.546 210.561L185.507 212.254C185.507 212.254 188.844 212.873 190.049 212.358L189.965 210.5L185.546 210.561Z" fill="#1C1E30"/>
<path d="M216.507 172.49C216.507 172.49 197.459 176.559 194.486 177.829C191.513 179.099 189.73 179.624 189.508 180.258C189.283 180.894 184.64 211.286 184.64 211.286H190.957C190.957 211.286 195.861 188.333 196.456 186.912C197.05 185.492 220.609 185.416 222.317 183.696C224.026 181.977 225.513 177.267 223.655 173.043C221.797 168.819 216.507 172.49 216.507 172.49Z" fill="#282B45"/>
<path d="M208.734 213.454C208.734 213.454 206.498 215.31 205.468 216.032C204.437 216.753 200.125 217.596 199.76 218.075C199.396 218.552 199.756 219.831 200.497 219.85C201.237 219.87 206.581 219.514 208.275 218.821C209.97 218.131 213.367 218.306 214.056 217.941C214.747 217.577 213.659 213.702 213.238 212.86C212.818 212.016 208.734 213.454 208.734 213.454Z" fill="#0E538C"/>
<path d="M208.515 211.777L208.734 213.455C208.734 213.455 212.127 213.552 213.238 212.86L212.872 211.037L208.515 211.777Z" fill="#0E538C"/>
<path d="M217.699 169.658C217.699 169.658 197.053 179.129 195.715 182.198C194.353 185.323 207.766 212.625 207.766 212.625L213.935 211.666C213.935 211.666 203.849 185.698 204.401 184.401C204.954 183.104 237.664 179.184 230.116 170.449C222.568 161.712 217.699 169.658 217.699 169.658Z" fill="#282B45"/>
<path d="M217.609 140.392C218.6 139.874 221.905 141.009 222.881 142.538C225.151 146.094 229.44 150.486 229.44 150.486L239.002 142.398L240.919 147.219L229.568 156.845C228.6 157.664 227.173 157.614 226.266 156.727C223.283 153.815 217.147 147.691 216.673 146.159C216.046 144.133 215.715 141.383 217.609 140.392Z" fill="#0B4870"/>
<path d="M219.51 149.681C219.091 151.787 218.699 153.656 218.66 154.472C218.594 155.748 217.344 160.782 216.259 164.966C215.88 166.42 215.52 167.775 215.239 168.828L215.127 169.236L215.036 169.592H215.029L214.643 171.032L208.136 169.592L206.534 169.236L203.813 168.63L202.491 168.342C202.57 168.059 202.544 167.328 202.465 166.322C202.433 165.913 202.387 165.453 202.342 164.966C202.335 164.925 202.328 164.881 202.328 164.841C202.263 164.223 202.184 163.559 202.099 162.867V162.861C202.073 162.656 202.053 162.446 202.021 162.228C201.707 159.662 201.327 156.873 201.118 155.071C200.935 153.472 200.739 150.695 200.628 147.899C200.477 143.945 200.49 139.963 200.948 139.259C201.033 139.128 201.17 138.989 201.346 138.845C202.674 137.772 206.245 136.418 206.86 136.187C206.919 136.167 206.952 136.154 206.952 136.154L212.897 136.49C212.897 136.49 218.881 139.858 220.254 140.714C221.145 141.267 220.275 145.866 219.51 149.681Z" fill="white"/>
<path d="M214.645 171.033L215.241 168.827L202.468 166.324L202.495 168.341L214.645 171.033Z" fill="#1F2136"/>
<path d="M208.292 167.351L205.263 166.715V169.126L208.292 169.836V167.351Z" fill="#4F558A"/>
<path d="M209.65 161.074C209.683 161.705 209.723 162.345 209.755 162.991L209.765 162.999C210.196 170.094 210.839 177.516 210.839 177.516C211.725 178.262 222.981 175.631 222.981 175.631C222.981 175.631 221.595 173.739 220.26 168.496C218.917 163.261 219.967 158.231 221.359 149.712C222.743 141.192 221.595 141.24 221.595 141.24L212.899 136.489C212.33 138.668 210.024 146.574 209.479 151.104C209.285 152.758 209.406 156.716 209.65 161.074Z" fill="#0B4870"/>
<path d="M206.868 136.167C206.868 136.167 206.868 136.174 206.861 136.187C206.783 136.385 206.115 138.154 205.344 140.701C204.971 141.931 204.579 143.339 204.213 144.839C204.213 144.839 204.213 144.845 204.206 144.845C203.847 146.319 203.513 147.892 203.265 149.464C202.682 153.07 202.428 158.222 202.14 162.328C202.127 162.511 202.113 162.684 202.1 162.861V162.868C202.048 163.619 201.989 164.321 201.93 164.966C201.917 165.124 201.904 165.276 201.885 165.42C201.682 167.499 201.427 168.901 201.034 169C200.949 169.019 200.871 169.038 200.805 169.059C199.896 169.276 200.21 169.099 200.21 169.099C200.21 169.099 200.229 168.48 200.255 167.545V167.539C200.282 166.822 200.308 165.928 200.334 164.966C200.406 162.809 200.491 160.361 200.543 159.131C200.661 156.419 200.477 152.037 200.314 148.129C200.137 144.057 199.457 139.878 199.7 139.234C199.804 138.956 199.458 139.272 199.804 138.956C201.04 137.826 204.722 136.556 206.868 136.167Z" fill="#0B4870"/>
<path d="M207.077 135.137C207.077 135.539 207.044 135.908 206.955 136.154C206.955 136.154 207.623 138.775 212.899 136.489C212.899 136.489 211.856 132.582 212.899 129.304L206.955 133.016C206.955 133.016 207.028 133.606 207.06 134.294C207.077 134.571 207.085 134.867 207.077 135.137Z" fill="#EEA987"/>
<path d="M212.684 135.45C212.684 135.45 210.61 136.459 208.517 136.655L209.538 138.836L212.9 136.491L212.684 135.45Z" fill="#D3D3D3"/>
<path d="M208.517 136.655C208.517 136.655 207.058 136.169 207.068 135.45L206.87 136.17L207.465 138.473L208.517 136.655Z" fill="#D3D3D3"/>
<path d="M208.517 136.655L207.754 137.973C207.754 137.973 208.108 138.379 209.24 138.203L208.517 136.655Z" fill="#FFBE55"/>
<path d="M207.918 138.087C207.918 138.087 204.799 147.319 204.775 153.874C204.75 160.428 205.263 164.341 205.263 164.341L205.95 165.631L206.954 164.453C206.954 164.453 206.245 145.421 209.02 138.23C209.02 138.23 208.034 137.757 207.918 138.087Z" fill="#FFBE55"/>
<path d="M207.06 134.294C207.077 134.571 207.085 134.867 207.077 135.136C211.27 135.204 211.335 132.793 211.335 132.793C210.683 134.539 207.06 134.294 207.06 134.294Z" fill="#A77860"/>
<path d="M182.802 137.543C182.802 137.543 181.767 135.473 181.6 135.163C181.433 134.852 180.616 134.423 179.639 134.018C178.663 133.616 177.185 133.561 177.04 133.68C176.896 133.798 176.7 133.842 176.554 134.33C176.406 134.817 176.52 135.321 176.52 135.321C176.52 135.321 176.086 135.825 176.269 136.433C176.269 136.433 175.879 136.928 176.19 137.582C176.19 137.582 175.821 138.077 176.082 138.53C176.082 138.53 176.899 138.963 177.162 139.222C177.423 139.48 179.181 140.249 180.966 140.697C180.966 140.697 182.779 140.483 182.802 137.543Z" fill="#EEA886"/>
<path d="M182.802 137.543C182.802 137.543 184.777 139.524 184.733 139.998C184.658 140.781 183.699 143.064 183.65 143.018C183.6 142.972 180.558 140.59 180.558 140.59L182.802 137.543Z" fill="#EEA886"/>
<path d="M203.357 144.786C203.357 144.786 203.357 144.792 203.351 144.792C203.024 145.37 201.592 146.528 199.773 147.844C199.669 147.924 199.564 147.996 199.46 148.076C196.942 149.877 193.803 151.925 191.841 153.188C190.775 153.872 189.369 153.636 188.584 152.636L184.046 146.838L179.396 140.904L179.651 140.515L181.81 137.219L182.242 136.568L189.985 146.43C189.985 146.43 195.067 142.995 198.003 139.975C198.225 139.745 198.513 139.548 198.847 139.376C199.22 139.178 199.645 139.02 200.083 138.896C200.22 138.856 200.357 138.824 200.495 138.791C201.784 138.508 203.104 138.541 203.595 138.942C204.144 139.39 204.419 139.982 204.491 140.646C204.653 141.962 204.038 143.541 203.357 144.786Z" fill="#0B4870"/>
<path d="M179.441 136.836L179.975 136.466L175.621 130.1L175.086 130.47L179.441 136.836Z" fill="#EB4747"/>
<path d="M175.632 130.097L174.725 129.343L175.095 130.466L175.632 130.097Z" fill="#EEA886"/>
<path d="M177.301 133.775C177.301 133.775 179.754 134.861 179.648 135.325C179.541 135.788 179.252 135.886 179.252 135.886L180.083 136.846C180.083 136.846 180.312 137.828 179.29 137.816C179.29 137.816 179.591 138.709 178.604 138.568C178.604 138.568 178.568 139.255 178.101 139.28C177.634 139.305 176.082 138.531 176.082 138.531C176.082 138.531 175.82 138.203 176.19 137.583C176.19 137.583 175.861 136.975 176.269 136.434C176.269 136.434 176.074 135.902 176.521 135.321C176.521 135.321 176.168 134.098 177.041 133.68C177.041 133.68 177.197 133.728 177.301 133.775Z" fill="#D69779"/>
<path d="M181.527 135.117C181.527 135.117 179.728 135.313 178.787 135.901C178.575 136.033 178.392 136.206 178.423 136.478C178.454 136.75 178.844 137.046 179.628 137.006C180.41 136.968 181.441 137.319 181.441 137.319C181.441 137.319 182.235 137.013 181.527 135.117Z" fill="#EEA886"/>
<path d="M183.666 187.31C183.666 187.31 185.002 178.926 185.072 178.587C185.143 178.247 186.502 177.025 192.996 174.884C192.996 174.884 185.777 176.296 183.885 177.536C182.425 178.492 183.666 187.31 183.666 187.31Z" fill="#12131F"/>
<path d="M148.254 171.781H146.808V219.538H148.254V171.781Z" fill="#0E538C"/>
<path d="M233.552 171.781H232.105V219.538H233.552V171.781Z" fill="#0E538C"/>
<path d="M236.108 169.237H144.62V212.504H236.108V169.237Z" fill="#CCE9FF"/>
<path d="M239.273 164.848H141.67V169.474H239.273V164.848Z" fill="#0E538C"/>
<path d="M148.803 218.598H146.259V219.538H148.803V218.598Z" fill="#0E538C"/>
<path d="M234.05 218.598H231.608V219.538H234.05V218.598Z" fill="#0E538C"/>
<path d="M177.458 143.451V159.19C177.458 160.275 176.581 161.157 175.502 161.157H152.285C151.206 161.157 150.33 160.275 150.33 159.19V143.451C150.33 142.366 151.206 141.484 152.285 141.484H175.502C176.581 141.484 177.458 142.366 177.458 143.451Z" fill="#F7F7F7"/>
<path d="M168.124 163.795V164.848H156.66L158.276 161.157L161.172 154.538L161.284 154.281H167.418L164.548 161.117L164.527 161.157L163.423 163.795H168.124Z" fill="#F7F7F7"/>
<path d="M167.065 154.281L166.947 154.571L164.174 161.157L162.624 164.848H156.679L158.295 161.157L161.186 154.538L161.297 154.281H167.065Z" fill="#F2F2F2"/>
<path d="M172.801 163.795V164.848H163.017L163.423 163.795H172.801Z" fill="#D3D3D3"/>
<path d="M164.534 161.119L167.419 154.249V161.119H164.534Z" fill="#D3D3D3"/>
<path d="M161.856 157.474C162.176 156.644 162.943 156.141 163.696 156.203C163.635 156.167 163.571 156.136 163.505 156.11C162.635 155.772 161.624 156.298 161.244 157.286C160.863 158.274 161.259 159.35 162.129 159.688C162.267 159.742 162.408 159.771 162.55 159.783C161.818 159.371 161.505 158.387 161.856 157.474Z" fill="white"/>
<path d="M163.023 159.746C163.606 159.615 164.138 159.168 164.39 158.512C164.669 157.787 164.528 157.019 164.092 156.525C164.027 156.452 163.957 156.384 163.88 156.325C163.822 156.28 163.76 156.239 163.697 156.202C162.945 156.139 162.178 156.643 161.858 157.474C161.507 158.386 161.819 159.37 162.552 159.783C162.606 159.787 162.658 159.79 162.711 159.788C162.815 159.786 162.919 159.769 163.023 159.746Z" fill="#D3D3D3"/>
<path d="M259.658 116.447C259.658 116.447 258.424 116.612 258.435 116.087C258.444 115.562 258.528 114.877 258.528 114.877L259.658 116.447Z" fill="#EEA987"/>
<path d="M266.59 110.754L262.541 113.905C263.057 113.807 263.921 113.681 263.942 113.954C263.969 114.34 262.402 114.808 261.906 115.16C261.451 115.484 260.973 116.06 260.846 116.087L259.961 116.85L258.529 114.877C258.529 114.877 260.892 112.186 261.462 111.613C262.388 110.68 266.134 110.131 266.338 110.268C266.708 110.512 266.59 110.754 266.59 110.754Z" fill="#EEA987"/>
<path d="M261.592 116.983L258.327 114.2L247.128 125.586C245.374 126.798 250.548 130.976 252.008 131.889C255.762 134.231 260.19 139.648 264.784 136.344C269.763 132.761 262.514 130.212 260.097 130.274C258.001 130.328 253.439 126.184 253.439 126.184L261.592 116.983Z" fill="#FFBE55"/>
<path d="M255.682 219.146C255.682 219.146 253.821 221.111 251.933 221.523C250.044 221.934 246.785 223.336 246.77 224.465C246.755 225.593 254.144 225.458 256.305 224.322C259.531 222.625 259.86 223.136 260.217 222.288C260.575 221.441 259.788 219.17 259.811 218.902C259.839 218.569 255.682 219.146 255.682 219.146Z" fill="#0B4870"/>
<path d="M255.891 218.206C255.891 218.206 255.645 219.125 255.682 219.146C255.719 219.166 259.939 219.641 259.811 218.902C259.707 218.302 259.56 217.651 259.56 217.651L255.891 218.206Z" fill="#2F6B8C"/>
<path d="M276.7 219.658C276.7 219.658 275.331 221.572 273.5 222.014C271.695 222.45 269.024 224.15 268.935 225.246C268.847 226.341 274.693 226.905 277.745 224.981C279.751 223.715 280.499 223.788 280.903 222.984C281.307 222.179 280.692 219.927 280.732 219.666C280.781 219.344 276.7 219.658 276.7 219.658Z" fill="#0B4870"/>
<path d="M276.755 218.711C276.755 218.711 276.666 219.637 276.7 219.658C276.734 219.679 280.756 220.394 280.732 219.666C280.712 219.086 280.476 218.365 280.476 218.365L276.755 218.711Z" fill="#2F6B8C"/>
<path d="M260.147 162.902C260.147 162.902 258.193 177.185 257.395 182.013C256.462 187.657 256.146 192.32 255.884 195.244C255.557 198.918 255.124 217.722 254.895 218.798C254.664 219.871 260.586 219.313 260.586 219.313C260.586 219.313 263.688 194.797 264.663 190.883C265.571 187.24 268.215 171.499 269.042 172.494C269.87 173.489 272.407 191.32 273.019 194.193C273.634 197.067 275.277 219.692 275.277 219.692C275.277 219.692 280.864 220.593 281.988 219.692C281.988 219.692 281.106 199.518 280.716 194.13C280.567 192.075 282.007 169.546 278.556 160.46C276.732 155.66 260.147 162.902 260.147 162.902Z" fill="#0E538C"/>
<path d="M266.536 128.651C266.536 128.651 261.365 129.727 260.751 130.274C260.085 130.857 258.909 136.553 258.84 138.141C258.769 139.73 259.463 146.359 260.129 148.828C260.795 151.297 259.256 161.856 258.835 165.277C258.835 165.277 270.343 167.45 280.58 166.11C280.58 166.11 279.185 155.72 279.595 152.338C280.121 148.003 281.382 138.015 281.382 138.015C281.382 138.015 281.391 132.394 280.599 131.496C278.901 129.567 272.372 128.651 272.372 128.651H266.536Z" fill="#FFBE55"/>
<path d="M273.647 139.076C273.889 144.221 275.517 145.472 277.12 145.072C277.623 144.947 278.117 144.659 278.551 144.279C279.232 143.683 279.767 142.858 279.958 142.073C280.66 139.208 280.666 131.305 277.072 130.288C277.072 130.288 273.173 129.02 273.647 139.076Z" fill="#FFBE55"/>
<path d="M258.181 141.413C258.181 141.413 261.066 140.932 261.242 145.141C261.418 149.351 263.23 157.171 266.181 160.288L254.571 160.731C251.619 157.615 250.17 150.151 249.95 145.943C249.746 142.074 246.887 142.215 246.887 142.215L258.181 141.413Z" fill="#D3D3D3"/>
<path d="M264.954 131.771C265.02 131.816 265.09 131.859 265.168 131.895C265.43 132.03 265.763 132.127 266.182 132.173C266.334 132.191 266.488 132.196 266.642 132.192C266.736 132.191 266.831 132.184 266.927 132.176C269.664 131.907 272.38 128.756 272.38 128.756C266.884 127.919 264.528 128.949 264.528 128.949C264.528 128.949 263.648 130.886 264.954 131.771Z" fill="#FFBE55"/>
<path d="M265.068 129.778C265.068 129.778 266.348 130.629 271.202 128.477C271.202 128.477 270.718 125.577 271.466 122.395C272.188 119.333 265.504 126.172 265.504 126.172C265.582 126.228 265.597 126.541 265.551 126.977C265.54 127.095 265.523 127.221 265.503 127.352C265.468 127.578 265.421 127.819 265.362 128.067C265.347 128.135 265.331 128.201 265.312 128.268C265.039 129.314 265.068 128.866 265.068 129.778Z" fill="#EEA886"/>
<path d="M271.201 127.552C271.201 127.552 268.663 129.092 266.152 129.439L267.488 131.584L271.719 128.651L271.201 127.552Z" fill="#0B4870"/>
<path d="M265.312 128.268C265.312 128.268 265.58 129.151 266.152 129.439L264.897 131.198L264.943 128.865L265.312 128.268Z" fill="#0B4870"/>
<path d="M265.334 127.421C268.212 127.574 270.053 124.572 270.109 124.484C268.302 126.469 265.503 126.587 265.503 126.587C265.468 126.813 265.393 127.173 265.334 127.421Z" fill="#A77860"/>
<path d="M258.181 141.413C258.181 141.413 254.726 141.736 255.456 146.587L245.2 147.145C245.2 147.145 243.782 143.841 246.886 142.215L258.181 141.413Z" fill="#F7F7F7"/>
<path d="M267.071 150.481C267.071 150.481 266.627 150.691 266.24 150.586C265.573 150.404 265.004 149.471 264.132 149.95C263.262 150.429 263.994 153.638 264.436 154.108C264.879 154.578 266.235 154.303 267.933 153.079C269.629 151.856 267.071 150.481 267.071 150.481Z" fill="#EEA886"/>
<path d="M264.449 149.832C264.449 149.832 262.977 149.943 261.353 150.268C259.928 150.553 258.199 151.106 258.266 151.469C258.367 152.018 259.734 151.4 261.165 151.213C262.484 151.041 262.252 151.299 262.252 151.299C262.252 151.299 262.313 151.222 260.914 151.694C259.407 152.201 257.813 152.808 257.861 153.106C257.923 153.474 257.961 153.515 258.537 153.421C258.218 153.547 258.206 153.654 258.246 153.796C258.45 154.523 260.777 154.129 261.7 153.971C260.991 154.097 260.484 154.265 260.896 154.631C261.365 155.047 264.631 154.339 265.825 154.199C267.126 154.047 264.449 149.832 264.449 149.832Z" fill="#EEA886"/>
<path d="M275.924 130.39C274.868 130.739 274.305 132.24 274.946 135.358C275.657 138.806 276.452 140.482 276.911 141.294C277.37 142.106 279.845 146.263 279.393 146.923C278.94 147.581 272.958 149.146 272.551 149.263C271.74 149.495 266.313 150.584 266.313 150.584L267.641 155.26C267.641 155.26 284.165 152.423 284.97 151.614C285.774 150.805 286.194 149.709 285.304 146.882C284.4 144.01 282.776 137.283 282.486 136.758C282.199 136.232 280.685 128.816 275.924 130.39Z" fill="#FFBE55"/>
<path opacity="0.3" d="M275.093 136.038C275.093 136.038 275.633 143.003 278.03 147.95C278.758 147.786 279.475 147.407 280.104 146.905C280.104 146.905 277.334 142.328 277.086 141.807C276.838 141.287 275.373 137.25 275.093 136.038Z" fill="#A77860"/>
<path opacity="0.3" d="M267.152 154.275C267.152 154.275 273.804 155.476 279.531 154.76C279.446 154.204 279.523 153.594 279.701 152.88C279.701 152.88 274.33 153.94 273.728 154.013C273.125 154.084 268.514 154.319 267.152 154.275Z" fill="#A77860"/>
<path d="M74.9556 113.429L74.8837 114.087L74.106 121.475C72.2748 120.126 70.7707 121.298 69.6327 123.199C69.6 123.251 69.5666 123.304 69.5346 123.363C68.534 121.541 67.3378 118.245 69.5673 115.376C70.6667 113.962 72.2879 113.35 73.9425 113.35C74.0406 113.35 74.1453 113.35 74.2434 113.356C74.2892 113.356 74.3284 113.363 74.3742 113.363C74.4455 113.369 74.524 113.376 74.5965 113.382C74.6554 113.39 74.7143 113.396 74.7731 113.402C74.8065 113.409 74.8392 113.409 74.8712 113.415C74.8967 113.422 74.9294 113.422 74.9556 113.429Z" fill="#E8734D"/>
<path d="M80.1941 125.292C79.9718 125.43 79.0634 125.613 79.0634 125.613C79.0634 125.613 78.1085 128.667 77.0491 128.647C76.8718 128.641 76.624 128.62 76.3166 128.568C75.5906 128.443 74.5442 128.147 73.4651 127.555L73.7398 124.969L74.0217 122.285C74.0217 122.278 74.0282 122.278 74.0282 122.278L74.0806 121.725L74.1067 121.475C72.2755 120.125 70.7713 121.297 69.6334 123.198C69.2665 122.337 68.9794 121.409 68.8348 120.481C68.3378 117.388 69.4038 114.349 74.2303 114.073C74.42 114.06 74.643 114.066 74.8843 114.086C76.4539 114.198 78.8482 115.007 79.8554 117.705C80.0319 118.166 80.1628 118.685 80.2412 119.265C80.2412 119.265 80.117 120.469 79.8292 121.416C79.5473 122.364 80.41 125.153 80.1941 125.292Z" fill="#A77860"/>
<path d="M80.2399 119.265C80.2399 119.265 77.5324 121.146 74.8379 121.548C74.6606 121.575 74.4972 121.607 74.3337 121.653H74.3271C74.2421 121.673 74.1571 121.699 74.0786 121.726L74.1047 121.475C72.2735 120.126 70.7693 121.298 69.6314 123.199C69.5987 123.251 69.5653 123.304 69.5333 123.363C69.3371 123.002 69.1278 122.581 68.9453 122.114C68.9054 122.016 68.8669 121.916 68.827 121.811C68.6896 121.436 68.5719 121.029 68.481 120.607C68.481 120.6 68.481 120.594 68.4738 120.588C68.4476 120.469 68.4287 120.35 68.4084 120.225C68.3822 120.101 68.3626 119.969 68.3495 119.83C68.3358 119.706 68.3234 119.573 68.3168 119.449C68.3097 119.318 68.3031 119.186 68.3031 119.054C68.3031 117.843 68.6367 116.574 69.5653 115.376C70.6647 113.962 72.286 113.35 73.9406 113.35C74.0387 113.35 74.1433 113.35 74.2414 113.356C74.2872 113.356 74.3265 113.363 74.3722 113.363C74.4435 113.369 74.522 113.376 74.5946 113.382C74.6535 113.39 74.7123 113.396 74.7712 113.402C74.8045 113.409 74.8372 113.409 74.8693 113.415C74.8954 113.422 74.9281 113.422 74.9543 113.429C77.3414 113.791 79.5781 115.383 80.1274 117.653C80.2602 118.16 80.2988 118.698 80.2399 119.265Z" fill="#0E538C"/>
<path d="M67.311 129.247C67.2515 129.555 67.1736 129.884 67.0755 130.227C67.1279 130.003 67.2063 129.666 67.311 129.247Z" fill="#E8734D"/>
<path d="M95.2296 219.926C95.2296 219.926 97.7272 223.455 97.3852 224.015C97.0438 224.575 94.416 224.654 92.8183 224.015C91.2199 223.377 91.1827 219.239 90.4593 217.463C90.1565 216.719 90.8027 214.522 91.715 214.362C92.6267 214.203 93.6162 214.672 93.6162 214.672C93.6162 214.672 92.6705 217.175 95.2296 219.926Z" fill="#FFBE55"/>
<path d="M93.6338 214.644C93.6338 214.644 94.1583 216.146 94.3506 217.581C94.5095 218.772 96.1295 221.297 96.0536 221.619C95.9771 221.939 93.9223 222.228 93.0838 221.403C92.248 220.578 91.7078 218.183 91.524 216.75C91.3514 215.415 91.1356 214.756 91.1356 214.756C91.1356 214.756 92.8333 213.764 93.6338 214.644Z" fill="#A77860"/>
<path d="M73.4952 219.985C73.4952 219.985 75.9026 223.455 75.5592 224.015C75.2165 224.575 72.5914 224.654 70.9924 224.015C69.3946 223.376 69.3547 219.239 68.6327 217.463C68.3293 216.719 68.978 214.522 69.8891 214.362C70.8001 214.203 71.8674 214.705 71.8674 214.705C71.8674 214.705 70.9355 217.232 73.4952 219.985Z" fill="#FFBE55"/>
<path d="M71.8674 214.705C71.8674 214.705 72.0577 216.343 72.3618 217.502C72.6673 218.66 74.3036 221.297 74.2277 221.618C74.1518 221.938 72.095 222.228 71.2592 221.403C70.4214 220.578 69.774 218.192 69.6988 216.75C69.6229 215.304 69.8891 214.362 69.8891 214.362C69.8891 214.362 71.0682 213.827 71.8674 214.705Z" fill="#A77860"/>
<path d="M93.7843 215.38C93.7843 215.38 93.6607 215.485 93.4507 215.589C93.0452 215.799 92.3062 216.017 91.541 215.458C91.475 215.412 91.3514 215.209 91.1683 214.88C91.1683 214.88 91.1683 214.88 91.1683 214.872V214.865C91.1486 214.84 91.1356 214.813 91.1159 214.78C89.5398 211.866 84.5302 200.43 84.5302 197.009C84.5302 193.106 82.5289 188.344 81.2602 185.579C80.7834 184.546 80.4034 183.797 80.2726 183.468C80.1353 183.133 80.0045 182.804 79.8802 182.481C75.7993 172.132 76.6233 168.907 76.0478 168.203C75.4598 167.479 75.4075 168.65 75.0602 170.256C74.8313 171.341 74.4128 178.093 74.0269 182.849C73.9681 183.646 73.9027 184.389 73.8438 185.033C73.7326 186.218 73.628 187.093 73.5364 187.455C73.0917 189.219 73.4383 195.153 73.1963 198.153C72.9472 201.147 71.8687 214.707 71.8687 214.707C71.8687 214.707 71.0316 216.082 69.8544 214.741C69.8479 214.728 69.8348 214.701 69.8217 214.648C69.8021 214.589 69.789 214.504 69.7628 214.392C69.3312 212.108 67.827 199.351 67.7812 196.075C67.7289 192.508 67.6766 187.593 67.585 186.054C67.5327 185.231 67.4804 184.449 67.4215 183.698C67.3882 183.298 67.3555 182.902 67.3234 182.52C66.3293 170.862 64.7336 168.277 67.9578 158.715C67.9715 158.675 67.984 158.63 68.0036 158.591C68.5791 156.893 69.1808 155.485 69.7955 154.321C69.8086 154.295 69.8217 154.268 69.8348 154.242C69.8413 154.234 69.8348 154.234 69.8348 154.234C71.1232 151.82 72.4704 150.504 73.7915 149.945C74.1904 149.78 74.59 149.681 74.9818 149.636C75.2237 149.616 75.4657 149.609 75.7077 149.628C75.7339 149.628 75.7666 149.628 75.7927 149.636C76.3159 149.681 76.826 149.826 77.3165 150.043C77.3165 150.043 77.3231 150.043 77.3231 150.05C77.5258 150.129 77.722 150.235 77.9182 150.339L77.9313 150.347C78.6638 150.76 79.3636 151.32 79.9979 151.939C80.0699 152.005 80.1287 152.063 80.1941 152.136L80.2013 152.142C80.4826 152.418 80.7441 152.709 80.9992 152.998C81.2412 153.281 81.476 153.57 81.6925 153.854C81.8893 154.103 82.0593 154.334 82.2353 154.571V154.578C82.9677 155.611 83.4909 156.518 83.7467 156.959C83.7656 156.993 83.7859 157.025 83.799 157.058C83.8382 157.144 83.8703 157.195 83.884 157.229C83.8905 157.235 83.8971 157.242 83.8971 157.248C83.8971 157.256 83.9036 157.262 83.9036 157.268C83.9174 157.347 83.9893 157.703 84.1005 158.242C84.6498 160.913 86.1338 168.209 86.5334 170.347C86.8015 171.775 87.3247 176.171 87.776 180.243C87.9846 182.138 88.1742 183.955 88.3181 185.383C88.4365 186.56 88.5215 187.468 88.5536 187.916C88.6974 190.087 90.7837 198.258 90.6856 199.035C90.6006 199.712 93.0008 211.55 93.6358 214.641C93.6358 214.648 93.6358 214.655 93.6423 214.662C93.6489 214.681 93.6489 214.694 93.6554 214.707C93.7385 215.136 93.7843 215.38 93.7843 215.38Z" fill="#A77860"/>
<path d="M88.2652 179.981C88.1082 180.074 87.9447 180.159 87.7747 180.244C85.4922 181.442 82.6924 182.119 79.8809 182.481C77.879 182.743 75.8647 182.843 74.0276 182.849C71.1827 182.863 68.7367 182.666 67.3241 182.52C66.5 182.435 66.0298 182.369 66.0298 182.369C64.4275 170.716 66.0749 162.834 67.6125 158.466C68.5863 155.683 69.5084 154.32 69.5084 154.32C69.5084 154.32 69.6131 154.32 69.7962 154.32H69.8354C70.6078 154.32 72.6346 154.347 74.9236 154.518C76.9967 154.676 79.2857 154.959 81.045 155.465C81.4956 155.596 81.9142 155.741 82.2811 155.899C82.9547 156.195 83.4648 156.544 83.746 156.958C83.765 156.991 83.7853 157.024 83.7983 157.057C83.8376 157.116 83.8637 157.168 83.8834 157.228C83.8899 157.234 83.8964 157.241 83.8964 157.247C83.8964 157.255 83.903 157.26 83.903 157.267C83.9887 157.491 84.0802 157.807 84.1907 158.188C85.5184 163.125 88.2652 179.981 88.2652 179.981Z" fill="#0E538C"/>
<path d="M90.3913 217.152V220.846H90.8491V217.991L90.3913 217.152Z" fill="#FFBE55"/>
<path d="M68.5654 217.152V220.846H69.0225V217.991L68.5654 217.152Z" fill="#FFBE55"/>
<path d="M74.106 121.475L74.0799 121.726L74.0276 122.279C74.0276 122.279 74.021 122.279 74.021 122.285L73.7392 124.97L73.4645 127.556L73.197 130.141C73.197 130.141 73.0001 130.299 72.6803 130.542C72.6731 130.549 72.6731 130.556 72.6666 130.556C72.6208 130.595 72.5692 130.634 72.5168 130.674C72.4449 130.727 72.3723 130.786 72.2938 130.845C72.0525 131.029 71.7706 131.234 71.4632 131.463C71.4567 131.47 71.4567 131.47 71.4495 131.47C71.4364 131.476 71.4168 131.49 71.3978 131.503C70.7955 131.938 70.1029 132.419 69.4221 132.832C67.9179 133.76 66.4791 134.392 66.211 133.642C66.192 133.596 66.1848 133.549 66.1783 133.503V133.496C66.139 133.22 66.211 132.819 66.4202 132.267C66.6688 131.602 66.865 131.01 67.0219 130.457C67.0219 130.444 67.0285 130.424 67.0285 130.411C67.0481 130.345 67.0612 130.287 67.0742 130.228C67.1723 129.885 67.2508 129.556 67.3097 129.247C67.7864 126.826 67.4732 124.996 67.6955 120.884C67.7217 120.365 67.7609 119.812 67.8067 119.213C68.2312 113.897 72.0839 113.311 73.9412 113.351C72.2866 113.351 70.6647 113.963 69.566 115.377C68.2253 117.101 68.1206 118.99 68.481 120.608C68.7099 121.681 69.135 122.641 69.5333 123.364C69.566 123.305 69.5993 123.252 69.6314 123.199C70.7706 121.298 72.2748 120.126 74.106 121.475Z" fill="#0E538C"/>
<path d="M77.5454 132.338C77.5454 132.338 77.4081 132.372 77.1857 132.424C76.7214 132.53 75.8581 132.707 74.9818 132.832C74.851 132.851 74.7202 132.872 74.5894 132.884C74.5632 132.891 74.5305 132.891 74.5043 132.897C74.2225 132.931 73.9419 132.957 73.6796 132.965C73.3199 132.984 72.9864 132.978 72.7248 132.938C72.182 132.851 71.9008 132.628 72.1493 132.161C72.2016 132.068 72.2415 131.963 72.2801 131.851C72.352 131.668 72.4043 131.451 72.4436 131.214V131.206C72.4436 131.199 72.4436 131.199 72.4436 131.193C72.4763 131.028 72.4959 130.851 72.5155 130.674C72.5678 130.633 72.6195 130.594 72.6653 130.555C72.6718 130.555 72.6718 130.547 72.679 130.541C72.9988 130.299 73.1957 130.141 73.1957 130.141L73.4632 127.555L73.7378 124.969C75.0458 124.759 76.6357 124.732 76.2361 125.903C76.0138 126.575 76.0988 127.548 76.3081 128.535C76.3081 128.548 76.3146 128.554 76.3146 128.567C76.3735 128.837 76.4389 129.107 76.5108 129.377C76.5827 129.653 76.6678 129.916 76.7462 130.174L77.0144 130.982L77.0209 131.009C77.3106 131.798 77.5454 132.338 77.5454 132.338Z" fill="#A77860"/>
<path d="M63.1247 148.967C63.2032 149.61 66.1881 149.476 69.373 149.148C69.3763 149.161 69.3796 149.172 69.3835 149.185C69.4515 149.468 69.511 149.72 69.5542 149.897C69.6006 150.091 69.6445 150.297 69.6817 150.512C70.0015 152.346 69.976 154.927 69.3678 157.14C69.3678 157.14 77.3963 160.151 82.4033 157.407C82.4033 157.407 81.8716 153.027 82.6702 150.195C83.4707 147.363 87.6471 137.497 87.6471 137.497C87.6471 137.497 84.6191 133.094 82.3085 132.288C79.9979 131.482 77.019 130.984 77.019 130.984L72.6888 131.144C72.6888 131.144 69.084 132.089 68.2763 132.344C66.8342 132.803 66.2764 133.285 65.5295 134.783C64.5027 136.843 62.7722 146.072 63.1247 148.967ZM67.6779 144.114C67.6779 144.114 68.0722 144.992 68.4261 145.986C68.1376 146.013 67.8643 146.014 67.7348 146.033C66.5942 146.205 67.4516 144.747 67.6779 144.114Z" fill="#FFBE55"/>
<path d="M76.5121 129.377C73.851 129.002 73.4776 127.595 73.4645 127.555C76.31 128.535 76.31 128.535 76.31 128.535C76.31 128.548 76.3166 128.554 76.3166 128.568C76.3748 128.837 76.4408 129.108 76.5121 129.377Z" fill="#A77860"/>
<path d="M67.7348 144.149C67.7348 144.149 67.9303 144.563 68.4653 146.19C69.0081 141.618 68.7243 139.237 68.7243 139.237C68.6648 141.681 67.7348 144.149 67.7348 144.149Z" fill="#CFBEB8"/>
<path d="M69.3829 149.185C69.4509 149.468 69.5104 149.72 69.5536 149.897C69.6 150.091 69.6438 150.297 69.6811 150.512C71.4744 149.531 72.7634 148.764 72.7634 148.764C72.2807 148.872 69.3829 149.185 69.3829 149.185Z" fill="#CFBEB8"/>
<path d="M72.4442 131.207L77.5435 135.388L77.0177 130.983C77.0177 130.983 74.0452 130.339 72.4442 131.207Z" fill="#A77860"/>
<path d="M76.07 134.679L77.5435 135.388L72.5365 130.395L76.07 134.679Z" fill="#FCD2B1"/>
<path d="M76.5121 143.405C76.4794 144.156 76.4075 145.01 76.3035 145.925C76.2178 146.676 76.1138 147.471 75.9954 148.287C75.9824 148.359 75.9765 148.433 75.9628 148.504C75.9039 148.879 75.8516 149.255 75.7927 149.637C75.7862 149.643 75.7862 149.65 75.7862 149.656C75.7665 149.761 75.7463 149.873 75.7339 149.985C75.7142 150.083 75.7005 150.189 75.6815 150.295C75.6678 150.386 75.6488 150.485 75.6358 150.578C75.4069 151.932 75.159 153.275 74.9229 154.519C74.6351 155.985 74.367 157.315 74.1446 158.328C74.0995 158.558 74.0531 158.768 74.0145 158.966C73.851 159.73 73.0727 160.184 72.3337 159.953L68.0042 158.591L67.6118 158.467L67.1867 158.335C67.1867 158.335 69.5738 152.282 69.1487 149.21C69.1553 149.196 69.1487 149.183 69.1487 149.176C69.1291 149.052 69.1095 148.94 69.0833 148.828C68.8413 147.828 68.5732 146.886 68.3312 146.072C68.3247 146.045 68.3116 146.019 68.3051 145.992C68.3051 145.979 68.2985 145.967 68.292 145.952C68.2063 145.676 68.1213 145.426 68.05 145.182L67.9316 144.821C67.8603 144.616 67.7943 144.433 67.742 144.268C67.7354 144.241 67.7289 144.222 67.7158 144.201C67.7158 144.201 67.7093 144.195 67.7158 144.195C67.5458 143.695 67.4346 143.406 67.4346 143.406C67.4346 143.406 66.1462 136.261 69.4228 132.832C69.9531 132.28 70.6071 131.82 71.3985 131.503C71.4573 131.484 71.5162 131.457 71.5751 131.438C71.5947 131.431 71.6012 131.431 71.6012 131.431C71.7451 131.378 71.8955 131.332 72.0525 131.292C72.1826 131.252 72.3075 131.22 72.4449 131.193C72.458 131.193 72.471 131.187 72.4841 131.187C72.5502 131.174 72.6084 131.161 72.6738 131.155C72.681 131.147 72.681 131.147 72.6875 131.147C72.6875 131.147 72.7987 131.325 72.9818 131.648C73.1519 131.957 73.4004 132.403 73.6809 132.964C74.0537 133.713 74.4984 134.654 74.9177 135.714C75.8195 137.99 76.6305 140.807 76.5121 143.405Z" fill="#0B4870"/>
<path d="M88.5202 138.331L85.8061 141.937L85.1848 142.76L83.8055 144.596C83.8055 145.286 83.8186 146.049 83.8448 146.859V146.865C83.852 147.101 83.8644 147.333 83.8709 147.569C83.9036 148.398 83.9494 149.254 83.9952 150.108C84.0279 150.635 84.0606 151.161 84.0926 151.675C84.0998 151.727 84.0998 151.78 84.1064 151.833V151.904C84.1521 152.562 84.1979 153.195 84.2437 153.792C84.2437 153.838 84.2437 153.885 84.2502 153.931C84.4203 156.253 84.5772 157.965 84.5772 157.965L84.1914 158.189L84.0998 158.241L82.419 159.214C81.837 159.55 81.111 159.136 81.0973 158.465C81.0973 158.314 81.0908 158.149 81.0908 157.978C81.0777 157.274 81.0646 156.411 81.0456 155.465C81.0319 154.952 81.026 154.406 81.0123 153.845C81.0123 153.569 81.0057 153.286 80.9992 152.997C80.9927 152.806 80.9927 152.609 80.9855 152.411V152.392L80.9665 151.325C80.9593 151.169 80.9593 151.01 80.9528 150.859C80.9462 150.352 80.9397 149.853 80.9266 149.352C80.9201 148.866 80.9076 148.385 80.9005 147.917C80.8874 147.299 80.8743 146.7 80.8678 146.135C80.8481 145.239 80.8285 144.424 80.8154 143.739C80.7631 141.088 79.6971 137.529 78.756 134.87C77.9836 132.713 77.3035 131.146 77.3035 131.146C77.3296 131.154 77.3492 131.16 77.3754 131.173C77.4277 131.186 77.48 131.205 77.5324 131.226L77.4735 131.068L77.4401 130.981C77.4401 130.981 77.5448 130.995 77.7279 131.028C78.637 131.185 81.4622 131.706 83.0318 132.495C83.47 132.712 83.9991 133.146 84.555 133.686C85.432 134.522 86.3672 135.614 87.1193 136.529C87.931 137.536 88.5202 138.331 88.5202 138.331Z" fill="#0B4870"/>
<path d="M84.2483 153.792C84.2483 153.792 80.6931 153.931 80.1398 153.792C79.5879 153.653 75.8987 152.043 75.6763 150.454C75.4552 148.864 84.2483 151.878 84.2483 151.878V153.792Z" fill="#A77860"/>
<path d="M73.2173 148.824L87.6465 147.125L81.1287 152.461L73.2173 148.824Z" fill="#D3D3D3"/>
<path d="M81.1287 152.461L73.2173 149.748V148.824L81.3949 151.464L81.1287 152.461Z" fill="#F2F2F2"/>
<path d="M77.4088 146.159C77.4088 146.159 78.6017 146.159 79.2707 146.023C79.788 145.916 81.0731 146.063 81.4021 146.355C81.7284 146.646 82.7709 148.68 82.9684 148.805C83.1646 148.929 82.8677 149.218 82.5211 149.073C82.5211 149.073 82.2039 149.962 81.4191 149.631C80.6349 149.296 80.1019 148.568 79.6919 148.44C79.2818 148.312 76.8914 147.665 76.8914 147.665C76.8914 147.665 76.7927 145.942 77.4088 146.159Z" fill="#A77860"/>
<path d="M80.8154 135.391L79.495 134.548L77.3761 131.174L77.2845 131.029L76.7482 130.174L77.7292 131.029L77.794 131.128L80.8154 135.391Z" fill="#FFBE55"/>
<path d="M79.4924 134.547L77.5435 135.389L77.0183 130.984L76.7456 130.172L79.4924 134.547Z" fill="#FCD2B1"/>
<path d="M94.3402 149.063C94.3402 149.063 94.3473 149.458 94.2427 150.018C94.1511 150.544 93.9484 151.222 93.5429 151.834C92.8235 152.918 86.0546 153.735 84.2496 153.932C83.9684 153.966 83.8114 153.978 83.8114 153.978C83.831 153.938 83.8376 153.88 83.8513 153.807C83.9102 153.36 83.8578 152.386 83.8251 151.958C83.8179 151.827 83.8114 151.747 83.8114 151.747L83.8376 151.741L84.0926 151.675L94.3402 149.063Z" fill="#0B4870"/>
<path d="M101.331 135.023L97.6036 147.346L96.9496 149.51L94.2427 150.018L84.2489 151.88L84.1057 151.906L83.8245 151.959L82.3131 152.235L81.13 152.459L81.3982 151.465L81.5159 151.018L81.869 149.689L82.3595 147.853L82.3916 147.741L84.5897 139.517L85.3346 136.72L86.95 136.549L87.1207 136.53L101.331 135.023Z" fill="#F2F2F2"/>
<path d="M72.5364 130.395L76.07 134.679L74.1355 136.413L72.0499 131.285L72.5364 130.395Z" fill="#FFBE55"/>
<path d="M77.4408 145.991L77.4081 146.162L77.1138 147.722L77.0353 148.123C77.0353 148.123 76.637 148.189 75.9955 148.287C75.2041 148.412 74.0335 148.583 72.7654 148.762C72.7582 148.762 72.7582 148.762 72.7516 148.768C72.6928 148.775 72.628 148.781 72.5691 148.794C71.8295 148.893 71.0643 148.992 70.3253 149.084C70.1618 149.097 70.0048 149.116 69.8485 149.135C69.7825 149.143 69.7177 149.149 69.6589 149.156C69.5666 149.162 69.4757 149.175 69.3842 149.188C69.3057 149.196 69.2272 149.202 69.1487 149.208C68.6452 149.261 68.1677 149.307 67.7361 149.333C67.7361 149.333 66.1273 149.524 64.7996 149.524C63.9429 149.524 63.2045 149.445 63.0796 149.187C62.7526 148.537 63.1843 144.358 63.8906 140.595C64.5969 136.831 65.3228 134.667 66.1796 133.502V133.495C66.3889 133.212 66.814 132.949 67.3437 132.706C67.415 132.673 67.481 132.647 67.5523 132.613C67.7027 132.548 67.8604 132.482 68.0167 132.43C69.3646 131.916 70.9858 131.555 71.4639 131.462C71.5162 131.449 71.5555 131.436 71.5751 131.436C71.5947 131.43 71.6012 131.43 71.6012 131.43L68.7956 140.66V140.667L68.22 142.548L68.2063 142.607L67.7557 144.081L67.7361 144.148C67.7361 144.148 67.7296 144.167 67.7165 144.193C67.7099 144.193 67.7165 144.199 67.7165 144.199C67.6053 144.431 67.1867 145.351 67.207 145.772C67.2201 145.924 67.3247 145.99 67.4621 146.017C67.5602 146.009 67.7694 145.99 68.0637 145.971L68.273 145.95H68.2926C68.3253 145.944 68.3515 145.944 68.3842 145.944C68.3973 145.944 68.4038 145.944 68.4169 145.937H68.4954C69.4568 145.865 70.8825 145.779 72.0597 145.772C72.8837 145.772 73.9497 145.806 74.9177 145.852C75.4271 145.871 75.9052 145.897 76.3041 145.924C76.9836 145.959 77.4408 145.991 77.4408 145.991Z" fill="#0B4870"/>
<path d="M262.391 116.253C262.391 116.253 261.007 118.835 261.693 119.236C262.259 119.569 261.028 122.104 260.868 122.518C260.706 122.93 261.894 123.232 262.146 123.498C262.399 123.765 263.147 127.044 264.126 127.142C265.104 127.241 269.513 125.698 270.714 124.442C271.915 123.186 272.9 117.514 272.098 115.12C271.298 112.728 264.835 111.741 262.391 116.253Z" fill="#EEA987"/>
<path d="M262.115 116.812C262.115 116.812 259.301 113.947 261.727 112.582C268.649 108.686 270.569 113.517 271.103 113.654C271.636 113.793 274.662 114.002 273.135 119.35C271.822 123.942 270.714 124.442 270.714 124.442C270.714 124.442 270.659 121.475 270.104 121.067C269.237 120.435 267.337 120.588 267.337 120.588C267.337 120.588 268.243 118.169 266.827 117.825C265.413 117.484 263.548 116.278 262.115 116.812Z" fill="#0B4870"/>
<path d="M268.568 119.923C268.694 119.59 269.099 118.167 270.313 119.003C271.53 119.841 269.557 122.528 269.345 122.563C269.132 122.598 267.519 122.717 268.568 119.923Z" fill="#EEA987"/>
<path d="M212.421 132.134C211.217 133.39 206.809 134.938 205.828 134.839C204.854 134.74 204.101 131.456 203.847 131.193C203.598 130.923 202.408 130.621 202.571 130.212C202.728 129.799 203.964 127.258 203.395 126.929C202.912 126.646 203.455 125.284 203.82 124.502C203.971 124.166 204.095 123.943 204.095 123.943C206.541 119.436 213.003 120.423 213.8 122.81C214.605 125.206 213.617 130.877 212.421 132.134Z" fill="#EEA987"/>
<path d="M214.84 127.042C213.525 131.634 212.42 132.134 212.42 132.134C212.42 132.134 212.375 129.771 211.969 128.976C211.917 128.877 211.865 128.805 211.806 128.759C211.361 128.436 210.648 128.318 210.053 128.284C209.491 128.244 209.039 128.278 209.039 128.278C209.039 128.278 209.948 125.863 208.529 125.522C207.117 125.18 205.253 123.968 203.82 124.501C203.82 124.501 201.002 121.639 203.428 120.277C210.354 116.382 212.27 121.211 212.806 121.35C213.343 121.488 216.363 121.692 214.84 127.042Z" fill="#0B4870"/>
<path d="M210.271 127.617C210.397 127.284 210.802 125.859 212.016 126.697C213.233 127.534 211.26 130.222 211.048 130.256C210.835 130.291 209.221 130.409 210.271 127.617Z" fill="#EEA987"/>
</svg>
