<svg width="251" height="66" viewBox="0 0 251 66" fill="none" xmlns="http://www.w3.org/2000/svg">
<path d="M61.9346 42.4751C61.7502 42.4299 61.5563 42.384 61.359 42.3311C61.3434 42.3251 61.3298 42.3235 61.3136 42.3175C62.367 39.8314 63.2463 37.0687 63.8968 33.9955C66.1063 23.5833 63.0176 14.1958 55.4268 8.24201C50.6578 4.5027 44.6067 2.51122 38.7597 2.51122C38.6696 2.51122 38.5824 2.51316 38.4944 2.51367C38.4142 2.50916 38.3307 2.51367 38.2542 2.49756C38.2658 2.5031 38.2768 2.50968 38.289 2.51573C38.2743 2.51573 38.2598 2.51573 38.2452 2.51625C43.9075 5.27459 47.6327 10.1212 48.7545 16.1625C51.8965 18.6542 55.2331 23.3939 53.4309 31.883C52.8679 34.5197 52.1006 36.8509 51.1731 38.91C48.5797 37.8611 45.8647 36.6229 43.2861 35.2195C42.9215 35.0201 42.5575 34.8212 42.203 34.6173C41.8434 34.4133 41.489 34.2044 41.1344 33.9909C37.9148 32.0528 35.025 29.8432 32.9952 27.4051C32.7232 27.0748 32.4654 26.7448 32.2277 26.4095C31.98 26.0697 31.7564 25.7248 31.548 25.3753C30.4355 23.5057 29.858 21.5142 30.0183 19.426C30.1219 18.1158 30.489 16.9884 31.114 16.0508C31.1271 16.0322 31.136 16.01 31.1497 15.9913H31.1486C31.1528 15.9854 31.1552 15.9787 31.1592 15.9732C31.0378 15.9097 30.9069 15.8519 30.7755 15.7985C29.7508 15.3856 28.5126 15.1671 27.1917 15.1671C26.7981 15.1671 26.3952 15.1868 25.9919 15.2251C23.6756 15.4391 21.3442 16.2744 19.4795 17.5373C19.4308 17.8817 19.397 18.2312 19.3678 18.5862C19.0762 22.3694 19.829 27.0895 23.3599 32.063C23.588 32.3832 23.8263 32.7039 24.0784 33.0242C24.3262 33.345 24.5885 33.6653 24.8603 33.991C26.8614 36.341 29.5131 38.7258 33.0001 41.0713C33.3546 41.3144 33.7232 41.5522 34.0972 41.7954C34.4663 42.0281 34.8405 42.2613 35.2241 42.4943C36.5791 43.3201 38.0454 44.1409 39.6286 44.9521C41.1644 45.7381 42.6962 46.4445 44.2008 47.1021C44.4827 47.2291 44.7511 47.3564 45.0366 47.4829C42.9263 49.3983 40.6508 50.7901 38.4049 51.7896C37.487 52.207 36.569 52.5571 35.6758 52.8486C35.6668 52.8516 35.6571 52.854 35.6481 52.8576C33.9306 53.419 32.0689 53.419 30.3514 52.8576C30.3423 52.854 30.3332 52.8516 30.3237 52.8486C29.4303 52.557 28.5125 52.207 27.5946 51.7896C25.5674 50.8878 23.5229 49.6431 21.5909 48.0056C21.3834 47.8269 21.1664 47.6596 20.9651 47.4728C22.7299 46.7216 24.5483 45.8826 26.371 44.9522C27.6888 44.277 28.9068 43.5936 30.066 42.9077C30.2962 42.7759 30.5398 42.6424 30.7633 42.511C30.7609 42.5094 30.7588 42.5075 30.7564 42.5054C30.7623 42.5019 30.7695 42.4979 30.7755 42.4943C30.3652 42.2058 29.9672 41.9172 29.5796 41.6277C29.5484 41.6046 29.5166 41.5814 29.4859 41.5578C28.7679 41.02 28.0922 40.4802 27.4487 39.9394C27.3353 39.8443 27.2215 39.7486 27.1101 39.653C26.5876 39.2048 26.0941 38.7557 25.6202 38.3069C25.3983 38.0959 25.1781 37.885 24.9646 37.6719C24.6418 37.3507 24.3312 37.03 24.0316 36.7086C23.6388 36.2857 23.2542 35.8612 22.8961 35.4317C22.8366 35.3612 22.7722 35.2901 22.7138 35.2196C20.1352 36.6229 17.4207 37.8612 14.8268 38.9101C13.8993 36.8511 13.1325 34.5198 12.5685 31.8832C10.7668 23.394 14.1032 18.6543 17.2453 16.1627C17.2651 16.1481 17.2796 16.1335 17.2987 16.1195C17.7509 15.7645 18.2217 15.4391 18.7122 15.1431C19.1981 14.8465 19.7031 14.5747 20.2178 14.3319C21.9756 13.5067 23.884 12.9819 25.7637 12.8071C26.2445 12.7589 26.7205 12.7392 27.1917 12.7392C28.794 12.7392 30.3338 13.0015 31.6889 13.55C32.1647 13.7393 32.6018 13.9627 33.0001 14.2202C33.3787 14.4583 33.7232 14.7252 34.0293 15.0217C34.3355 15.3128 34.6073 15.6285 34.8355 15.9733C35.4963 16.925 35.8747 18.0812 35.9816 19.4262C36.1422 21.5143 35.5642 23.5008 34.4474 25.3704C36.3799 27.9103 39.4539 30.1833 42.6399 32.063C46.1706 27.0895 46.9229 22.3694 46.632 18.5862C46.6027 18.2312 46.5684 17.8817 46.5202 17.5373C46.4472 16.9931 46.3499 16.4589 46.2286 15.9346C46.1072 15.3857 45.9566 14.8515 45.782 14.3318C44.2375 9.71824 40.7943 6.1099 35.9186 4.13299C34.9765 3.75427 34.0002 3.4387 33.0001 3.19584C32.1501 2.98186 31.2855 2.82227 30.4063 2.71C29.5322 2.59823 28.6484 2.5352 27.7547 2.51612C27.585 2.51109 27.4149 2.51109 27.2401 2.51109C21.393 2.51109 15.337 4.50257 10.5729 8.24188C2.97722 14.1959 -0.106472 23.5834 2.10311 33.9955C2.72998 36.9548 3.57187 39.6196 4.57398 42.033C4.61227 42.1271 4.64591 42.2258 4.68471 42.3199C4.46725 42.3779 4.26371 42.4267 4.06029 42.475C1.20025 43.1746 -0.548492 45.9571 0.155981 48.6914C0.753203 51.0032 2.9098 52.5374 5.28903 52.5374C5.72666 52.5374 6.17332 52.484 6.61998 52.3773C6.76101 52.343 8.08165 52.0178 10.1457 51.3914C11.7726 53.3583 13.5254 55.0289 15.3373 56.452C15.6866 56.724 16.0367 56.9864 16.3911 57.2437C16.7601 57.5105 17.1293 57.7729 17.5034 58.0206C17.8901 58.2794 18.2784 58.5267 18.6672 58.7654C18.797 58.8454 18.9269 58.9184 19.0574 58.9955C19.3162 59.15 19.5754 59.3056 19.8348 59.4522C19.9899 59.5392 20.145 59.6199 20.3005 59.7045C20.5343 59.8318 20.7674 59.9602 21.0005 60.0811C21.1681 60.1678 21.3349 60.2479 21.502 60.3315C21.722 60.4413 21.9426 60.552 22.1616 60.6563C22.3338 60.7379 22.5045 60.8138 22.6758 60.8914C22.8892 60.9892 23.1032 61.0878 23.3163 61.1805C23.4889 61.2555 23.6601 61.3255 23.8318 61.3974C24.0404 61.4845 24.2487 61.5721 24.4562 61.6547C24.629 61.7231 24.8001 61.7881 24.9718 61.8536C25.1753 61.9312 25.3787 62.0092 25.5805 62.0823C25.7519 62.1442 25.9205 62.2031 26.0902 62.262C26.2191 62.3072 26.35 62.3556 26.478 62.3989C26.5272 62.4155 26.5772 62.429 26.6265 62.4457C26.7056 62.4718 26.7861 62.5016 26.8642 62.5267C30.8502 63.8274 35.1499 63.8274 39.1358 62.5267C39.2144 62.5016 39.2949 62.4718 39.374 62.4452C39.4234 62.429 39.4733 62.4155 39.5225 62.3989C39.65 62.3556 39.7803 62.3072 39.9089 62.2625C40.079 62.2029 40.2487 62.1442 40.4204 62.0823C40.6213 62.0093 40.8242 61.9317 41.0271 61.8541C41.1993 61.7881 41.371 61.7231 41.5443 61.6542C41.7513 61.5721 41.9586 61.4851 42.1666 61.3979C42.3394 61.326 42.5111 61.2553 42.6843 61.1805C42.8968 61.0878 43.1102 60.9895 43.3238 60.8925C43.495 60.8138 43.6662 60.7379 43.8384 60.6563C44.058 60.552 44.278 60.4408 44.4986 60.331C44.6652 60.2479 44.8319 60.1678 44.9996 60.0811C45.2327 59.9607 45.4659 59.8318 45.6996 59.705C45.8547 59.6199 46.0097 59.5392 46.1653 59.4522C46.4237 59.3062 46.6815 59.1516 46.9398 58.9979C47.0711 58.9194 47.2021 58.846 47.3335 58.7654C47.7223 58.5267 48.11 58.2789 48.4972 58.0206C48.8708 57.7728 49.24 57.5105 49.6091 57.2437C49.9635 56.9864 50.313 56.724 50.6629 56.452C52.4741 55.029 54.2225 53.3583 55.8498 51.3914C57.9183 52.0178 59.2346 52.343 59.3801 52.3773C59.8268 52.4842 60.2688 52.5374 60.7059 52.5374C63.0907 52.5374 65.2468 51.0032 65.844 48.6914C66.5485 45.9571 64.7998 43.1746 61.9346 42.4751Z" fill="#222222"/>
<path d="M97.472 11.1839H91.36V29.9999H86.912V11.1839H80.832V7.21593H97.472V11.1839ZM115.945 29.9999H107.881C105.321 29.9999 103.519 29.5626 102.473 28.6879C101.449 27.7919 100.937 26.2239 100.937 23.9839V7.21593H115.945V11.1839H105.385V16.5279H112.777L112.457 20.4959H105.385V23.6639C105.385 24.5599 105.588 25.1786 105.993 25.5199C106.399 25.8612 107.135 26.0319 108.201 26.0319H115.945V29.9999ZM135.128 11.1839H129.016V29.9999H124.568V11.1839H118.488V7.21593H135.128V11.1839ZM155.298 17.5519V19.2799C155.298 23.0986 154.572 25.8719 153.122 27.5999C151.692 29.3279 149.388 30.1919 146.21 30.1919C143.031 30.1919 140.727 29.3279 139.298 27.5999C137.89 25.8719 137.186 23.0666 137.186 19.1839V17.5199C137.186 13.9786 137.9 11.3439 139.33 9.61593C140.78 7.88793 143.063 7.02393 146.178 7.02393C149.314 7.02393 151.618 7.8986 153.09 9.64793C154.562 11.3972 155.298 14.0319 155.298 17.5519ZM150.85 19.1839V17.9999C150.85 15.9519 150.594 14.3199 150.082 13.1039C149.484 11.6959 148.204 10.9919 146.242 10.9919C144.258 10.9919 142.967 11.6959 142.37 13.1039C141.879 14.2559 141.634 15.8879 141.634 17.9999V19.1839C141.634 21.9359 142.018 23.7919 142.786 24.7519C143.084 25.1572 143.522 25.5092 144.098 25.8079C144.695 26.0852 145.399 26.2239 146.21 26.2239C147.042 26.2239 147.746 26.0852 148.322 25.8079C148.898 25.5306 149.346 25.1892 149.666 24.7839C149.986 24.3786 150.231 23.8452 150.402 23.1839C150.7 22.1386 150.85 20.8052 150.85 19.1839ZM174.003 11.1839H167.891V29.9999H163.443V11.1839H157.363V7.21593H174.003V11.1839ZM192.477 29.9999H184.413C181.853 29.9999 180.05 29.5626 179.005 28.6879C177.981 27.7919 177.469 26.2239 177.469 23.9839V7.21593H192.477V11.1839H181.917V16.5279H189.309L188.989 20.4959H181.917V23.6639C181.917 24.5599 182.119 25.1786 182.525 25.5199C182.93 25.8612 183.666 26.0319 184.733 26.0319H192.477V29.9999ZM198.388 27.3199C198.601 27.5199 198.708 27.9532 198.708 28.6199C198.708 29.2866 198.601 29.7266 198.388 29.9399C198.188 30.1532 197.754 30.2599 197.088 30.2599C196.421 30.2599 195.981 30.1532 195.768 29.9399C195.554 29.7266 195.448 29.2866 195.448 28.6199C195.448 27.9532 195.554 27.5199 195.768 27.3199C195.981 27.1066 196.421 26.9999 197.088 26.9999C197.754 26.9999 198.188 27.1066 198.388 27.3199ZM207.386 25.8199L209.746 25.7999C209.733 25.9066 209.719 26.0999 209.706 26.3799C209.693 26.6599 209.679 26.8532 209.666 26.9599C209.666 27.0532 209.653 27.2066 209.626 27.4199C209.599 27.6332 209.566 27.7932 209.526 27.8999C209.499 27.9932 209.459 28.1199 209.406 28.2799C209.166 28.9732 208.513 29.5199 207.446 29.9199C206.766 30.1599 206.053 30.2799 205.306 30.2799C204.573 30.2799 203.906 30.1599 203.306 29.9199C202.706 29.6799 202.233 29.3732 201.886 28.9999C201.099 28.1732 200.706 26.6266 200.706 24.3599C200.706 22.0799 201.099 20.5266 201.886 19.6999C202.233 19.3266 202.706 19.0199 203.306 18.7799C203.906 18.5399 204.573 18.4199 205.306 18.4199C206.746 18.4199 207.839 18.7799 208.586 19.4999C209.333 20.2199 209.706 21.2199 209.706 22.4999H207.346C207.346 21.9132 207.199 21.4799 206.906 21.1999C206.613 20.9066 206.066 20.7599 205.266 20.7599C204.479 20.7599 203.953 21.0066 203.686 21.4999C203.433 21.9932 203.306 22.7332 203.306 23.7199V24.7599C203.306 26.3466 203.613 27.3199 204.226 27.6799C204.506 27.8532 204.873 27.9399 205.326 27.9399C205.779 27.9399 206.146 27.8999 206.426 27.8199C206.719 27.7266 206.926 27.5732 207.046 27.3599C207.179 27.1466 207.266 26.9399 207.306 26.7399C207.346 26.5266 207.373 26.2199 207.386 25.8199ZM218.097 24.8399V23.7999C218.097 22.8132 217.95 22.0599 217.657 21.5399C217.377 21.0199 216.784 20.7599 215.877 20.7599C214.41 20.7599 213.677 21.7466 213.677 23.7199V24.7599C213.677 26.8799 214.41 27.9399 215.877 27.9399C216.824 27.9399 217.444 27.5866 217.737 26.8799C217.977 26.3199 218.097 25.6399 218.097 24.8399ZM220.697 24.2399C220.697 26.7066 220.23 28.3599 219.297 29.1999C218.51 29.9199 217.37 30.2799 215.877 30.2799C213.97 30.2799 212.684 29.7199 212.017 28.5999C211.39 27.5732 211.077 26.1199 211.077 24.2399C211.077 22.4799 211.39 21.0999 212.017 20.0999C212.71 18.9799 213.97 18.4199 215.797 18.4199C217.637 18.4199 218.91 18.9132 219.617 19.8999C220.337 20.8732 220.697 22.3199 220.697 24.2399ZM225.516 27.3199C225.73 27.5199 225.836 27.9532 225.836 28.6199C225.836 29.2866 225.73 29.7266 225.516 29.9399C225.316 30.1532 224.883 30.2599 224.216 30.2599C223.55 30.2599 223.11 30.1532 222.896 29.9399C222.683 29.7266 222.576 29.2866 222.576 28.6199C222.576 27.9532 222.683 27.5199 222.896 27.3199C223.11 27.1066 223.55 26.9999 224.216 26.9999C224.883 26.9999 225.316 27.1066 225.516 27.3199ZM231.175 29.9999L228.575 30.0199V14.9599H231.175V29.9999ZM238.848 29.9999H237.228C236.241 29.9999 235.488 29.7066 234.968 29.1199C234.461 28.5332 234.208 27.8332 234.208 27.0199V21.0199H233.108V19.0399H234.208V16.7999H236.808V19.0399H238.648V21.0199H236.808V26.8599C236.808 27.4866 237.108 27.7999 237.708 27.7999H238.848V29.9999ZM249.299 29.9999H247.559L246.759 28.6199L243.979 30.1199C242.432 30.1199 241.392 29.5599 240.859 28.4399C240.592 27.8932 240.406 27.3066 240.299 26.6799C240.206 26.0399 240.159 25.3799 240.159 24.6999C240.159 24.0066 240.166 23.4999 240.179 23.1799C240.192 22.8466 240.226 22.4666 240.279 22.0399C240.332 21.5999 240.406 21.2332 240.499 20.9399C240.606 20.6466 240.752 20.3466 240.939 20.0399C241.126 19.7199 241.352 19.4666 241.619 19.2799C242.219 18.8666 242.999 18.6599 243.959 18.6599H246.699V14.9599H249.299V29.9999ZM246.699 26.3599V20.9999H244.719C243.986 20.9999 243.472 21.2799 243.179 21.8399C242.899 22.3999 242.759 23.2399 242.759 24.3599C242.759 25.4666 242.892 26.2466 243.159 26.6999C243.439 27.1532 243.959 27.3799 244.719 27.3799L246.699 26.3599ZM92.44 58.9999H89.22L86.44 53.7199H84.44V58.9999H81.66V47.8199C81.66 46.7532 81.9067 45.9799 82.4 45.4999C82.8933 45.0066 83.72 44.7599 84.88 44.7599H87.24C88.6533 44.7599 89.7733 45.1932 90.6 46.0599C91.44 46.9132 91.86 47.9999 91.86 49.3199C91.86 50.2799 91.6067 51.1132 91.1 51.8199C90.6067 52.5132 89.9933 52.9932 89.26 53.2599L92.44 58.9999ZM87.06 51.3999C87.6467 51.3999 88.1267 51.1999 88.5 50.7999C88.8867 50.3866 89.08 49.8799 89.08 49.2799C89.08 48.6666 88.8933 48.1732 88.52 47.7999C88.16 47.4266 87.6733 47.2399 87.06 47.2399H85.68C84.8533 47.2399 84.44 47.6599 84.44 48.4999V51.3999H87.06ZM104.126 58.9999H99.0859C97.4859 58.9999 96.3593 58.7266 95.7059 58.1799C95.0659 57.6199 94.7459 56.6399 94.7459 55.2399V44.7599H104.126V47.2399H97.5259V50.5799H102.146L101.946 53.0599H97.5259V55.0399C97.5259 55.5999 97.6526 55.9866 97.9059 56.1999C98.1593 56.4132 98.6193 56.5199 99.2859 56.5199H104.126V58.9999ZM114.055 53.4799H116.635C116.635 55.2932 116.182 56.6866 115.275 57.6599C114.369 58.6332 113.089 59.1199 111.435 59.1199C107.795 59.1199 105.975 56.9799 105.975 52.6999V51.4999C105.975 48.1266 106.909 46.0132 108.775 45.1599C109.509 44.8132 110.395 44.6399 111.435 44.6399C112.955 44.6399 114.189 45.0599 115.135 45.8999C116.095 46.7266 116.575 47.9266 116.575 49.4999H113.975C113.829 48.7132 113.569 48.1199 113.195 47.7199C112.822 47.3199 112.235 47.1199 111.435 47.1199C110.502 47.1199 109.809 47.4132 109.355 47.9999C109.035 48.4132 108.849 49.1199 108.795 50.1199C108.769 50.4399 108.755 50.8732 108.755 51.4199V52.6599C108.755 54.1932 108.969 55.2399 109.395 55.7999C109.835 56.3599 110.515 56.6399 111.435 56.6399C112.369 56.6399 113.009 56.3866 113.355 55.8799C113.715 55.3599 113.949 54.5599 114.055 53.4799ZM129.784 58.9999H126.564L123.784 53.7199H121.784V58.9999H119.004V47.8199C119.004 46.7532 119.25 45.9799 119.744 45.4999C120.237 45.0066 121.064 44.7599 122.224 44.7599H124.584C125.997 44.7599 127.117 45.1932 127.944 46.0599C128.784 46.9132 129.204 47.9999 129.204 49.3199C129.204 50.2799 128.95 51.1132 128.444 51.8199C127.95 52.5132 127.337 52.9932 126.604 53.2599L129.784 58.9999ZM124.404 51.3999C124.99 51.3999 125.47 51.1999 125.844 50.7999C126.23 50.3866 126.424 49.8799 126.424 49.2799C126.424 48.6666 126.237 48.1732 125.864 47.7999C125.504 47.4266 125.017 47.2399 124.404 47.2399H123.024C122.197 47.2399 121.784 47.6599 121.784 48.4999V51.3999H124.404ZM142.89 58.9999H139.99L139.19 56.5399H134.41L133.63 58.9999H130.73L135.29 45.9599C135.49 45.5066 135.71 45.1932 135.95 45.0199C136.203 44.8466 136.51 44.7599 136.87 44.7599C137.23 44.7599 137.516 44.8399 137.73 44.9999C137.956 45.1599 138.156 45.4799 138.33 45.9599L142.89 58.9999ZM138.55 54.1999L136.87 48.5599L135.11 54.1999H138.55ZM154.104 47.2399H150.284V58.9999H147.504V47.2399H143.704V44.7599H154.104V47.2399ZM159.049 58.9999H156.269V44.7599H159.049V58.9999ZM173.463 44.7599V57.5599C173.463 57.9999 173.33 58.3799 173.063 58.6999C172.796 59.0066 172.483 59.1599 172.123 59.1599C171.203 59.1599 170.45 58.6266 169.863 57.5599L164.943 49.8599V58.9999H162.163V44.7599H164.843L170.683 54.0799V44.7599H173.463ZM175.468 52.2999V50.5399C175.468 48.6866 175.954 47.2399 176.928 46.1999C177.901 45.1599 179.248 44.6399 180.968 44.6399C182.688 44.6399 184.068 45.1599 185.108 46.1999C185.841 46.9332 186.208 48.0332 186.208 49.4999H183.608C183.608 47.9132 182.761 47.1199 181.068 47.1199C180.561 47.1199 180.128 47.2199 179.768 47.4199C179.421 47.6066 179.161 47.8266 178.988 48.0799C178.814 48.3332 178.681 48.7066 178.588 49.1999C178.494 49.6932 178.441 50.1066 178.428 50.4399C178.414 50.7732 178.408 51.2199 178.408 51.7799C178.408 52.3399 178.408 52.7199 178.408 52.9199C178.421 53.1066 178.441 53.4199 178.468 53.8599C178.508 54.2866 178.561 54.5932 178.628 54.7799C178.708 54.9666 178.814 55.2066 178.948 55.4999C179.094 55.7932 179.274 55.9999 179.488 56.1199C180.034 56.4666 180.654 56.6399 181.348 56.6399C182.508 56.6399 183.328 56.1466 183.808 55.1599V54.1999H182.088V51.8799H186.188V56.1799C185.774 57.1532 185.121 57.8866 184.228 58.3799C183.334 58.8732 182.321 59.1199 181.188 59.1199C179.174 59.1199 177.714 58.5599 176.808 57.4399C175.914 56.3066 175.468 54.5932 175.468 52.2999Z" fill="#222222"/>
</svg>
