<svg width="48" height="48" viewBox="0 0 48 48" fill="none" xmlns="http://www.w3.org/2000/svg">
<path d="M45.0433 30.891C44.9092 30.8581 44.7682 30.8247 44.6247 30.7863C44.6134 30.7819 44.6035 30.7808 44.5917 30.7763C45.3578 28.9683 45.9973 26.959 46.4704 24.724C48.0773 17.1515 45.831 10.3242 40.3104 5.99419C36.842 3.27469 32.4412 1.82634 28.1888 1.82634C28.1233 1.82634 28.0599 1.82775 27.9959 1.82812C27.9376 1.82484 27.8768 1.82812 27.8212 1.81641C27.8297 1.82044 27.8376 1.82522 27.8465 1.82963C27.8359 1.82963 27.8253 1.82963 27.8147 1.83C31.9327 3.83606 34.6419 7.36088 35.4578 11.7546C37.7429 13.5667 40.1695 17.0137 38.8588 23.1877C38.4494 25.1052 37.8913 26.8007 37.2168 28.2982C35.3307 27.5353 33.3561 26.6348 31.4808 25.6142C31.2156 25.4692 30.9509 25.3245 30.6931 25.1762C30.4315 25.0279 30.1738 24.8759 29.9159 24.7207C27.5744 23.3111 25.4727 21.7042 23.9965 19.931C23.7987 19.6908 23.6112 19.4508 23.4383 19.2069C23.2581 18.9598 23.0956 18.7089 22.944 18.4548C22.1349 17.095 21.7149 15.6467 21.8314 14.128C21.9068 13.1752 22.1738 12.3552 22.6283 11.6733C22.6379 11.6598 22.6444 11.6437 22.6543 11.6301H22.6535C22.6565 11.6258 22.6583 11.6209 22.6612 11.6168C22.5729 11.5707 22.4778 11.5286 22.3821 11.4898C21.6369 11.1895 20.7364 11.0306 19.7758 11.0306C19.4895 11.0306 19.1965 11.045 18.9032 11.0728C17.2186 11.2284 15.523 11.8359 14.1669 12.7544C14.1315 13.0049 14.1069 13.2591 14.0856 13.5173C13.8736 16.2686 14.4211 19.7015 16.989 23.3185C17.1549 23.5514 17.3282 23.7847 17.5115 24.0176C17.6917 24.2509 17.8825 24.4838 18.0802 24.7207C19.5355 26.4298 21.464 28.1642 24.0001 29.8701C24.2579 30.0469 24.5259 30.2197 24.798 30.3967C25.0664 30.5659 25.3385 30.7355 25.6175 30.905C26.6029 31.5055 27.6694 32.1024 28.8208 32.6924C29.9377 33.2641 31.0518 33.7778 32.146 34.2561C32.351 34.3484 32.5462 34.441 32.7539 34.533C31.2191 35.926 29.5642 36.9382 27.9308 37.6652C27.2632 37.9688 26.5956 38.2234 25.946 38.4353C25.9395 38.4375 25.9324 38.4393 25.9259 38.4419C24.6768 38.8502 23.3228 38.8502 22.0737 38.4419C22.0671 38.4393 22.0605 38.4375 22.0535 38.4353C21.4039 38.2233 20.7364 37.9688 20.0688 37.6652C18.5944 37.0093 17.1076 36.1041 15.7024 34.9132C15.5515 34.7832 15.3937 34.6615 15.2473 34.5257C16.5308 33.9793 17.8533 33.3692 19.1789 32.6925C20.1373 32.2014 21.0231 31.7045 21.8661 31.2056C22.0336 31.1097 22.2108 31.0127 22.3733 30.9171C22.3715 30.9159 22.37 30.9145 22.3683 30.913C22.3726 30.9105 22.3778 30.9076 22.3821 30.905C22.0837 30.6952 21.7943 30.4852 21.5124 30.2747C21.4897 30.2579 21.4666 30.241 21.4443 30.2239C20.9221 29.8328 20.4306 29.4401 19.9626 29.0468C19.8802 28.9777 19.7974 28.9081 19.7164 28.8385C19.3364 28.5126 18.9775 28.1859 18.6329 27.8596C18.4714 27.7061 18.3113 27.5527 18.1561 27.3978C17.9213 27.1642 17.6954 26.9309 17.4775 26.6972C17.1919 26.3896 16.9121 26.0809 16.6517 25.7685C16.6084 25.7172 16.5616 25.6656 16.5191 25.6143C14.6437 26.6348 12.6695 27.5354 10.7831 28.2982C10.1086 26.8008 9.55085 25.1053 9.1407 23.1877C7.83036 17.0138 10.2569 13.5668 12.542 11.7547C12.5564 11.7441 12.567 11.7335 12.5809 11.7233C12.9097 11.4651 13.2521 11.2284 13.6088 11.0132C13.9623 10.7975 14.3295 10.5997 14.7038 10.4232C15.9822 9.82303 17.3702 9.44137 18.7372 9.31425C19.0869 9.27919 19.433 9.26484 19.7758 9.26484C20.9411 9.26484 22.0609 9.45562 23.0464 9.85453C23.3925 9.99225 23.7104 10.1547 24.0001 10.3419C24.2754 10.5151 24.5259 10.7092 24.7486 10.9249C24.9712 11.1366 25.1689 11.3662 25.3349 11.6169C25.8154 12.3091 26.0907 13.1499 26.1684 14.1281C26.2852 15.6468 25.8649 17.0915 25.0526 18.4512C26.4581 20.2984 28.6938 21.9515 31.0108 23.3185C33.5786 19.7015 34.1257 16.2686 33.9141 13.5173C33.8929 13.2591 33.8679 13.0049 33.8329 12.7544C33.7798 12.3586 33.709 11.9701 33.6208 11.5888C33.5325 11.1896 33.423 10.8011 33.2959 10.4231C32.1727 7.06781 29.6686 4.44356 26.1226 3.00581C25.4374 2.73038 24.7274 2.50087 24.0001 2.32425C23.3819 2.16862 22.7531 2.05256 22.1136 1.97091C21.4779 1.88963 20.8352 1.84378 20.1852 1.82991C20.0618 1.82625 19.9381 1.82625 19.8109 1.82625C15.5585 1.82625 11.1542 3.27459 7.68935 5.99409C2.16523 10.3243 -0.0774566 17.1516 1.52951 24.724C1.98542 26.8762 2.5977 28.8143 3.32651 30.5694C3.35436 30.6379 3.37882 30.7097 3.40704 30.7781C3.24889 30.8203 3.10086 30.8557 2.95292 30.8909C0.872887 31.3997 -0.398925 33.4234 0.113418 35.4119C0.547762 37.0932 2.1162 38.209 3.84654 38.209C4.16482 38.209 4.48967 38.1702 4.81451 38.0926C4.91707 38.0677 5.87754 37.8311 7.37867 37.3756C8.56189 38.806 9.83661 40.021 11.1544 41.056C11.4084 41.2538 11.663 41.4446 11.9208 41.6317C12.1892 41.8258 12.4577 42.0167 12.7297 42.1968C13.011 42.385 13.2934 42.5648 13.5761 42.7385C13.6705 42.7967 13.765 42.8498 13.8599 42.9058C14.0481 43.0182 14.2367 43.1314 14.4253 43.238C14.5381 43.3013 14.6509 43.3599 14.764 43.4214C14.934 43.5141 15.1036 43.6074 15.2731 43.6954C15.3949 43.7584 15.5163 43.8167 15.6378 43.8774C15.7978 43.9573 15.9582 44.0378 16.1175 44.1137C16.2427 44.173 16.3669 44.2282 16.4914 44.2847C16.6467 44.3558 16.8023 44.4275 16.9573 44.4949C17.0828 44.5494 17.2073 44.6003 17.3322 44.6527C17.4839 44.716 17.6354 44.7797 17.7863 44.8398C17.9119 44.8896 18.0364 44.9368 18.1613 44.9844C18.3093 45.0409 18.4572 45.0976 18.604 45.1507C18.7286 45.1958 18.8512 45.2386 18.9747 45.2814C19.0684 45.3143 19.1636 45.3495 19.2567 45.381C19.2925 45.3931 19.3289 45.4029 19.3647 45.415C19.4223 45.4341 19.4808 45.4557 19.5376 45.474C22.4365 46.4199 25.5635 46.4199 28.4624 45.474C28.5196 45.4557 28.5781 45.4341 28.6356 45.4147C28.6715 45.4029 28.7078 45.3931 28.7436 45.381C28.8364 45.3495 28.9311 45.3143 29.0246 45.2818C29.1484 45.2385 29.2717 45.1958 29.3966 45.1507C29.5428 45.0977 29.6903 45.0412 29.8379 44.9848C29.9631 44.9368 30.088 44.8896 30.214 44.8394C30.3646 44.7797 30.5153 44.7164 30.6666 44.653C30.7923 44.6007 30.9171 44.5493 31.0431 44.4949C31.1976 44.4275 31.3529 44.356 31.5082 44.2854C31.6327 44.2282 31.7572 44.173 31.8825 44.1137C32.0421 44.0378 32.2022 43.9569 32.3626 43.8771C32.4838 43.8167 32.605 43.7584 32.727 43.6954C32.8965 43.6078 33.0661 43.5141 33.236 43.4218C33.3488 43.3599 33.4616 43.3013 33.5748 43.238C33.7626 43.1317 33.9501 43.0193 34.138 42.9076C34.2335 42.8505 34.3288 42.7971 34.4243 42.7385C34.7071 42.5648 34.9891 42.3847 35.2707 42.1968C35.5424 42.0166 35.8109 41.8258 36.0793 41.6317C36.3371 41.4446 36.5913 41.2538 36.8457 41.056C38.163 40.0211 39.4345 38.806 40.618 37.3756C42.1224 37.8311 43.0797 38.0677 43.1855 38.0926C43.5104 38.1703 43.8319 38.209 44.1498 38.209C45.8841 38.209 47.4522 37.0932 47.8865 35.4119C48.3989 33.4234 47.1271 31.3997 45.0433 30.891Z" fill="#988C2C"/>
</svg>
