<svg width="251" height="66" viewBox="0 0 251 66" fill="none" xmlns="http://www.w3.org/2000/svg">
<path d="M61.9346 42.4752C61.7502 42.43 61.5563 42.3841 61.359 42.3313C61.3434 42.3252 61.3298 42.3237 61.3136 42.3176C62.367 39.8315 63.2463 37.0688 63.8968 33.9957C66.1063 23.5834 63.0176 14.1959 55.4268 8.24213C50.6578 4.50282 44.6067 2.51134 38.7597 2.51134C38.6696 2.51134 38.5824 2.51328 38.4944 2.51379C38.4142 2.50928 38.3307 2.51379 38.2542 2.49768C38.2658 2.50322 38.2768 2.5098 38.289 2.51586C38.2743 2.51586 38.2598 2.51586 38.2452 2.51637C43.9075 5.27471 47.6327 10.1213 48.7545 16.1626C51.8965 18.6543 55.2331 23.394 53.4309 31.8831C52.8679 34.5198 52.1006 36.8511 51.1731 38.9101C48.5797 37.8612 45.8647 36.623 43.2861 35.2196C42.9215 35.0202 42.5575 34.8213 42.203 34.6174C41.8434 34.4134 41.489 34.2045 41.1344 33.991C37.9148 32.0529 35.025 29.8433 32.9952 27.4052C32.7232 27.0749 32.4654 26.7449 32.2277 26.4097C31.98 26.0699 31.7564 25.7249 31.548 25.3754C30.4355 23.5058 29.858 21.5143 30.0183 19.4262C30.1219 18.116 30.489 16.9885 31.114 16.0509C31.1271 16.0323 31.136 16.0101 31.1497 15.9915H31.1486C31.1528 15.9855 31.1552 15.9788 31.1592 15.9733C31.0378 15.9099 30.9069 15.852 30.7755 15.7986C29.7508 15.3857 28.5126 15.1672 27.1917 15.1672C26.7981 15.1672 26.3952 15.187 25.9919 15.2252C23.6756 15.4392 21.3442 16.2745 19.4795 17.5374C19.4308 17.8819 19.397 18.2313 19.3678 18.5863C19.0762 22.3695 19.829 27.0896 23.3599 32.0631C23.588 32.3833 23.8263 32.704 24.0784 33.0244C24.3262 33.3451 24.5885 33.6654 24.8603 33.9912C26.8614 36.3411 29.5131 38.7259 33.0001 41.0715C33.3546 41.3146 33.7232 41.5523 34.0972 41.7955C34.4663 42.0282 34.8405 42.2614 35.2241 42.4945C36.5791 43.3202 38.0454 44.141 39.6286 44.9522C41.1644 45.7383 42.6962 46.4447 44.2008 47.1022C44.4827 47.2292 44.7511 47.3565 45.0366 47.483C42.9263 49.3984 40.6508 50.7902 38.4049 51.7898C37.487 52.2072 36.569 52.5573 35.6758 52.8487C35.6668 52.8517 35.6571 52.8541 35.6481 52.8577C33.9306 53.4191 32.0689 53.4191 30.3514 52.8577C30.3423 52.8541 30.3332 52.8517 30.3237 52.8487C29.4303 52.5571 28.5125 52.2072 27.5946 51.7898C25.5674 50.8879 23.5229 49.6432 21.5909 48.0057C21.3834 47.827 21.1664 47.6597 20.9651 47.4729C22.7299 46.7217 24.5483 45.8828 26.371 44.9523C27.6888 44.2771 28.9068 43.5938 30.066 42.9079C30.2962 42.776 30.5398 42.6426 30.7633 42.5111C30.7609 42.5095 30.7588 42.5076 30.7564 42.5055C30.7623 42.5021 30.7695 42.4981 30.7755 42.4945C30.3652 42.206 29.9672 41.9173 29.5796 41.6278C29.5484 41.6047 29.5166 41.5815 29.4859 41.5579C28.7679 41.0202 28.0922 40.4803 27.4487 39.9395C27.3353 39.8444 27.2215 39.7487 27.1101 39.6531C26.5876 39.2049 26.0941 38.7558 25.6202 38.3071C25.3983 38.096 25.1781 37.8852 24.9646 37.6721C24.6418 37.3508 24.3312 37.0301 24.0316 36.7088C23.6388 36.2858 23.2542 35.8613 22.8961 35.4318C22.8366 35.3613 22.7722 35.2903 22.7138 35.2198C20.1352 36.623 17.4207 37.8613 14.8268 38.9102C13.8993 36.8512 13.1325 34.5199 12.5685 31.8833C10.7668 23.3942 14.1032 18.6544 17.2453 16.1628C17.2651 16.1482 17.2796 16.1336 17.2987 16.1196C17.7509 15.7646 18.2217 15.4392 18.7122 15.1433C19.1981 14.8466 19.7031 14.5748 20.2178 14.332C21.9756 13.5068 23.884 12.982 25.7637 12.8072C26.2445 12.759 26.7205 12.7393 27.1917 12.7393C28.794 12.7393 30.3338 13.0016 31.6889 13.5501C32.1647 13.7395 32.6018 13.9629 33.0001 14.2203C33.3787 14.4584 33.7232 14.7253 34.0293 15.0218C34.3355 15.3129 34.6073 15.6286 34.8355 15.9734C35.4963 16.9251 35.8747 18.0813 35.9816 19.4263C36.1422 21.5144 35.5642 23.5009 34.4474 25.3705C36.3799 27.9104 39.4539 30.1834 42.6399 32.0631C46.1706 27.0896 46.9229 22.3695 46.632 18.5863C46.6027 18.2313 46.5684 17.8819 46.5202 17.5374C46.4472 16.9932 46.3499 16.459 46.2286 15.9347C46.1072 15.3859 45.9566 14.8517 45.782 14.3319C44.2375 9.71836 40.7943 6.11002 35.9186 4.13311C34.9765 3.75439 34.0002 3.43883 33.0001 3.19597C32.1501 2.98198 31.2855 2.8224 30.4063 2.71012C29.5322 2.59836 28.6484 2.53532 27.7547 2.51624C27.585 2.51122 27.4149 2.51122 27.2401 2.51122C21.393 2.51122 15.337 4.50269 10.5729 8.242C2.97722 14.1961 -0.106472 23.5835 2.10311 33.9957C2.72998 36.955 3.57187 39.6197 4.57398 42.0331C4.61227 42.1272 4.64591 42.2259 4.68471 42.32C4.46725 42.3781 4.26371 42.4268 4.06029 42.4751C1.20025 43.1747 -0.548492 45.9573 0.155981 48.6915C0.753203 51.0033 2.9098 52.5375 5.28903 52.5375C5.72666 52.5375 6.17332 52.4842 6.61998 52.3774C6.76101 52.3431 8.08165 52.0179 10.1457 51.3916C11.7726 53.3584 13.5254 55.029 15.3373 56.4522C15.6866 56.7242 16.0367 56.9865 16.3911 57.2438C16.7601 57.5106 17.1293 57.7731 17.5034 58.0207C17.8901 58.2795 18.2784 58.5268 18.6672 58.7655C18.797 58.8456 18.9269 58.9185 19.0574 58.9956C19.3162 59.1502 19.5754 59.3058 19.8348 59.4523C19.9899 59.5393 20.145 59.62 20.3005 59.7046C20.5343 59.832 20.7674 59.9603 21.0005 60.0813C21.1681 60.1679 21.3349 60.2481 21.502 60.3316C21.722 60.4414 21.9426 60.5522 22.1616 60.6564C22.3338 60.738 22.5045 60.814 22.6758 60.8916C22.8892 60.9893 23.1032 61.0879 23.3163 61.1806C23.4889 61.2556 23.6601 61.3256 23.8318 61.3975C24.0404 61.4847 24.2487 61.5722 24.4562 61.6548C24.629 61.7233 24.8001 61.7882 24.9718 61.8537C25.1753 61.9313 25.3787 62.0093 25.5805 62.0824C25.7519 62.1443 25.9205 62.2032 26.0902 62.2621C26.2191 62.3073 26.35 62.3557 26.478 62.399C26.5272 62.4156 26.5772 62.4292 26.6265 62.4458C26.7056 62.472 26.7861 62.5017 26.8642 62.5269C30.8502 63.8275 35.1499 63.8275 39.1358 62.5269C39.2144 62.5017 39.2949 62.472 39.374 62.4453C39.4234 62.4292 39.4733 62.4156 39.5225 62.399C39.65 62.3557 39.7803 62.3073 39.9089 62.2626C40.079 62.2031 40.2487 62.1443 40.4204 62.0824C40.6213 62.0094 40.8242 61.9318 41.0271 61.8542C41.1993 61.7882 41.371 61.7233 41.5443 61.6543C41.7513 61.5722 41.9586 61.4852 42.1666 61.398C42.3394 61.3261 42.5111 61.2555 42.6843 61.1806C42.8968 61.0879 43.1102 60.9897 43.3238 60.8926C43.495 60.814 43.6662 60.738 43.8384 60.6564C44.058 60.5522 44.278 60.4409 44.4986 60.3311C44.6652 60.2481 44.8319 60.1679 44.9996 60.0813C45.2327 59.9609 45.4659 59.832 45.6996 59.7051C45.8547 59.62 46.0097 59.5393 46.1653 59.4523C46.4237 59.3063 46.6815 59.1517 46.9398 58.9981C47.0711 58.9196 47.2021 58.8461 47.3335 58.7655C47.7223 58.5268 48.11 58.279 48.4972 58.0207C48.8708 57.7729 49.24 57.5106 49.6091 57.2438C49.9635 56.9865 50.313 56.7242 50.6629 56.4522C52.4741 55.0292 54.2225 53.3584 55.8498 51.3916C57.9183 52.0179 59.2346 52.3431 59.3801 52.3774C59.8268 52.4843 60.2688 52.5375 60.7059 52.5375C63.0907 52.5375 65.2468 51.0033 65.844 48.6915C66.5485 45.9573 64.7998 43.1747 61.9346 42.4752Z" fill="white"/>
<path d="M97.472 11.184H91.36V30H86.912V11.184H80.832V7.21599H97.472V11.184ZM115.945 30H107.881C105.321 30 103.519 29.5627 102.473 28.688C101.449 27.792 100.937 26.224 100.937 23.984V7.21599H115.945V11.184H105.385V16.528H112.777L112.457 20.496H105.385V23.664C105.385 24.56 105.588 25.1787 105.993 25.52C106.399 25.8613 107.135 26.032 108.201 26.032H115.945V30ZM135.128 11.184H129.016V30H124.568V11.184H118.488V7.21599H135.128V11.184ZM155.298 17.552V19.28C155.298 23.0987 154.572 25.872 153.122 27.6C151.692 29.328 149.388 30.192 146.21 30.192C143.031 30.192 140.727 29.328 139.298 27.6C137.89 25.872 137.186 23.0667 137.186 19.184V17.52C137.186 13.9787 137.9 11.344 139.33 9.61599C140.78 7.88799 143.063 7.02399 146.178 7.02399C149.314 7.02399 151.618 7.89866 153.09 9.64799C154.562 11.3973 155.298 14.032 155.298 17.552ZM150.85 19.184V18C150.85 15.952 150.594 14.32 150.082 13.104C149.484 11.696 148.204 10.992 146.242 10.992C144.258 10.992 142.967 11.696 142.37 13.104C141.879 14.256 141.634 15.888 141.634 18V19.184C141.634 21.936 142.018 23.792 142.786 24.752C143.084 25.1573 143.522 25.5093 144.098 25.808C144.695 26.0853 145.399 26.224 146.21 26.224C147.042 26.224 147.746 26.0853 148.322 25.808C148.898 25.5307 149.346 25.1893 149.666 24.784C149.986 24.3787 150.231 23.8453 150.402 23.184C150.7 22.1387 150.85 20.8053 150.85 19.184ZM174.003 11.184H167.891V30H163.443V11.184H157.363V7.21599H174.003V11.184ZM192.477 30H184.413C181.853 30 180.05 29.5627 179.005 28.688C177.981 27.792 177.469 26.224 177.469 23.984V7.21599H192.477V11.184H181.917V16.528H189.309L188.989 20.496H181.917V23.664C181.917 24.56 182.119 25.1787 182.525 25.52C182.93 25.8613 183.666 26.032 184.733 26.032H192.477V30ZM198.388 27.32C198.601 27.52 198.708 27.9533 198.708 28.62C198.708 29.2867 198.601 29.7267 198.388 29.94C198.188 30.1533 197.754 30.26 197.088 30.26C196.421 30.26 195.981 30.1533 195.768 29.94C195.554 29.7267 195.448 29.2867 195.448 28.62C195.448 27.9533 195.554 27.52 195.768 27.32C195.981 27.1067 196.421 27 197.088 27C197.754 27 198.188 27.1067 198.388 27.32ZM207.386 25.82L209.746 25.8C209.733 25.9067 209.719 26.1 209.706 26.38C209.693 26.66 209.679 26.8533 209.666 26.96C209.666 27.0533 209.653 27.2067 209.626 27.42C209.599 27.6333 209.566 27.7933 209.526 27.9C209.499 27.9933 209.459 28.12 209.406 28.28C209.166 28.9733 208.513 29.52 207.446 29.92C206.766 30.16 206.053 30.28 205.306 30.28C204.573 30.28 203.906 30.16 203.306 29.92C202.706 29.68 202.233 29.3733 201.886 29C201.099 28.1733 200.706 26.6267 200.706 24.36C200.706 22.08 201.099 20.5267 201.886 19.7C202.233 19.3267 202.706 19.02 203.306 18.78C203.906 18.54 204.573 18.42 205.306 18.42C206.746 18.42 207.839 18.78 208.586 19.5C209.333 20.22 209.706 21.22 209.706 22.5H207.346C207.346 21.9133 207.199 21.48 206.906 21.2C206.613 20.9067 206.066 20.76 205.266 20.76C204.479 20.76 203.953 21.0067 203.686 21.5C203.433 21.9933 203.306 22.7333 203.306 23.72V24.76C203.306 26.3467 203.613 27.32 204.226 27.68C204.506 27.8533 204.873 27.94 205.326 27.94C205.779 27.94 206.146 27.9 206.426 27.82C206.719 27.7267 206.926 27.5733 207.046 27.36C207.179 27.1467 207.266 26.94 207.306 26.74C207.346 26.5267 207.373 26.22 207.386 25.82ZM218.097 24.84V23.8C218.097 22.8133 217.95 22.06 217.657 21.54C217.377 21.02 216.784 20.76 215.877 20.76C214.41 20.76 213.677 21.7467 213.677 23.72V24.76C213.677 26.88 214.41 27.94 215.877 27.94C216.824 27.94 217.444 27.5867 217.737 26.88C217.977 26.32 218.097 25.64 218.097 24.84ZM220.697 24.24C220.697 26.7067 220.23 28.36 219.297 29.2C218.51 29.92 217.37 30.28 215.877 30.28C213.97 30.28 212.684 29.72 212.017 28.6C211.39 27.5733 211.077 26.12 211.077 24.24C211.077 22.48 211.39 21.1 212.017 20.1C212.71 18.98 213.97 18.42 215.797 18.42C217.637 18.42 218.91 18.9133 219.617 19.9C220.337 20.8733 220.697 22.32 220.697 24.24ZM225.516 27.32C225.73 27.52 225.836 27.9533 225.836 28.62C225.836 29.2867 225.73 29.7267 225.516 29.94C225.316 30.1533 224.883 30.26 224.216 30.26C223.55 30.26 223.11 30.1533 222.896 29.94C222.683 29.7267 222.576 29.2867 222.576 28.62C222.576 27.9533 222.683 27.52 222.896 27.32C223.11 27.1067 223.55 27 224.216 27C224.883 27 225.316 27.1067 225.516 27.32ZM231.175 30L228.575 30.02V14.96H231.175V30ZM238.848 30H237.228C236.241 30 235.488 29.7067 234.968 29.12C234.461 28.5333 234.208 27.8333 234.208 27.02V21.02H233.108V19.04H234.208V16.8H236.808V19.04H238.648V21.02H236.808V26.86C236.808 27.4867 237.108 27.8 237.708 27.8H238.848V30ZM249.299 30H247.559L246.759 28.62L243.979 30.12C242.432 30.12 241.392 29.56 240.859 28.44C240.592 27.8933 240.406 27.3067 240.299 26.68C240.206 26.04 240.159 25.38 240.159 24.7C240.159 24.0067 240.166 23.5 240.179 23.18C240.192 22.8467 240.226 22.4667 240.279 22.04C240.332 21.6 240.406 21.2333 240.499 20.94C240.606 20.6467 240.752 20.3467 240.939 20.04C241.126 19.72 241.352 19.4667 241.619 19.28C242.219 18.8667 242.999 18.66 243.959 18.66H246.699V14.96H249.299V30ZM246.699 26.36V21H244.719C243.986 21 243.472 21.28 243.179 21.84C242.899 22.4 242.759 23.24 242.759 24.36C242.759 25.4667 242.892 26.2467 243.159 26.7C243.439 27.1533 243.959 27.38 244.719 27.38L246.699 26.36ZM92.44 59H89.22L86.44 53.72H84.44V59H81.66V47.82C81.66 46.7533 81.9067 45.98 82.4 45.5C82.8933 45.0067 83.72 44.76 84.88 44.76H87.24C88.6533 44.76 89.7733 45.1933 90.6 46.06C91.44 46.9133 91.86 48 91.86 49.32C91.86 50.28 91.6067 51.1133 91.1 51.82C90.6067 52.5133 89.9933 52.9933 89.26 53.26L92.44 59ZM87.06 51.4C87.6467 51.4 88.1267 51.2 88.5 50.8C88.8867 50.3867 89.08 49.88 89.08 49.28C89.08 48.6667 88.8933 48.1733 88.52 47.8C88.16 47.4267 87.6733 47.24 87.06 47.24H85.68C84.8533 47.24 84.44 47.66 84.44 48.5V51.4H87.06ZM104.126 59H99.0859C97.4859 59 96.3593 58.7267 95.7059 58.18C95.0659 57.62 94.7459 56.64 94.7459 55.24V44.76H104.126V47.24H97.5259V50.58H102.146L101.946 53.06H97.5259V55.04C97.5259 55.6 97.6526 55.9867 97.9059 56.2C98.1593 56.4133 98.6193 56.52 99.2859 56.52H104.126V59ZM114.055 53.48H116.635C116.635 55.2933 116.182 56.6867 115.275 57.66C114.369 58.6333 113.089 59.12 111.435 59.12C107.795 59.12 105.975 56.98 105.975 52.7V51.5C105.975 48.1267 106.909 46.0133 108.775 45.16C109.509 44.8133 110.395 44.64 111.435 44.64C112.955 44.64 114.189 45.06 115.135 45.9C116.095 46.7267 116.575 47.9267 116.575 49.5H113.975C113.829 48.7133 113.569 48.12 113.195 47.72C112.822 47.32 112.235 47.12 111.435 47.12C110.502 47.12 109.809 47.4133 109.355 48C109.035 48.4133 108.849 49.12 108.795 50.12C108.769 50.44 108.755 50.8733 108.755 51.42V52.66C108.755 54.1933 108.969 55.24 109.395 55.8C109.835 56.36 110.515 56.64 111.435 56.64C112.369 56.64 113.009 56.3867 113.355 55.88C113.715 55.36 113.949 54.56 114.055 53.48ZM129.784 59H126.564L123.784 53.72H121.784V59H119.004V47.82C119.004 46.7533 119.25 45.98 119.744 45.5C120.237 45.0067 121.064 44.76 122.224 44.76H124.584C125.997 44.76 127.117 45.1933 127.944 46.06C128.784 46.9133 129.204 48 129.204 49.32C129.204 50.28 128.95 51.1133 128.444 51.82C127.95 52.5133 127.337 52.9933 126.604 53.26L129.784 59ZM124.404 51.4C124.99 51.4 125.47 51.2 125.844 50.8C126.23 50.3867 126.424 49.88 126.424 49.28C126.424 48.6667 126.237 48.1733 125.864 47.8C125.504 47.4267 125.017 47.24 124.404 47.24H123.024C122.197 47.24 121.784 47.66 121.784 48.5V51.4H124.404ZM142.89 59H139.99L139.19 56.54H134.41L133.63 59H130.73L135.29 45.96C135.49 45.5067 135.71 45.1933 135.95 45.02C136.203 44.8467 136.51 44.76 136.87 44.76C137.23 44.76 137.516 44.84 137.73 45C137.956 45.16 138.156 45.48 138.33 45.96L142.89 59ZM138.55 54.2L136.87 48.56L135.11 54.2H138.55ZM154.104 47.24H150.284V59H147.504V47.24H143.704V44.76H154.104V47.24ZM159.049 59H156.269V44.76H159.049V59ZM173.463 44.76V57.56C173.463 58 173.33 58.38 173.063 58.7C172.796 59.0067 172.483 59.16 172.123 59.16C171.203 59.16 170.45 58.6267 169.863 57.56L164.943 49.86V59H162.163V44.76H164.843L170.683 54.08V44.76H173.463ZM175.468 52.3V50.54C175.468 48.6867 175.954 47.24 176.928 46.2C177.901 45.16 179.248 44.64 180.968 44.64C182.688 44.64 184.068 45.16 185.108 46.2C185.841 46.9333 186.208 48.0333 186.208 49.5H183.608C183.608 47.9133 182.761 47.12 181.068 47.12C180.561 47.12 180.128 47.22 179.768 47.42C179.421 47.6067 179.161 47.8267 178.988 48.08C178.814 48.3333 178.681 48.7067 178.588 49.2C178.494 49.6933 178.441 50.1067 178.428 50.44C178.414 50.7733 178.408 51.22 178.408 51.78C178.408 52.34 178.408 52.72 178.408 52.92C178.421 53.1067 178.441 53.42 178.468 53.86C178.508 54.2867 178.561 54.5933 178.628 54.78C178.708 54.9667 178.814 55.2067 178.948 55.5C179.094 55.7933 179.274 56 179.488 56.12C180.034 56.4667 180.654 56.64 181.348 56.64C182.508 56.64 183.328 56.1467 183.808 55.16V54.2H182.088V51.88H186.188V56.18C185.774 57.1533 185.121 57.8867 184.228 58.38C183.334 58.8733 182.321 59.12 181.188 59.12C179.174 59.12 177.714 58.56 176.808 57.44C175.914 56.3067 175.468 54.5933 175.468 52.3Z" fill="white"/>
</svg>
