<svg width="344" height="230" viewBox="0 0 344 230" fill="none" xmlns="http://www.w3.org/2000/svg">
<path d="M300.117 205.367L190.909 205.39L167.001 205.402H159.1L135.238 205.413L45.7291 205.839C45.6717 205.655 45.6144 205.459 45.5571 205.275C35.8677 172.972 65.2797 173.374 73.3981 163.335C76.2877 159.758 76.4827 154.859 71.2653 146.694C71.2424 146.66 71.2195 146.614 71.1851 146.579C68.0661 141.692 65.7957 136.885 64.3051 132.193C61.1632 122.372 61.3811 113.034 64.2133 104.397C66.3576 97.8536 70.004 91.7241 74.82 86.0891C76.7005 83.8926 78.7531 81.7766 80.9661 79.7411C125.411 38.8701 233.794 31.1191 248.792 102.546C257.301 143.049 270.751 119.612 298.409 148.385C307.536 157.884 310.621 167.555 310.724 176.169C310.919 192.729 300.117 205.367 300.117 205.367Z" fill="#CCE9FF"/>
<path d="M123.897 150.167C123.897 150.167 110.94 148.028 102.134 155.273C93.3387 162.518 98.5331 174.904 91.2632 176.514C80.7941 178.825 56.7027 182.137 59.2139 204.85C59.4661 207.15 132.738 204.85 132.738 204.85L129.596 155.917L123.897 150.167Z" fill="#2795F6"/>
<path d="M229.654 166.612C229.654 166.612 245.134 163.771 255.879 172.603C266.623 181.424 261.727 188.68 267.483 190.566C273.239 192.452 281.381 196.156 279.557 205.493H227.545L229.654 166.612Z" fill="#2795F6"/>
<path d="M293.535 204.769H286.54C286.162 204.447 286.804 203.722 287.458 203.676C287.744 203.653 288.111 203.711 288.524 203.803C288.616 202.526 289.166 196.753 291.242 196.995C293.57 197.259 291.242 199.536 290.588 200.882C290.095 201.882 289.591 203.32 289.35 203.987C289.533 204.033 289.74 204.067 289.935 204.102C290.244 203.147 291.391 199.95 292.847 200.134C294.567 200.353 293.868 201.629 292.652 202.4C291.758 202.963 290.669 203.757 290.141 204.136C290.577 204.205 291.047 204.263 291.506 204.251C292.721 204.217 293.306 204.573 293.535 204.769Z" fill="#2795F6"/>
<path d="M247.175 28.29H123.897V198.571H247.175V28.29Z" fill="#FFBE55"/>
<path d="M248.792 105.627H122.269V111.09H248.792V105.627Z" fill="#E5A13E"/>
<path opacity="0.5" d="M229.849 52.0491H196.172V96.9451H229.849V52.0491Z" fill="white"/>
<path d="M229.012 52.8655H196.986V96.1055H229.012V52.8655Z" fill="#CCE9FF"/>
<path d="M204.611 52.4286V64.7451C204.611 64.8486 204.611 64.9636 204.611 65.0671C204.588 66.0331 204.474 66.7691 204.347 66.7691H204.313C204.187 66.7691 204.084 66.1366 204.049 65.2741C204.049 65.2051 204.049 65.1361 204.038 65.0556V65.0441C204.038 64.9521 204.038 64.8486 204.038 64.7566V52.3711C204.221 52.3941 204.416 52.4056 204.611 52.4286Z" fill="#AFCDFB"/>
<path d="M204.164 65.2051C202.043 65.2051 200.311 67.0336 200.311 69.2876H208.017C208.017 67.0336 206.285 65.2051 204.164 65.2051Z" fill="#AFCDFB"/>
<path d="M204.474 65.2511C204.359 65.2281 204.256 65.2166 204.141 65.2166C202.754 65.2166 201.63 67.0336 201.63 69.2876H202.306C202.295 67.2291 203.247 65.5271 204.474 65.2511Z" fill="#CDE0FB"/>
<path d="M203.51 82.846C203.51 82.846 201.618 80.6265 203.396 79.2235C203.396 79.2235 204.691 78.43 205.758 78.499C205.758 78.499 204.256 81.029 204.737 81.2705C205.219 81.5235 206.205 78.338 206.205 78.338C206.205 78.338 209.163 78.0505 210.115 78.5105C210.115 78.5105 207.593 80.5805 208.12 80.707C208.647 80.8335 211.388 78.798 211.388 78.798C211.388 78.798 214.14 79.2695 213.991 80.9485C213.842 82.6275 212.89 83.1565 212.477 83.1105C212.065 83.0645 209.622 82.133 209.565 82.478C209.507 82.823 210.975 83.9385 212.007 83.996C212.007 83.996 210.069 86.1465 208.774 85.5255C207.489 84.9045 207.375 83.927 206.572 83.559C205.769 83.191 205.081 83.191 205.414 83.5705C205.746 83.95 207.203 84.3065 207.661 85.123C208.12 85.9395 208.533 86.4915 207.203 86.2845C205.873 86.0775 203.694 85.1 203.602 83.9845C203.51 82.846 203.51 82.846 203.51 82.846Z" fill="#10538C"/>
<path d="M212.638 80.9946C212.638 80.9946 205.162 80.7071 203.51 82.8461C203.51 82.8461 203.143 83.9386 202.02 84.9391L201.848 85.4221C201.848 85.4221 203.143 84.0536 203.602 83.9731C203.614 83.9616 202.88 81.3051 212.638 80.9946Z" fill="#10538C"/>
<path d="M202.031 84.9392C202.031 84.9392 200.426 86.1352 200.311 88.2512L200.598 88.2742C200.598 88.2742 201.114 86.0777 202.031 85.2152C202.971 84.3642 202.031 84.9392 202.031 84.9392Z" fill="#10538C"/>
<path d="M198.649 83.1104C198.649 83.1104 198.649 83.1104 198.236 83.9959C198.213 84.0419 198.201 84.0764 198.178 84.1224C198.006 84.5019 197.548 84.7664 196.997 84.9274V77.6594C197.399 77.8319 197.674 77.9699 197.674 77.9699C197.674 77.9699 197.502 81.2819 198.041 81.2129C198.58 81.1439 198.041 78.2689 198.041 78.2689C199.05 78.5679 200.002 79.7524 200.002 79.7524C201.171 81.6959 198.649 83.1104 198.649 83.1104Z" fill="#10538C"/>
<path d="M199.325 85.5828V86.0888C199.325 86.0888 199.314 86.0658 199.302 86.0313C199.279 85.9738 199.256 85.9278 199.233 85.8818C199.233 85.8703 199.222 85.8588 199.222 85.8473C199.222 85.8358 199.21 85.8243 199.21 85.8243C199.165 85.7323 199.107 85.6058 199.05 85.4793C198.798 84.9618 198.431 84.2833 198.19 84.1453C198.19 84.1338 198.224 84.0878 198.247 84.0188C198.35 83.7198 198.419 82.9033 197.009 81.6728V81.2358C197.823 81.8338 198.454 82.4778 198.66 83.1448C198.649 83.1103 198.614 84.2603 199.325 85.5828Z" fill="#10538C"/>
<path d="M199.325 85.5827C199.325 85.5827 200.414 87.2502 199.795 89.2742L199.509 89.1937C199.509 89.1937 199.784 86.9627 199.21 85.8357C198.637 84.7202 199.325 85.5827 199.325 85.5827Z" fill="#10538C"/>
<path d="M201.676 79.4879C201.676 79.4879 198.339 77.6134 199.898 75.0719C199.898 75.0719 201.148 73.5079 202.478 73.1054C202.478 73.1054 201.767 76.9004 202.478 76.9809C203.189 77.0729 202.971 72.7029 202.971 72.7029C202.971 72.7029 206.48 71.0124 207.868 71.1389C207.868 71.1389 205.689 74.8419 206.4 74.7499C207.111 74.6579 209.553 70.9204 209.553 70.9204C209.553 70.9204 213.154 70.2534 213.727 72.3924C214.301 74.5314 213.372 75.6009 212.833 75.7389C212.294 75.8769 208.877 75.8309 208.969 76.2794C209.06 76.7279 211.365 77.4409 212.661 77.0384C212.661 77.0384 211.239 80.5574 209.37 80.3849C207.501 80.2009 206.927 79.0509 205.769 78.9589C204.611 78.8669 203.774 79.1774 204.347 79.4994C204.921 79.8099 206.882 79.6029 207.81 80.3964C208.739 81.1899 209.496 81.6844 207.765 82.0409C206.033 82.3974 202.914 82.1789 202.295 80.8334C201.676 79.4879 201.676 79.4879 201.676 79.4879Z" fill="#10538C"/>
<path d="M212.076 73.071C212.076 73.071 202.742 76.107 201.676 79.488C201.676 79.488 201.722 81.006 200.781 82.7425V83.4095C200.781 83.4095 201.756 81.1325 202.295 80.822C202.295 80.8335 200.208 77.8895 212.076 73.071Z" fill="#10538C"/>
<path d="M200.781 82.7541C200.781 82.7541 199.337 84.9506 200.162 87.6186L200.529 87.5151C200.529 87.5151 200.174 84.5711 200.919 83.0991C201.687 81.6156 200.781 82.7541 200.781 82.7541Z" fill="#10538C"/>
<path d="M221.823 89.2516C221.823 89.2516 226.753 69.0806 227.12 67.3901C227.281 66.6311 227.762 66.3666 228.255 66.2861C227.384 66.1941 226.753 66.1941 226.753 66.1941C225.045 66.1941 223.531 67.4246 222.981 69.2416C221.788 73.2206 217.156 79.8676 214.92 87.3311C215.034 87.3311 221.823 89.2516 221.823 89.2516Z" fill="#1D8CDD"/>
<path d="M196.986 96.1169V92.3334C197.88 90.5969 198.786 89.0329 199.566 87.8024C199.681 87.6184 199.807 87.4344 199.921 87.2619C199.956 87.2044 199.99 87.1469 200.036 87.1009C200.185 86.8709 200.334 86.6639 200.46 86.4799C200.667 86.1924 200.862 85.9394 201.022 85.7324C201.251 85.4449 201.561 85.2149 201.917 85.0424C201.951 85.0309 201.974 85.0079 202.008 84.9964C202.146 84.9389 202.283 84.8814 202.433 84.8239C202.444 84.8239 202.467 84.8124 202.478 84.8124C202.891 84.6744 203.338 84.5939 203.831 84.5479C204.898 84.4444 206.113 84.5249 207.317 84.6974C207.466 84.7204 207.627 84.7434 207.776 84.7664C208.441 84.8699 209.095 85.0079 209.714 85.1459C209.714 85.1459 209.714 85.1459 209.725 85.1459C209.955 85.2034 210.173 85.2494 210.39 85.3069C210.402 85.3069 210.425 85.3184 210.436 85.3184C210.516 85.3414 210.585 85.3529 210.654 85.3759C210.987 85.4564 211.296 85.5484 211.594 85.6289C212.798 85.9739 213.601 86.2499 213.601 86.2499V86.4109L213.613 87.0204L213.624 87.3194L213.647 88.1934V88.2279V88.3544L213.67 89.1134V89.1709L213.842 96.1054H196.986V96.1169Z" fill="#1D8CDD"/>
<path d="M220.263 88.9295C220.16 88.8835 220.011 88.803 219.805 88.711C219.77 88.688 219.724 88.6765 219.69 88.6535C219.587 88.6075 219.461 88.55 219.334 88.481C219.174 88.412 219.002 88.3315 218.818 88.2395C218.566 88.1245 218.279 87.998 217.981 87.86C217.89 87.8255 217.809 87.7795 217.706 87.745C217.614 87.7105 217.534 87.6645 217.442 87.63C217.087 87.4805 216.72 87.3195 216.319 87.17C215.952 87.0205 215.573 86.871 215.172 86.7215L215.115 86.6985C214.025 86.296 212.844 85.8935 211.663 85.583C211.296 85.4795 210.929 85.3875 210.562 85.307C210.517 85.2955 210.459 85.284 210.413 85.2725C210.413 85.2725 210.413 85.2725 210.402 85.2725C210.173 85.2265 209.943 85.1805 209.714 85.1345C209.714 85.1345 209.714 85.1345 209.702 85.1345C209.083 85.0195 208.487 84.9505 207.925 84.916C207.787 84.9045 207.65 84.9045 207.524 84.9045C206.48 84.8815 205.54 85.0195 204.818 85.3875C204.325 85.6405 203.912 86.0085 203.637 86.4915C203.35 86.9975 202.96 87.8025 202.524 88.826C201.71 90.7235 200.724 93.3455 199.887 96.1055H219.782L219.827 95.542L219.931 94.4265L220.424 89.01V88.9985C220.412 88.9985 220.366 88.9755 220.263 88.9295Z" fill="#137CBC"/>
<path d="M229.024 66.2629V96.1054H227.866C227.04 95.9904 226.226 95.8639 225.435 95.7259C224.082 95.4959 222.786 95.2314 221.674 94.9439C221.341 94.8634 221.031 94.7714 220.733 94.6794C220.55 94.6219 220.378 94.5759 220.217 94.5184C220.126 94.4839 220.034 94.4609 219.942 94.4264C218.692 93.9894 217.878 93.5064 217.775 92.9889C217.683 92.5174 217.912 91.4019 218.337 89.8954C218.417 89.6194 218.497 89.3319 218.589 89.0329C218.635 88.8949 218.669 88.7569 218.715 88.6074C218.727 88.5499 218.75 88.5039 218.773 88.4464L218.795 88.3774C218.807 88.3314 218.83 88.2739 218.841 88.2279C218.841 88.2164 218.853 88.2049 218.853 88.1934C218.956 87.8714 219.059 87.5494 219.174 87.2044C219.334 86.7214 219.495 86.2269 219.678 85.7094C219.908 85.0424 220.148 84.3409 220.401 83.6394C220.47 83.4324 220.55 83.2254 220.619 83.0184C220.882 82.2824 221.158 81.5349 221.433 80.7874C222.144 78.8669 222.878 76.9349 223.566 75.1639C223.772 74.6349 223.967 74.1174 224.173 73.6229C224.311 73.2779 224.437 72.9444 224.563 72.6109C224.942 71.6564 225.205 70.7479 225.446 69.9199C225.813 68.6894 226.146 67.6544 226.753 67.0104C227.109 66.6309 227.544 66.3779 228.152 66.2974C228.187 66.2974 228.221 66.2859 228.255 66.2859C228.37 66.2744 228.496 66.2629 228.622 66.2629H229.024Z" fill="#2B94F4"/>
<path d="M225.435 95.7375L223.428 89.1135L223.394 89.01C223.394 89.01 223.164 88.987 222.763 88.9525C222.534 88.9295 222.247 88.9065 221.914 88.8835C221.387 88.8375 220.722 88.78 219.977 88.7225C219.954 88.7225 219.931 88.7225 219.908 88.7225C219.873 88.7225 219.839 88.7225 219.805 88.711C219.667 88.6995 219.518 88.688 219.369 88.6765C219.3 88.6765 219.231 88.665 219.162 88.665C219.002 88.6535 218.853 88.642 218.692 88.6305C217.557 88.55 216.296 88.481 214.966 88.412C214.645 88.4005 214.312 88.3775 213.979 88.366C213.865 88.366 213.75 88.3545 213.635 88.3545C212.844 88.32 212.042 88.297 211.239 88.2855C210.15 88.274 209.083 88.274 208.051 88.2855C207.971 88.2855 207.891 88.2855 207.81 88.297C207.294 88.3085 206.801 88.3315 206.32 88.3545C205.402 88.4005 204.554 88.481 203.797 88.5845C203.338 88.6535 202.903 88.734 202.524 88.8145C201.653 89.0215 200.999 89.2975 200.667 89.654C199.944 90.436 199.417 92.9315 199.038 96.094H225.549L225.435 95.7375Z" fill="#2B94F4"/>
<path d="M218.027 76.0725C218.027 76.0725 216.892 76.475 215.998 78.3035C215.103 80.1205 214.736 85.031 214.289 85.077C213.842 85.123 210.482 84.4675 210.482 84.4675L210.562 85.307C210.562 85.307 214.06 87.6415 214.794 87.2275C215.528 86.802 217.546 81.144 217.672 80.2815C217.798 79.419 218.027 76.0725 218.027 76.0725Z" fill="#FFB27D"/>
<path d="M225.847 75.4399C225.847 75.4399 221.295 74.4739 218.027 76.0724C218.027 76.0724 215.929 80.5919 215.998 81.3624C216.066 82.1329 216.789 85.3299 216.135 86.5259C215.47 87.7334 222.19 89.8724 223.405 89.1249C224.609 88.3889 226.042 76.2679 225.847 75.4399Z" fill="white"/>
<path d="M209.507 93.7251C209.198 94.4381 208.797 95.2546 208.338 96.1171H202.146C202.857 92.4026 203.487 89.8151 203.809 88.5961C203.946 88.0786 204.015 87.8026 204.015 87.8026C204.313 87.2736 204.68 86.9746 205.07 86.8596C205.907 86.6181 206.882 87.1816 207.753 87.9981C207.856 88.0901 207.959 88.1936 208.051 88.2971C208.384 88.6421 208.693 89.0101 208.957 89.3781C209.576 90.2176 210.012 91.0456 210.069 91.4596C210.15 91.9656 209.92 92.7591 209.507 93.7251Z" fill="#0C476F"/>
<path d="M205.035 86.8825C205.035 86.8825 206.423 86.0775 209.599 86.7675C212.764 87.4575 215.355 89.102 215.355 89.102L207.283 89.4355L205.035 86.8825Z" fill="#0C476F"/>
<path d="M224.586 75.4285C224.586 75.4285 226.604 75.0605 226.891 76.705C227.166 78.3495 226.925 88.3085 225.377 88.8145C223.829 89.3205 217.488 86.5145 217.488 86.5145L217.683 85.4565C217.683 85.4565 223.749 86.2845 223.978 86.1925C224.173 86.1005 224.586 75.4285 224.586 75.4285Z" fill="#FFB27D"/>
<path d="M208.969 82.938L208.682 80.2815L212.431 85.2265C212.431 85.2265 210.861 86.0085 210.769 85.859C210.677 85.7095 208.969 82.938 208.969 82.938Z" fill="#0C476F"/>
<path d="M214.576 82.938L218.027 88.228H212.225L208.969 82.938H214.576Z" fill="#FFBE55"/>
<path d="M208.969 82.9379L208.693 80.3044L210.654 82.7539L208.969 82.9379Z" fill="white"/>
<path d="M217.855 87.9634L218.119 87.7679L214.679 82.6504L214.576 82.9379L217.855 87.9634Z" fill="white"/>
<path d="M214.679 82.6504L209.209 82.7999L208.969 82.9379H214.576L214.679 82.6504Z" fill="white"/>
<path d="M216.514 96.1169H210.322C210.023 95.2659 209.748 94.4609 209.507 93.7249C208.888 91.8504 208.43 90.3784 208.143 89.4124C207.994 88.8949 207.879 88.5154 207.822 88.3084C207.776 88.1704 207.765 88.0899 207.765 88.0899C207.765 88.0554 207.765 88.0324 207.765 87.9979C207.776 87.3079 208.005 86.8479 208.395 86.5719C208.418 86.5604 208.441 86.5374 208.453 86.5259C209.083 86.1119 210.058 86.1234 211.078 86.3534C211.984 86.5604 212.913 86.9284 213.635 87.3194C214.22 87.6299 214.667 87.9519 214.851 88.1819C214.862 88.1934 214.874 88.2164 214.897 88.2394C214.931 88.2969 214.966 88.3544 215 88.4119C215.092 88.5844 215.183 88.8029 215.275 89.0559C215.275 89.0674 215.287 89.0789 215.287 89.0904C215.287 89.1019 215.287 89.1019 215.298 89.1134C215.642 90.1599 215.963 91.8159 216.227 93.7134C216.319 94.4839 216.422 95.2889 216.514 96.1169Z" fill="#10538C"/>
<path d="M208.441 86.5261C208.441 86.5261 210.838 84.3641 220.619 89.0101L212.592 89.1366L208.441 86.5261Z" fill="#10538C"/>
<path d="M217.672 85.4564C217.672 85.4564 216.777 84.8584 216.456 84.8124C216.066 84.7549 215.654 84.2719 215.699 84.5479C215.745 84.8239 216.17 85.1804 216.284 85.2954C216.399 85.4104 215.619 85.3874 215.298 85.2379C215.149 85.1689 214.358 84.9619 214.369 85.2494C214.369 85.4219 214.679 86.2384 215.459 86.4109C215.814 86.4914 217.546 86.5374 217.546 86.5374L217.672 85.4564Z" fill="#FFB27D"/>
<path d="M221.731 70.8054C221.731 70.8054 223.428 71.7369 222.121 73.5999C222.121 73.5999 223.6 73.8184 223.978 73.3929C223.978 73.3929 223.921 73.5769 223.852 73.6689C223.852 73.6689 225.286 73.5194 225.825 72.9904C226.352 72.4614 224.953 65.1704 221.1 66.5389C221.1 66.5389 217.695 66.7574 218.555 70.6214C219.415 74.4854 218.142 74.6579 218.142 74.6579C218.142 74.6579 218.52 74.7844 218.692 74.7614C218.692 74.7614 218.933 74.6349 218.956 74.4854C218.956 74.4854 218.933 74.7039 218.887 74.7844C218.887 74.7844 220.275 74.7269 220.894 74.1059C221.479 73.5079 222.041 71.5874 221.731 70.8054Z" fill="#0C476F"/>
<path d="M222.327 72.7491C222.327 72.7491 223.256 71.4381 223.52 70.2996C223.715 69.4831 224.735 66.1251 221.651 66.4011C221.651 66.4011 219.472 66.7231 218.601 67.2406C217.913 67.6546 216.903 68.5746 217.832 71.3001L218.062 72.2201L222.327 72.7491Z" fill="#0C476F"/>
<path d="M220.344 76.6705C220.573 76.843 221.582 77.05 222.385 76.6475C223.141 76.268 223.485 75.4515 223.371 75.1295C223.256 74.796 222.901 74.681 222.522 72.6685L222.373 72.726L219.896 73.738C219.896 73.738 220.114 74.543 220.263 75.302C220.389 75.9575 220.206 76.5785 220.344 76.6705Z" fill="#FFB27D"/>
<path d="M219.896 73.7381C219.896 73.7381 220.114 74.5431 220.263 75.3021C221.697 74.9801 222.201 73.5081 222.373 72.7146L219.896 73.7381Z" fill="#ED975D"/>
<path d="M219.552 74.5659C219.552 74.5659 222.981 73.9564 222.568 71.8174C222.155 69.6784 222.316 68.1719 220.114 68.4709C217.913 68.7699 217.649 69.6669 217.603 70.4144C217.58 71.1619 218.658 74.6694 219.552 74.5659Z" fill="#FFB27D"/>
<path d="M218.635 67.9649C218.635 67.9649 220.321 70.8169 221.983 71.0009C223.646 71.1964 224.024 70.4604 224.024 70.4604C224.024 70.4604 222.66 69.6554 222.167 67.9764C222.167 67.9879 219.243 66.5274 218.635 67.9649Z" fill="#0C476F"/>
<path d="M218.922 68.1606C218.922 68.1606 218.222 68.8966 218.119 69.5291C218.016 70.1616 218.096 71.4266 217.729 71.4381C217.729 71.4381 216.674 69.6441 217.419 68.4481C218.199 67.1601 218.922 68.1606 218.922 68.1606Z" fill="#0C476F"/>
<path d="M218.795 68.2756C218.795 68.2756 219.942 71.1046 222.098 71.7601C222.098 71.7601 219.827 70.2421 219.38 68.3331C218.945 66.4126 218.795 68.2756 218.795 68.2756Z" fill="#0C476F"/>
<path d="M225.813 72.9904C225.286 73.5194 223.841 73.6689 223.841 73.6689C223.91 73.5769 223.967 73.3929 223.967 73.3929C223.21 73.9679 221.421 73.4849 221.421 73.4849C222.878 73.2089 222.465 71.1044 221.972 71.0009C221.731 69.4139 221.215 67.4359 220.974 66.5504C221.043 66.5389 221.077 66.5389 221.077 66.5389C224.942 65.1704 226.341 72.4614 225.813 72.9904Z" fill="#0C476F"/>
<path d="M223.921 75.2561C223.921 75.2561 226.146 75.2906 226.73 75.7736C227.315 76.2566 227.59 83.1451 227.59 83.1451C227.59 83.1451 226.535 82.8576 225.584 83.0761C224.632 83.2946 223.394 83.0761 223.394 83.0761L223.921 75.2561Z" fill="white"/>
<path d="M220.16 75.3826C220.16 75.3826 217.351 75.9461 216.709 76.6936C216.066 77.4411 214.782 81.2016 214.782 81.2016C214.782 81.2016 215.275 81.2821 215.539 81.6271C215.791 81.9721 216.628 81.8111 216.628 81.8111L220.16 75.3826Z" fill="white"/>
<path d="M215.046 96.117C215.424 95.2775 215.826 94.4725 216.204 93.7135C216.972 92.207 217.706 90.8845 218.325 89.907C218.532 89.5735 218.727 89.286 218.899 89.0445C218.979 88.9295 219.048 88.826 219.117 88.734C219.139 88.711 219.151 88.688 219.174 88.6535C219.185 88.642 219.197 88.6305 219.208 88.6075C219.231 88.573 219.254 88.55 219.289 88.527C219.3 88.504 219.323 88.4925 219.334 88.4695C219.346 88.458 219.357 88.4465 219.369 88.435C219.69 88.136 220.091 87.906 220.55 87.745C221.054 87.5725 221.639 87.469 222.258 87.423C222.855 87.3885 223.497 87.4 224.139 87.4575C224.793 87.515 225.446 87.607 226.077 87.722C226.295 87.7565 226.513 87.8025 226.719 87.8485H226.73C227.59 88.021 228.382 88.228 229.012 88.4005V96.1055H215.046V96.117Z" fill="#137CBC"/>
<path d="M219.621 96.1169C219.69 95.9329 219.759 95.7374 219.816 95.5534C219.942 95.2084 220.068 94.8634 220.194 94.5299C220.55 93.5984 220.894 92.7244 221.215 91.9769C221.685 90.8614 222.109 89.9759 222.407 89.4354C222.442 89.3894 222.465 89.3319 222.499 89.2859C222.579 89.1594 222.671 89.0444 222.763 88.9409C222.878 88.8144 223.015 88.6879 223.164 88.5844C223.394 88.4119 223.646 88.2739 223.933 88.1704C224.54 87.9289 225.263 87.8254 226.054 87.8254C226.272 87.8254 226.501 87.8369 226.73 87.8484H226.742C227.12 87.8714 227.51 87.9174 227.911 87.9749C227.98 87.9864 228.049 87.9979 228.118 88.0094C228.129 88.0094 228.152 88.0094 228.164 88.0209C228.45 88.0669 228.737 88.1244 229.024 88.1819V96.1169H219.621Z" fill="#137CBC"/>
<path d="M231.409 96.1055H230.686V62.652V60.8005V51.2095H195.369V60.8005V62.652V96.1055H194.647C192.846 96.1055 191.379 97.566 191.379 99.383V99.498H234.665V99.383C234.665 97.566 233.209 96.1055 231.409 96.1055ZM197.009 52.854H229.035V60.789H197.009V52.854ZM197.009 62.652H229.035V96.1055H197.009V62.652Z" fill="#E5A13E"/>
<path d="M228.565 53.5671H197.594V55.1311H228.565V53.5671Z" fill="white"/>
<path d="M228.565 56.0166H197.594V57.5806H228.565V56.0166Z" fill="white"/>
<path d="M228.565 58.4661H197.594V60.0301H228.565V58.4661Z" fill="white"/>
<path d="M228.565 60.7661H197.594V62.3301H228.565V60.7661Z" fill="white"/>
<path d="M228.565 63.3538H197.594V64.9178H228.565V63.3538Z" fill="white"/>
<path d="M199.325 52.8311H199.027V66.1826H199.325V52.8311Z" fill="white"/>
<path d="M227.304 52.8311H227.006V66.1826H227.304V52.8311Z" fill="white"/>
<path d="M230.583 130.1H196.906V174.996H230.583V130.1Z" fill="#CCE9FF"/>
<path d="M214.404 130.916C214.404 130.916 214.484 144.187 201.068 155.4C201.068 155.4 203.866 170.016 203.465 174.168H197.02V130.928H214.404V130.916Z" fill="white"/>
<path d="M215.573 153.513C215.573 153.513 214.174 153.663 213.36 155.054C212.546 156.434 210.952 162.437 209.794 163.656C208.636 164.875 204.554 167.325 204.554 167.325L205.586 168.003C205.586 168.003 211.812 166.106 212.718 165.002C213.624 163.898 214.92 157.998 214.92 157.998L215.573 153.513Z" fill="#FFB27D"/>
<path d="M216.949 145.072C216.949 145.072 217.03 143.094 219.862 142.979C222.694 142.853 224.735 145.256 224.827 146.567C224.919 147.878 224.345 149.914 226.203 151.271C228.061 152.628 227.143 158.918 222.751 158.918C218.36 158.918 215.745 158.665 215.722 156.388C215.711 154.111 215.631 152.053 217.374 151.42C219.128 150.776 216.949 145.072 216.949 145.072Z" fill="#0C476F"/>
<path d="M221.742 170.361C221.742 170.361 221.731 170.384 221.731 170.418C221.731 170.43 221.719 170.453 221.719 170.464C221.708 170.499 221.697 170.556 221.674 170.614C221.674 170.625 221.662 170.648 221.662 170.66C221.651 170.706 221.628 170.763 221.616 170.832C221.605 170.867 221.593 170.913 221.582 170.947C221.479 171.281 221.353 171.729 221.181 172.281C221.146 172.419 221.1 172.569 221.054 172.73C221.031 172.81 221.009 172.879 220.986 172.96C220.974 172.983 220.974 173.017 220.963 173.04C220.951 173.098 220.928 173.144 220.917 173.201C220.894 173.259 220.882 173.328 220.859 173.397C220.814 173.546 220.768 173.696 220.733 173.857C220.63 174.225 220.527 174.604 220.412 175.007H213.773C213.785 174.593 213.807 174.19 213.83 173.822C213.83 173.73 213.842 173.65 213.842 173.569C213.876 173.155 213.899 172.764 213.934 172.419C213.945 172.327 213.945 172.235 213.957 172.155C213.979 171.982 213.991 171.81 214.014 171.66C214.014 171.626 214.025 171.603 214.025 171.58C214.025 171.545 214.037 171.522 214.037 171.499C214.06 171.338 214.071 171.177 214.094 171.039C214.106 170.993 214.106 170.947 214.117 170.901C214.129 170.855 214.129 170.821 214.14 170.775C214.151 170.74 214.151 170.694 214.163 170.66C214.174 170.625 214.174 170.591 214.186 170.556C214.186 170.533 214.186 170.522 214.197 170.51C214.209 170.464 214.209 170.418 214.22 170.372C214.22 170.349 214.232 170.315 214.232 170.292C214.232 170.269 214.243 170.246 214.243 170.223C214.255 170.131 214.289 170.05 214.323 169.981C214.335 169.958 214.346 169.947 214.358 169.924C214.369 169.901 214.381 169.889 214.392 169.878C214.415 169.843 214.438 169.809 214.473 169.786C214.484 169.774 214.495 169.763 214.518 169.74C214.53 169.728 214.553 169.705 214.564 169.694C214.576 169.682 214.587 169.671 214.599 169.659C214.622 169.636 214.645 169.625 214.667 169.613C214.679 169.602 214.702 169.59 214.713 169.579C214.748 169.556 214.782 169.544 214.817 169.521C214.839 169.51 214.851 169.498 214.874 169.498C214.897 169.487 214.92 169.475 214.943 169.464C214.966 169.452 214.989 169.452 215.011 169.441C215.034 169.429 215.057 169.429 215.08 169.418C215.161 169.395 215.241 169.372 215.321 169.36C215.344 169.36 215.355 169.349 215.378 169.349C215.413 169.337 215.436 169.337 215.47 169.326C215.516 169.326 215.55 169.314 215.596 169.303C215.631 169.303 215.654 169.291 215.688 169.291C215.711 169.291 215.734 169.291 215.757 169.28C215.791 169.28 215.837 169.268 215.883 169.268C215.929 169.268 215.986 169.268 216.032 169.257C216.261 169.245 216.514 169.257 216.766 169.268C216.823 169.268 216.881 169.28 216.938 169.28C217.03 169.291 217.133 169.291 217.236 169.303C217.374 169.314 217.523 169.337 217.672 169.36C217.683 169.36 217.695 169.36 217.718 169.36C217.786 169.372 217.855 169.383 217.924 169.395C218.13 169.429 218.337 169.464 218.532 169.498C218.612 169.51 218.692 169.533 218.773 169.544L218.99 169.59C219.197 169.636 219.403 169.682 219.598 169.728C219.667 169.751 219.747 169.763 219.816 169.786C219.839 169.786 219.85 169.797 219.873 169.797C219.908 169.809 219.942 169.809 219.977 169.82C220.034 169.832 220.08 169.843 220.126 169.855C220.206 169.878 220.286 169.901 220.366 169.912C220.401 169.924 220.424 169.924 220.458 169.935C220.504 169.947 220.561 169.958 220.607 169.97C220.733 170.004 220.859 170.039 220.974 170.073C221.031 170.085 221.077 170.108 221.123 170.119C221.169 170.131 221.203 170.142 221.238 170.154C221.249 170.154 221.249 170.154 221.261 170.154C221.295 170.165 221.33 170.177 221.353 170.177C221.387 170.188 221.41 170.2 221.433 170.2C221.467 170.211 221.502 170.223 221.525 170.234C221.547 170.246 221.559 170.246 221.582 170.257C221.605 170.257 221.616 170.269 221.639 170.28C221.685 170.349 221.742 170.361 221.742 170.361Z" fill="#1C468A"/>
<path d="M221.742 170.361C221.742 170.361 221.731 170.384 221.731 170.418C221.731 170.43 221.719 170.453 221.719 170.464C221.708 170.499 221.697 170.556 221.674 170.614C221.674 170.625 221.662 170.648 221.662 170.66C221.651 170.706 221.628 170.763 221.616 170.832C221.605 170.867 221.593 170.913 221.582 170.947C221.479 171.281 221.353 171.729 221.181 172.281C221.146 172.419 221.1 172.569 221.054 172.73C221.031 172.81 221.009 172.879 220.986 172.96C220.974 172.983 220.974 173.017 220.963 173.04C220.951 173.098 220.928 173.144 220.917 173.201C220.894 173.259 220.882 173.328 220.859 173.397C220.814 173.546 220.768 173.696 220.733 173.857C220.63 174.225 220.527 174.604 220.412 175.007H213.773C213.785 174.593 213.807 174.19 213.83 173.822C213.83 173.73 213.842 173.65 213.842 173.569C213.876 173.155 213.899 172.764 213.934 172.419C213.945 172.327 213.945 172.235 213.957 172.155C213.979 171.982 213.991 171.81 214.014 171.66C214.014 171.626 214.025 171.603 214.025 171.58C214.025 171.545 214.037 171.522 214.037 171.499C214.06 171.338 214.071 171.177 214.094 171.039C214.106 170.993 214.106 170.947 214.117 170.901C214.129 170.855 214.129 170.821 214.14 170.775C214.151 170.74 214.151 170.694 214.163 170.66C214.174 170.625 214.174 170.591 214.186 170.556C214.186 170.533 214.186 170.522 214.197 170.51C214.209 170.464 214.209 170.418 214.22 170.372C214.22 170.349 214.232 170.315 214.232 170.292C214.232 170.269 214.243 170.246 214.243 170.223C214.255 170.131 214.289 170.05 214.323 169.981C214.335 169.958 214.346 169.947 214.358 169.924C214.369 169.901 214.381 169.889 214.392 169.878C214.415 169.843 214.438 169.809 214.473 169.786C214.484 169.774 214.495 169.763 214.518 169.74C214.53 169.728 214.553 169.705 214.564 169.694C214.576 169.682 214.587 169.671 214.599 169.659C214.622 169.636 214.645 169.625 214.667 169.613C214.679 169.602 214.702 169.59 214.713 169.579C214.748 169.556 214.782 169.544 214.817 169.521C214.839 169.51 214.851 169.498 214.874 169.498C214.897 169.487 214.92 169.475 214.943 169.464C214.966 169.452 214.989 169.452 215.011 169.441C215.034 169.429 215.057 169.429 215.08 169.418C215.161 169.395 215.241 169.372 215.321 169.36C215.344 169.36 215.355 169.349 215.378 169.349C215.413 169.337 215.436 169.337 215.47 169.326C215.516 169.326 215.55 169.314 215.596 169.303C215.631 169.303 215.654 169.291 215.688 169.291C215.711 169.291 215.734 169.291 215.757 169.28C215.791 169.28 215.837 169.268 215.883 169.268C215.929 169.268 215.986 169.268 216.032 169.257C216.261 169.245 216.514 169.257 216.766 169.268C216.823 169.268 216.881 169.28 216.938 169.28C217.03 169.291 217.133 169.291 217.236 169.303C217.374 169.314 217.523 169.337 217.672 169.36C217.683 169.36 217.695 169.36 217.718 169.36C217.786 169.372 217.855 169.383 217.924 169.395C218.13 169.429 218.337 169.464 218.532 169.498C218.612 169.51 218.692 169.533 218.773 169.544L218.99 169.59C219.197 169.636 219.403 169.682 219.598 169.728C219.667 169.751 219.747 169.763 219.816 169.786C219.839 169.786 219.85 169.797 219.873 169.797C219.908 169.809 219.942 169.809 219.977 169.82C220.034 169.832 220.08 169.843 220.126 169.855C220.206 169.878 220.286 169.901 220.366 169.912C220.401 169.924 220.424 169.924 220.458 169.935C220.504 169.947 220.561 169.958 220.607 169.97C220.733 170.004 220.859 170.039 220.974 170.073C221.031 170.085 221.077 170.108 221.123 170.119C221.169 170.131 221.203 170.142 221.238 170.154C221.249 170.154 221.249 170.154 221.261 170.154C221.295 170.165 221.33 170.177 221.353 170.177C221.387 170.188 221.41 170.2 221.433 170.2C221.467 170.211 221.502 170.223 221.525 170.234C221.547 170.246 221.559 170.246 221.582 170.257C221.605 170.257 221.616 170.269 221.639 170.28C221.685 170.349 221.742 170.361 221.742 170.361Z" fill="#163560"/>
<path d="M225.01 174.995H218.451C218.291 174.075 218.13 173.213 217.993 172.477C217.763 171.212 217.569 170.257 217.488 169.832C217.454 169.671 217.442 169.579 217.442 169.579C217.442 169.579 217.5 169.51 217.614 169.383C218.291 168.613 220.859 165.887 222.098 167.141C222.304 167.348 222.511 167.566 222.729 167.796C223.462 168.601 224.231 169.613 224.689 171.051C225.022 172.12 225.171 173.408 225.01 174.995Z" fill="#1C468A"/>
<path d="M216.949 154.445L218.062 156.112L220.298 155.997L221.33 153.318C221.33 153.318 221.009 153.26 220.859 149.925L218.073 150.776C218.073 150.776 218.222 151.65 218.027 152.593C217.878 153.26 217.58 153.962 216.949 154.445Z" fill="#FFB27D"/>
<path d="M216.64 153.261C216.789 153.261 219.415 152.375 223.164 153.916C223.164 153.916 221.387 164.14 222.144 166.083C222.912 168.038 223.199 169.763 223.199 169.763L214.897 169.867C214.897 169.867 215.011 163.174 214.633 160.805C214.243 158.436 216.64 153.261 216.64 153.261Z" fill="#FFB27D"/>
<path d="M224.827 170.844C224.689 171.143 224.38 171.373 223.99 171.557C223.485 171.798 222.878 171.959 222.396 172.074C222.018 172.166 221.433 172.258 220.768 172.339C220.412 172.385 220.034 172.408 219.644 172.431C219.587 172.431 219.529 172.442 219.483 172.442C216.984 172.569 214.186 172.511 213.819 171.315C213.785 171.2 213.785 170.97 213.807 170.671C213.853 170.05 214.002 169.13 214.14 168.279C214.278 167.451 214.404 166.681 214.438 166.29C214.633 164.174 214.232 161.138 214.163 159.171C214.117 157.538 215.573 153.525 215.573 153.525C215.573 153.525 215.849 153.364 216.938 153.214C216.938 153.214 217.098 155.181 218.096 155.342C219.839 155.629 221.238 154.031 221.651 153.387C221.651 153.387 223.646 153.893 224.242 154.56C224.666 155.043 224.609 156.193 224.483 156.917C224.449 157.147 224.391 157.331 224.357 157.446C224.231 157.78 223.761 160.183 223.554 161.149C223.554 161.172 223.543 161.195 223.543 161.218C223.531 161.287 223.52 161.345 223.508 161.391C223.497 161.437 223.485 161.483 223.474 161.506C223.474 161.517 223.462 161.54 223.462 161.552C223.153 162.541 222.969 163.541 223.073 164.783C223.084 164.933 223.118 165.105 223.164 165.301C223.428 166.727 224.586 169.544 224.827 170.844Z" fill="#1D8CDD"/>
<path d="M218.016 152.593C219.174 152.501 220.859 149.925 220.859 149.925L218.073 150.776C218.062 150.776 218.211 151.65 218.016 152.593Z" fill="#ED975D"/>
<path d="M216.926 153.203C216.926 153.203 214.255 153.49 213.349 154.755C212.454 156.02 211.881 157.906 211.881 157.906C211.881 157.906 212.523 159.827 214.392 159.585C216.261 159.344 216.926 153.203 216.926 153.203Z" fill="#1D8CDD"/>
<path d="M217.603 151.535C217.603 151.535 221.009 151.432 220.917 149.304C220.825 147.177 221.192 145.728 219.013 145.705C216.835 145.682 216.445 146.51 216.307 147.234C216.158 147.959 216.709 151.512 217.603 151.535Z" fill="#FFB27D"/>
<path d="M217.855 145.44C217.855 145.44 217.958 146.142 219.3 147.073C220.642 148.005 220.871 150.144 220.871 150.144C220.871 150.144 221.891 146.326 220.676 145.463C219.461 144.601 217.855 145.44 217.855 145.44Z" fill="#0C476F"/>
<path d="M218.956 144.233C218.956 144.233 217.213 144.072 215.975 146.027C215.447 146.866 215.86 148.189 216.41 148.879C216.41 148.879 216.594 147.073 217.546 146.475C218.497 145.877 218.956 144.233 218.956 144.233Z" fill="#0C476F"/>
<path d="M218.383 150.293C218.383 150.293 218.348 150.558 217.718 150.592C217.718 150.592 217.179 150.616 217.167 150.34C217.156 150.34 217.649 150.075 218.383 150.293Z" fill="white"/>
<path d="M207.317 164.462C207.317 164.462 206.423 163.415 207.26 162.748C207.26 162.748 207.879 162.369 208.372 162.403C208.372 162.403 207.661 163.599 207.891 163.714C208.12 163.829 208.59 162.323 208.59 162.323C208.59 162.323 209.989 162.185 210.436 162.403C210.436 162.403 209.244 163.381 209.496 163.45C209.748 163.507 211.044 162.541 211.044 162.541C211.044 162.541 212.351 162.76 212.282 163.565C212.214 164.37 211.766 164.611 211.571 164.588C211.377 164.565 210.218 164.128 210.195 164.289C210.173 164.45 210.861 164.979 211.354 165.002C211.354 165.002 210.436 166.014 209.829 165.727C209.221 165.428 209.163 164.968 208.785 164.795C208.407 164.623 208.074 164.623 208.235 164.795C208.395 164.968 209.083 165.14 209.301 165.531C209.519 165.922 209.714 166.175 209.083 166.083C208.453 165.991 207.421 165.52 207.375 164.991C207.317 164.462 207.317 164.462 207.317 164.462Z" fill="#10538C"/>
<path d="M211.64 163.576C211.64 163.576 208.097 163.438 207.317 164.45C207.317 164.45 207.145 164.968 206.618 165.439L206.538 165.669C206.538 165.669 207.157 165.025 207.375 164.979C207.363 164.991 207.019 163.726 211.64 163.576Z" fill="#10538C"/>
<path d="M206.606 165.451C206.606 165.451 205.85 166.014 205.792 167.026L205.93 167.038C205.93 167.038 206.171 165.991 206.606 165.589C207.054 165.175 206.606 165.451 206.606 165.451Z" fill="#10538C"/>
<path d="M204.175 163.139C204.175 163.139 205.609 162.334 204.932 161.253C204.932 161.253 204.393 160.586 203.831 160.413C203.831 160.413 204.141 162.035 203.831 162.081C203.522 162.115 203.625 160.252 203.625 160.252C203.625 160.252 202.123 159.528 201.527 159.585C201.527 159.585 202.455 161.172 202.157 161.138C201.848 161.103 200.804 159.493 200.804 159.493C200.804 159.493 199.256 159.206 199.015 160.126C198.763 161.046 199.165 161.506 199.394 161.563C199.623 161.621 201.091 161.598 201.057 161.793C201.022 161.989 200.025 162.288 199.474 162.115C199.474 162.115 200.082 163.622 200.885 163.553C201.687 163.472 201.928 162.978 202.433 162.943C202.926 162.909 203.293 163.035 203.04 163.173C202.788 163.311 201.951 163.219 201.55 163.553C201.148 163.898 200.827 164.105 201.573 164.254C202.318 164.404 203.648 164.312 203.912 163.737C204.175 163.139 204.175 163.139 204.175 163.139Z" fill="#10538C"/>
<path d="M199.715 160.379C199.715 160.379 203.717 161.678 204.175 163.127C204.175 163.127 204.153 163.771 204.554 164.519V164.806C204.554 164.806 204.13 163.829 203.912 163.702C203.912 163.714 204.806 162.449 199.715 160.379Z" fill="#10538C"/>
<path d="M204.554 164.531C204.554 164.531 205.173 165.474 204.818 166.612L204.657 166.566C204.657 166.566 204.806 165.301 204.485 164.669C204.175 164.048 204.554 164.531 204.554 164.531Z" fill="#10538C"/>
<path d="M206.446 162.024C206.446 162.024 204.565 160.966 205.437 159.528C205.437 159.528 206.136 158.643 206.893 158.424C206.893 158.424 206.492 160.563 206.893 160.609C207.294 160.655 207.168 158.194 207.168 158.194C207.168 158.194 209.152 157.24 209.932 157.309C209.932 157.309 208.705 159.402 209.106 159.344C209.507 159.298 210.883 157.182 210.883 157.182C210.883 157.182 212.913 156.803 213.246 158.01C213.567 159.218 213.039 159.827 212.741 159.896C212.443 159.977 210.505 159.942 210.562 160.195C210.608 160.448 211.915 160.851 212.649 160.621C212.649 160.621 211.847 162.61 210.792 162.507C209.737 162.403 209.416 161.748 208.762 161.702C208.109 161.656 207.627 161.828 207.959 162.001C208.281 162.173 209.393 162.058 209.92 162.507C210.448 162.955 210.872 163.231 209.897 163.438C208.923 163.645 207.157 163.519 206.813 162.76C206.446 162.024 206.446 162.024 206.446 162.024Z" fill="#10538C"/>
<path d="M212.328 158.401C212.328 158.401 207.054 160.115 206.457 162.024C206.457 162.024 206.48 162.875 205.953 163.864V164.243C205.953 164.243 206.503 162.955 206.801 162.783C206.801 162.783 205.62 161.127 212.328 158.401Z" fill="#10538C"/>
<path d="M205.941 163.864C205.941 163.864 205.127 165.106 205.597 166.612L205.804 166.555C205.804 166.555 205.597 164.899 206.022 164.059C206.457 163.231 205.941 163.864 205.941 163.864Z" fill="#10538C"/>
<path d="M210.069 166.187C210.069 168.234 208.418 169.89 206.377 169.89C205.953 169.89 205.54 169.821 205.162 169.683C203.717 169.177 202.685 167.808 202.685 166.187H210.069Z" fill="#10538C"/>
<path d="M206.389 169.878C206.239 169.901 206.996 169.878 206.836 169.878C204.795 169.878 203.143 168.222 203.143 166.175H204.061C204.061 168.073 204.565 169.66 206.389 169.878Z" fill="#10538C"/>
<path d="M210.127 170.074H202.65C202.65 169.947 202.696 169.832 202.788 169.752C202.868 169.671 202.983 169.614 203.109 169.614H209.679C209.92 169.614 210.127 169.821 210.127 170.074Z" fill="#10538C"/>
<path d="M210.15 166.187H202.57V166.302H210.15V166.187Z" fill="#10538C"/>
<path d="M210.31 167.566C210.23 167.371 209.427 167.175 209.106 167.037C209.106 167.037 208.9 167.187 209.175 167.428C209.244 167.497 209.381 167.589 209.507 167.681C209.473 167.67 209.427 167.658 209.393 167.647C209.106 167.566 207.26 168.199 207.042 168.613C206.824 169.027 208.097 170.05 209.06 169.728C209.553 169.567 211.147 169.268 211.147 169.268L210.883 167.969C210.883 167.969 210.39 167.762 210.31 167.566Z" fill="#FFB27D"/>
<path d="M224.54 155.388C224.54 155.388 224.919 158.033 222.178 161.943C219.438 165.853 219.598 166.106 218.016 167.141C216.445 168.176 211.147 169.268 211.147 169.268L210.883 167.969C210.883 167.969 216.021 164.657 216.502 164.001C216.984 163.346 220.286 155.997 220.286 155.997L224.54 155.388Z" fill="#FFB27D"/>
<path d="M221.903 154.411C221.903 154.411 219.713 156.136 219.128 156.975C218.543 157.815 218.016 159.701 218.016 159.701C218.016 159.701 220.309 161.138 224.265 160.103C224.265 160.103 225.32 155.204 224.242 154.56C223.164 153.928 222.167 154.411 222.167 154.411H221.903Z" fill="#1D8CDD"/>
<path d="M215.275 130.916C215.275 130.916 217.729 141.784 229.035 145.625C229.035 145.625 228.932 162.369 227.648 166.773C226.363 171.178 226.054 174.168 226.054 174.168H229.035V130.928H215.275V130.916Z" fill="white"/>
<path d="M231.409 174.156H230.686V140.703V138.851V129.26H195.369V138.851V140.703V174.156H194.647C192.846 174.156 191.379 175.617 191.379 177.434V177.549H234.665V177.434C234.665 175.628 233.209 174.156 231.409 174.156ZM197.009 130.916H229.035V138.851H197.009V130.916ZM197.009 140.703H229.035V174.156H197.009V140.703Z" fill="#E5A13E"/>
<path d="M248.792 188.025H122.269V205.39H248.792V188.025Z" fill="#FFCC83"/>
<path d="M152.323 205.493C152.323 205.493 149.984 197.041 140.237 194.212C130.491 191.383 131.121 192.797 122.326 187.749C113.531 182.712 99.7027 185.863 96.8704 189.957C94.0381 194.051 87.4448 196.259 78.3288 196.098C69.2128 195.937 68.7541 204.838 68.7541 204.838L152.323 205.493Z" fill="#0D4871"/>
<path d="M315.23 205.655H28.7699C28.5749 205.655 28.4144 205.494 28.4144 205.298V205.114C28.4144 204.919 28.5749 204.758 28.7699 204.758H315.219C315.414 204.758 315.574 204.919 315.574 205.114V205.298C315.574 205.494 315.414 205.655 315.23 205.655Z" fill="#2995F5"/>
<path opacity="0.5" d="M176.231 130.1H142.554V174.996H176.231V130.1Z" fill="white"/>
<path d="M175.406 130.927H143.379V174.167H175.406V130.927Z" fill="#CCE9FF"/>
<path d="M156.44 169.004C156.44 169.004 154.594 171.534 154.594 174.167H167.127C167.127 174.167 166.45 170.073 163.595 169.004C160.74 167.946 156.44 169.004 156.44 169.004Z" fill="#0C476F"/>
<path d="M171.782 155.399C171.782 155.399 169.81 160.425 169.592 160.609C168.996 161.092 165.361 155.514 164.799 154.537C164.237 153.559 160.786 154.399 160.487 152.582C160.396 152.03 160.212 151.42 160.212 151.029C160.212 150.983 160.212 150.937 160.212 150.891C160.212 150.535 160.235 150.155 160.293 149.753L160.121 149.764L157.219 149.994C157.219 149.994 157.506 150.696 157.414 151.547C157.38 151.823 157.369 152.34 157.334 152.846C157.3 153.41 156.91 153.893 156.371 154.054C155.133 154.422 153.585 154.974 153.321 155.664C152.793 157.009 151.624 163.104 151.394 165.174C151.165 167.244 149.078 173.293 149.078 173.293H150.122C150.122 173.293 154.043 166.681 154.376 165.657C154.479 165.335 154.857 164.082 155.316 162.472C155.752 164.208 156.371 165.945 156.509 166.658C156.749 167.888 154.479 171.879 154.708 172.983C154.938 174.087 166.909 174.685 166.748 172.983C166.588 171.281 164.902 168.394 164.558 167.049C164.306 166.037 164.891 162.644 165.074 160.632C166.909 162.725 169.397 164.68 170.154 164.277C172.115 163.254 172.734 155.652 172.734 155.652L171.782 155.399Z" fill="#FFB27D"/>
<path d="M158.148 148.166C158.148 148.166 156.589 149.408 157.907 151.214C157.907 151.214 156.382 151.156 155.993 150.754C155.993 150.754 156.061 150.938 156.13 151.018C156.13 151.018 154.72 150.903 154.192 150.386C153.665 149.88 154.892 142.704 158.71 143.969C158.71 143.969 162.047 144.118 161.29 147.925C160.522 151.731 161.772 151.881 161.772 151.881C161.772 151.881 161.405 152.007 161.233 151.996C161.233 151.996 161.003 151.869 160.969 151.731C160.969 151.731 160.992 151.95 161.049 152.03C161.049 152.03 159.685 151.996 159.077 151.409C158.435 150.811 157.862 148.937 158.148 148.166Z" fill="#0C476F"/>
<path d="M156.772 149.741C156.772 149.741 156.096 148.327 156.027 147.177C155.981 146.36 156.738 143.428 159.685 144.21C159.685 144.21 160.545 144.394 161.29 145.049C161.886 145.567 162.712 146.625 161.359 149.097L160.981 149.948L156.772 149.741Z" fill="#0C476F"/>
<path d="M160.476 152.582C158.378 152.272 157.197 150.064 157.197 150.064C158.057 149.972 159.238 150.409 160.201 150.88C160.201 150.926 160.201 150.972 160.201 151.018C160.201 151.409 160.338 152.03 160.476 152.582Z" fill="#ED975D"/>
<path d="M160.499 151.742C160.499 151.742 156.738 151.351 157.013 149.005C157.288 146.659 156.99 145.026 159.398 145.176C161.806 145.325 162.173 146.268 162.265 147.085C162.379 147.89 161.485 151.777 160.499 151.742Z" fill="#FFB27D"/>
<path d="M161.13 145.326C161.13 145.326 159.777 147.959 158.148 148.166C156.52 148.385 155.889 147.879 155.889 147.879C155.889 147.879 157.219 147.062 157.667 145.406C157.667 145.418 160.51 143.923 161.13 145.326Z" fill="#0C476F"/>
<path d="M160.843 145.521C160.843 145.521 161.542 146.222 161.657 146.843C161.772 147.464 161.714 148.706 162.07 148.706C162.07 148.706 163.067 146.924 162.322 145.762C161.531 144.532 160.843 145.521 160.843 145.521Z" fill="#0C476F"/>
<path d="M160.981 145.625C160.981 145.625 159.903 148.419 157.804 149.098C157.804 149.098 160.006 147.568 160.396 145.682C160.797 143.808 160.981 145.625 160.981 145.625Z" fill="#0C476F"/>
<path d="M159.731 150.363C159.731 150.363 159.822 150.696 160.052 150.754C160.281 150.811 160.889 150.869 160.935 150.823C160.992 150.777 161.164 150.478 161.164 150.478C161.164 150.478 160.212 150.259 159.731 150.363Z" fill="white"/>
<path d="M171.736 155.676C171.736 155.676 171.667 153.882 171.862 153.272C172.057 152.663 172.47 151.662 172.562 151.708C172.654 151.754 172.837 153.088 172.757 153.387C172.677 153.686 172.837 154.399 172.952 154.261C173.066 154.123 173.261 153.169 173.41 153.226C173.571 153.284 173.422 153.859 173.491 154.008C173.559 154.158 173.559 154.537 173.261 155.032C172.963 155.526 172.665 156.09 172.665 156.09L171.736 155.676Z" fill="#FFB27D"/>
<path d="M149.296 173.271C149.296 173.271 147.782 172.903 147.289 173.075C146.796 173.248 145.89 174.133 146.12 174.145C146.349 174.156 147.393 173.88 147.542 173.915C147.691 173.949 148.115 174.007 148.115 174.007C148.115 174.007 147.496 174.041 147.53 174.156C147.565 174.271 149.124 174.283 149.307 174.156C149.491 174.03 150.122 173.259 150.122 173.259H149.296V173.271Z" fill="#FFB27D"/>
<path d="M154.743 154.595C154.743 154.595 156.646 156.228 159.054 156.101C161.474 155.975 163.377 153.985 163.377 153.985C163.377 153.985 164.478 153.997 165.051 154.606C165.625 155.227 167.826 157.987 167.826 157.987C167.826 157.987 168.021 160.069 165.544 161.518L165.292 161.069C165.292 161.069 164.879 166.244 165.131 166.727C165.395 167.21 167.448 172.305 167.104 173.087C166.771 173.869 155.534 175.789 154.685 172.96C153.837 170.131 155.958 167.682 155.866 166.67C155.775 165.658 155.293 162.449 155.293 162.449C155.293 162.449 152.048 161.955 151.933 160C151.956 160.011 152.53 154.56 154.743 154.595Z" fill="white"/>
<path d="M177.791 174.156H177.068V140.703V138.851V129.26H141.751V138.851V140.703V174.156H141.029C139.228 174.156 137.761 175.617 137.761 177.434V177.549H181.059V177.434C181.059 175.628 179.591 174.156 177.791 174.156ZM143.402 130.916H175.429V138.851H143.402V130.916ZM143.402 140.703H175.429V174.156H143.402V140.703Z" fill="#E5A13E"/>
<path d="M174.947 131.629H143.975V133.193H174.947V131.629Z" fill="white"/>
<path d="M174.947 134.079H143.975V135.643H174.947V134.079Z" fill="white"/>
<path d="M174.947 136.528H143.975V138.092H174.947V136.528Z" fill="white"/>
<path d="M174.947 138.828H143.975V140.392H174.947V138.828Z" fill="white"/>
<path d="M174.947 141.416H143.975V142.98H174.947V141.416Z" fill="white"/>
<path d="M145.718 130.893H145.42V144.245H145.718V130.893Z" fill="white"/>
<path d="M173.686 130.893H173.387V144.245H173.686V130.893Z" fill="white"/>
<path d="M166.817 172.902H162.253V171.292H166.829C167.184 171.292 167.471 171.58 167.471 171.936V172.247C167.482 172.615 167.184 172.902 166.817 172.902Z" fill="#FCECDB"/>
<path d="M171.369 171.959V172.201C171.369 172.327 171.335 172.454 171.278 172.557C171.151 172.764 170.934 172.914 170.67 172.914H162.127C162.07 172.914 162.024 172.868 162.024 172.81V172.776C162.024 172.718 162.07 172.672 162.127 172.672H167.333C167.356 172.638 167.39 172.603 167.402 172.557C167.448 172.465 167.482 172.362 167.482 172.247V171.936C167.482 171.879 167.471 171.821 167.459 171.775C167.436 171.683 167.39 171.603 167.333 171.534H162.116C162.058 171.534 162.013 171.488 162.013 171.43V171.396C162.013 171.338 162.058 171.292 162.116 171.292H170.704C171.002 171.292 171.266 171.499 171.346 171.775C171.358 171.833 171.369 171.89 171.369 171.959Z" fill="#699DEE"/>
<path d="M171.346 171.775H167.459C167.436 171.683 167.39 171.603 167.333 171.534H162.116C162.058 171.534 162.013 171.488 162.013 171.43V171.396C162.013 171.338 162.058 171.292 162.116 171.292H170.704C171.002 171.292 171.266 171.499 171.346 171.775Z" fill="#548EE2"/>
<path d="M162.265 172.097L162.895 172.132L162.265 172.143V172.097Z" fill="#F4D2B8"/>
<path d="M162.265 172.351L163.767 172.385L162.265 172.397V172.351Z" fill="#F4D2B8"/>
<path d="M163.239 174.156H168.09V172.903H163.194C162.861 172.903 162.586 173.179 162.586 173.512C162.586 173.869 162.873 174.156 163.239 174.156Z" fill="#0C476F"/>
<path d="M167.815 174.156H173.342V172.903H167.803C167.459 172.903 167.184 173.179 167.184 173.524C167.184 173.88 167.459 174.156 167.815 174.156Z" fill="#FCECDB"/>
<path d="M166.806 174.156H173.525C173.582 174.156 173.617 174.11 173.617 174.064C173.617 174.007 173.571 173.972 173.525 173.972H166.806C166.748 173.972 166.714 174.018 166.714 174.064C166.714 174.122 166.76 174.156 166.806 174.156Z" fill="#0C476F"/>
<path d="M166.806 173.087H173.525C173.582 173.087 173.617 173.041 173.617 172.995C173.617 172.937 173.571 172.903 173.525 172.903H166.806C166.748 172.903 166.714 172.949 166.714 172.995C166.714 173.052 166.76 173.087 166.806 173.087Z" fill="#0C476F"/>
<path d="M173.33 173.535L172.585 173.547L173.33 173.57V173.535Z" fill="#F4D2B8"/>
<path d="M173.33 173.248L171.553 173.259L173.33 173.271V173.248Z" fill="#F4D2B8"/>
<path d="M171.576 173.259C171.576 173.259 171.656 173.317 171.679 173.397C171.679 173.409 171.69 173.432 171.69 173.443C171.69 173.558 171.69 173.823 171.69 173.823L171.92 173.685L172.149 173.823V173.466C172.149 173.397 172.126 173.328 172.092 173.282C172.069 173.259 172.057 173.248 172.034 173.248H171.576V173.259Z" fill="#699DEE"/>
<path d="M171.576 173.259C171.576 173.259 171.656 173.317 171.679 173.397H172.126C172.126 173.397 172.103 173.271 172.011 173.248H171.576V173.259Z" fill="#568CDB"/>
<path d="M175.532 52.0491H141.854V96.9451H175.532V52.0491Z" fill="#CCE9FF"/>
<path d="M158.045 52.854C158.045 52.854 157.965 66.125 171.381 77.3375C171.381 77.3375 168.583 91.954 168.984 96.1055H175.429V52.8655H158.045V52.854Z" fill="white"/>
<path d="M146.028 78.0276C146.028 78.0276 143.219 78.4301 142.496 79.0626C141.269 80.1321 142.175 96.4621 142.175 96.4621C142.175 96.4621 146.395 96.8071 146.395 96.4621C146.395 96.1056 146.028 78.0276 146.028 78.0276Z" fill="#D39E7A"/>
<path d="M157.036 96.485L151.005 96.9335L146.796 97.244L145.913 97.313L145.856 96.9335L145.81 96.6L145.799 96.531L145.592 95.059L145.512 94.4725L145.248 92.6785L143.93 83.5015L143.563 80.937C143.563 80.937 143.287 78.522 145.523 78.131C145.684 78.0965 145.856 78.0735 146.039 78.039C146.039 78.039 146.039 78.039 146.051 78.039C146.808 77.901 147.679 77.7515 148.528 77.6365C149.227 77.5445 149.927 77.487 150.546 77.4985C150.81 77.4985 151.062 77.5215 151.291 77.556C151.589 77.602 151.853 77.671 152.071 77.7745C152.094 77.786 152.117 77.7975 152.14 77.809C152.231 77.855 152.3 77.901 152.381 77.9585C152.415 77.9815 152.438 78.0045 152.461 78.039C152.541 78.1195 152.621 78.2805 152.725 78.5105C152.828 78.7635 152.954 79.1085 153.08 79.5225C153.263 80.0975 153.458 80.799 153.676 81.604C154.273 83.8465 154.949 86.7905 155.545 89.4815C155.568 89.562 155.58 89.6425 155.603 89.723C155.683 90.068 155.752 90.413 155.832 90.7465C155.832 90.758 155.843 90.781 155.843 90.7925C155.855 90.85 155.866 90.919 155.878 90.9765C155.912 91.1375 155.947 91.31 155.981 91.471C156.05 91.793 156.119 92.1035 156.187 92.4025C156.623 94.438 156.944 95.9905 157.025 96.393C157.036 96.4505 157.036 96.485 157.036 96.485Z" fill="#EFCBAB"/>
<path d="M153.218 79.4536C153.218 79.4536 154.169 80.8681 154.72 83.8466C155.201 86.4571 155.614 87.4116 156.302 87.9521C156.99 88.4811 160.82 90.0681 160.82 90.0681L160.533 90.7466C160.533 90.7466 154.915 89.9761 154.284 89.0331C153.653 88.0901 151.245 82.5241 151.429 81.2476C151.624 79.9596 153.218 79.4536 153.218 79.4536Z" fill="#F4A269"/>
<path d="M166.095 96.9334H161.451C161.336 96.4734 161.164 96.1744 160.831 96.1629C160.533 96.1514 158.939 96.3124 157.002 96.3814C153.929 96.4849 150.018 96.3354 149.147 94.7829C148.941 94.4149 148.78 94.0354 148.677 93.6789C148.654 93.6214 148.642 93.5754 148.631 93.5179C148.447 92.8509 148.413 92.2069 148.459 91.6549C148.482 91.3329 148.528 91.0339 148.585 90.7809C148.723 90.1369 148.906 89.7344 148.906 89.7344L150.42 90.8499L150.592 90.9764C150.592 90.9764 151.887 90.8844 153.688 90.8039C154.089 90.7924 154.502 90.7694 154.938 90.7579C155.155 90.7464 155.373 90.7464 155.603 90.7464C155.671 90.7464 155.752 90.7464 155.821 90.7464C156.359 90.7349 156.921 90.7349 157.472 90.7349C157.529 90.7349 157.586 90.7349 157.632 90.7349C157.758 90.7349 157.896 90.7349 158.022 90.7349C160.155 90.7579 162.196 90.8959 163.217 91.2869C163.366 91.3444 163.492 91.4019 163.595 91.4709C163.595 91.4709 163.606 91.4709 163.606 91.4824C164.34 91.9424 165.246 94.2194 166.095 96.9334Z" fill="#10538C"/>
<path d="M161.841 96.9335H151.005L146.796 97.244C146.59 97.152 146.406 97.0485 146.246 96.9335C146.097 96.83 145.971 96.715 145.856 96.6C145.833 96.577 145.81 96.554 145.799 96.531C145.73 96.4505 145.673 96.3585 145.627 96.2665C145.42 95.8525 145.34 95.4615 145.363 95.082C145.374 94.8635 145.42 94.668 145.501 94.461C145.673 93.9895 145.982 93.564 146.338 93.1845C147.243 92.2415 148.459 91.655 148.459 91.655C148.459 91.655 148.459 91.655 148.47 91.655C148.597 91.6665 149.858 91.724 151.521 91.862C151.681 91.8735 151.842 91.885 152.014 91.908C153.321 92.023 154.811 92.184 156.176 92.4025C157.942 92.6785 159.501 93.035 160.178 93.5065C160.705 93.863 161.279 95.1855 161.841 96.9335Z" fill="#1D8CDD"/>
<path d="M153 74.3015C153 74.29 153 74.29 153 74.2785C153 74.0945 152.988 73.9105 152.977 73.7265C152.942 73.1745 152.862 72.634 152.77 72.1625C152.713 71.8865 152.644 71.6335 152.575 71.4035C152.564 71.369 152.553 71.3345 152.541 71.3C152.369 70.771 152.151 70.38 151.91 70.2305C151.475 69.943 150.947 69.8855 150.569 69.874C150.672 69.782 150.867 69.759 150.867 69.759C150.638 69.713 150.099 69.9085 150.099 69.9085C146.945 68.4365 146.12 73.186 146.108 74.3015C146.097 75.417 146.028 76.6935 144.342 77.5905C143.7 77.9355 143.265 78.338 143.001 78.7865C141.889 80.615 143.482 82.9495 143.482 82.9495C143.494 82.9495 143.666 83.1795 143.907 83.513C144.549 84.364 145.684 85.8705 145.684 85.8705C145.684 85.6635 145.856 85.2725 146.154 84.7665C146.372 84.387 146.659 83.9615 146.991 83.5015C147.152 83.283 147.312 83.053 147.496 82.8345C147.725 82.5355 147.977 82.225 148.23 81.926C148.333 81.811 148.425 81.696 148.528 81.581C148.975 81.0635 149.445 80.569 149.915 80.132C150.018 80.0285 150.133 79.9365 150.236 79.8445C150.362 79.7295 150.5 79.6145 150.626 79.511C150.878 79.3155 151.119 79.1315 151.349 78.9935C151.36 78.982 151.371 78.982 151.383 78.9705C151.417 78.9475 151.44 78.936 151.475 78.913C151.578 78.7865 151.658 78.6485 151.738 78.499C151.773 78.4415 151.796 78.384 151.83 78.3265C151.91 78.154 151.979 77.9815 152.048 77.809C152.231 77.28 152.335 76.8085 152.358 76.728C152.289 77.1765 152.209 77.5445 152.128 77.8435C152.071 78.039 152.014 78.2115 151.956 78.3495C151.91 78.453 151.876 78.545 151.83 78.614C151.807 78.6485 151.796 78.683 151.773 78.7175C151.796 78.6945 151.819 78.6715 151.842 78.66C151.933 78.5795 152.014 78.4875 152.094 78.384C152.186 78.269 152.266 78.1425 152.346 77.993C152.851 77.027 153.034 75.647 153 74.3015Z" fill="#0C476F"/>
<path d="M151.417 78.2231C151.36 78.2001 151.303 78.1771 151.234 78.1541C151.234 78.0046 151.245 77.8551 151.257 77.7056C151.303 76.9926 151.406 76.2451 151.406 76.2451L149.044 75.6126L148.906 75.5781C148.837 76.6246 148.631 77.3376 148.447 77.8206C148.207 77.8321 148.046 77.8436 148.046 77.8436C148.012 77.9816 148.046 78.2116 148.172 78.4531C148.149 78.4991 148.138 78.5336 148.138 78.5681C147.989 79.2351 149.651 80.1666 150.431 80.2011C150.878 80.2241 151.119 80.0401 151.245 79.8101C152.186 79.5571 152.117 78.5106 151.417 78.2231Z" fill="#FFB27D"/>
<path d="M151.406 76.2336C151.406 76.2336 151.303 76.9811 151.257 77.6941C149.915 77.5676 149.296 76.2911 149.044 75.5896L151.406 76.2336Z" fill="#F4A269"/>
<path d="M148.814 75.3136C148.814 75.3136 148.184 74.1521 148.081 73.1861C148 72.4961 148.516 70.0006 151.016 70.5296C151.016 70.5296 151.75 70.6561 152.403 71.1621C152.931 71.5646 153.665 72.4271 152.633 74.5661L152.358 75.2906L148.814 75.3136Z" fill="#0C476F"/>
<path d="M151.819 76.935C151.819 76.935 148.642 76.774 148.769 74.796C148.895 72.818 148.574 71.461 150.603 71.4725C152.633 71.4955 152.977 72.2775 153.091 72.9445C153.218 73.623 152.644 76.9235 151.819 76.935Z" fill="#FFB27D"/>
<path d="M152.059 71.5184C152.059 71.5184 151.039 73.7839 149.686 74.0369C148.333 74.2899 147.771 73.8989 147.771 73.8989C147.771 73.8989 148.849 73.1514 149.158 71.7484C149.147 71.7484 151.475 70.3684 152.059 71.5184Z" fill="#0C476F"/>
<path d="M151.83 71.7024C151.83 71.7024 152.449 72.2659 152.564 72.7834C152.69 73.3009 152.69 74.3474 153 74.3244C153 74.3244 153.757 72.7834 153.08 71.8404C152.369 70.8399 151.83 71.7024 151.83 71.7024Z" fill="#0C476F"/>
<path d="M154.995 91.1376C154.743 91.4481 153.94 91.5401 153.08 91.6781C152.403 91.7931 151.693 91.9311 151.188 92.2301C150.041 92.9086 146.303 95.1856 145.214 95.0821C144.79 95.0476 144.87 94.2311 145.122 93.1501C145.523 91.4481 146.372 89.0791 146.372 88.0441C146.372 87.4806 146.555 86.1581 146.808 84.6286C146.831 84.5021 146.854 84.3871 146.865 84.2606C147.358 81.3051 148.035 77.8206 148.035 77.8206C148.035 77.8206 148.791 79.4881 150.282 79.4881C151.761 79.4881 151.417 78.2231 151.417 78.2231C151.417 78.2231 152.77 78.3841 153.091 78.7291C153.413 79.0741 154.227 80.5691 154.387 80.9716C154.387 80.9716 154.422 81.4891 153.137 81.7306C153.137 81.7306 153.447 83.1336 153.481 84.0766C153.504 84.7666 153.011 86.9286 152.862 88.2856C152.816 88.7571 152.805 89.1366 152.885 89.3091C152.988 89.5276 153.309 89.7461 153.665 89.9531C154.399 90.3671 155.293 90.7696 154.995 91.1376Z" fill="#2B94F4"/>
<path d="M153.676 89.953C154.502 91.356 151.452 91.7815 150.947 92.069C149.801 92.7475 146.303 95.1855 145.202 95.082C144.778 95.0475 144.858 94.231 145.111 93.15C145.512 91.448 146.361 89.079 146.361 88.044C146.361 87.4805 146.544 86.158 146.796 84.6285L148.115 83.3635C148.115 83.3635 149.525 87.032 150.878 87.63C151.589 87.9405 152.323 88.1475 152.862 88.274C152.816 88.7455 152.805 89.125 152.885 89.2975C152.988 89.516 153.309 89.7345 153.676 89.953Z" fill="#1D8CDD"/>
<path d="M158.114 90.9648H153.963V91.4593H158.114V90.9648Z" fill="#0C476F"/>
<path d="M157.231 91.3904C157.277 91.2294 161.049 85.2839 161.049 85.2839H169.443L165.235 91.2294L157.231 91.3904Z" fill="#0C476F"/>
<path d="M157.586 91.4594C157.632 91.2984 161.416 85.2839 161.416 85.2839H169.454L165.441 91.4594H157.586Z" fill="#2B478B"/>
<path d="M164.226 88.5845C164.145 88.826 163.882 89.0215 163.641 89.0215C163.4 89.0215 163.274 88.826 163.354 88.5845C163.434 88.343 163.698 88.1475 163.939 88.1475C164.191 88.1475 164.317 88.343 164.226 88.5845Z" fill="#AFCDFB"/>
<path d="M156.245 89.4241C156.073 89.3551 154.731 89.5966 154.353 89.6656C153.137 89.4241 149.147 88.6306 148.952 88.3776C148.723 88.0786 148.218 79.0741 147.645 78.9246C147.645 78.9246 146.521 78.2346 145.432 79.5456C144.342 80.8451 146.211 90.1601 147.828 90.6431C149.629 91.1721 154.811 90.5626 154.811 90.5626C155.236 90.7121 155.981 90.7926 156.382 90.9191C156.91 91.0916 157.369 90.9536 157.483 90.7466C157.575 90.5396 156.44 89.5161 156.245 89.4241Z" fill="#FFB27D"/>
<path d="M148.046 77.832C148.046 77.832 145.73 78.039 145.053 78.8095C144.377 79.5685 144.182 81.6385 144.182 81.6385C144.182 81.6385 146.223 83.2945 148.677 82.6505L148.046 77.832Z" fill="#2B94F4"/>
<path d="M157.162 52.854C157.162 52.854 154.708 63.7215 143.402 67.5625C143.402 67.5625 143.505 84.3065 144.79 88.711C146.062 93.1155 146.383 96.1055 146.383 96.1055H143.402V52.8655H157.162V52.854Z" fill="white"/>
<path d="M137.772 99.3715V99.4865H181.059V99.3715C181.059 97.566 179.602 96.094 177.791 96.094H177.068V62.652V60.8005V51.2095H141.751V60.8005V62.652V96.1055H141.029C139.228 96.1055 137.772 97.566 137.772 99.3715ZM175.429 60.789H143.402V52.854H175.429V60.789ZM175.429 96.1055H143.402V62.652H175.429V96.1055Z" fill="#E5A13E"/>
<path d="M169.982 92.8396C169.982 92.8396 171.117 93.2996 171.931 92.1381C171.931 92.1381 170.624 91.9196 169.982 92.8396Z" fill="#6BB7BF"/>
<path d="M169.902 92.3566C169.902 92.3566 169.821 91.9542 169.34 91.9312C169.351 91.9427 169.523 92.3566 169.902 92.3566Z" fill="#6BB7BF"/>
<path d="M170.142 89.9761C170.142 89.9761 170.693 90.0336 170.899 89.4241C170.899 89.4241 170.303 89.4931 170.142 89.9761Z" fill="#6BB7BF"/>
<path d="M171.45 81.9605C170.337 81.719 170.314 80.8105 170.314 80.8105C171.633 81.2245 171.45 81.9605 171.45 81.9605Z" fill="#6BB7BF"/>
<path d="M171.53 81.7536C171.53 81.7536 172.229 82.0411 172.722 81.3281C172.722 81.3281 171.92 81.1901 171.53 81.7536Z" fill="#6BB7BF"/>
<path d="M170.005 95.5191L169.856 95.6801C169.833 95.7031 169.787 95.6916 169.787 95.6571C169.798 90.9536 170.395 86.7906 170.888 84.3181C171.438 81.6271 171.989 80.0401 171.989 80.0286C171.989 80.0401 171.484 81.6616 170.945 84.3411C170.441 86.8021 169.867 90.0336 170.016 95.4501C170.028 95.4731 170.016 95.4961 170.005 95.5191Z" fill="#6BB7BF"/>
<path d="M172 79.3961C171.828 79.5341 171.14 80.1436 171.805 80.6151C171.805 80.6151 172.31 80.7761 172.482 80.3851C172.608 80.0861 172.642 79.7526 172.654 79.6146C172.654 79.5801 172.631 79.5456 172.596 79.5456C172.562 79.5456 172.505 79.5341 172.459 79.5111C172.401 79.4881 172.367 79.3961 172.275 79.3731C172.218 79.3616 172.172 79.3501 172.103 79.3501C172.057 79.3501 172.023 79.3731 172 79.3961Z" fill="#1D8CDD"/>
<path d="M171.622 80.4426C171.622 80.4426 171.828 80.6036 171.748 80.8681V80.9601C171.748 80.9601 171.805 80.7186 172.046 80.6496C172.046 80.6496 171.817 80.6726 171.622 80.4426Z" fill="#6BB7BF"/>
<path d="M171.45 81.9605C170.337 81.719 170.314 80.8105 170.314 80.8105C170.314 80.8105 171.197 81.2935 171.45 81.9605Z" fill="#8AD8DB"/>
<path d="M170.383 81.3397C170.383 81.3397 169.684 81.6042 169.202 80.8912C169.202 80.8912 170.005 80.7647 170.383 81.3397Z" fill="#6BB7BF"/>
<path d="M171.633 95.1283L171.771 95.3007C171.794 95.3238 171.828 95.3122 171.839 95.2777C171.92 90.5857 171.415 86.3997 170.968 83.9272C170.475 81.2247 169.959 79.6262 169.947 79.6147C169.947 79.6262 170.418 81.2592 170.911 83.9502C171.358 86.4227 171.874 89.6657 171.622 95.0822C171.61 95.0822 171.622 95.1053 171.633 95.1283Z" fill="#6BB7BF"/>
<path d="M169.97 78.9707C170.142 79.1202 170.807 79.7412 170.142 80.2012C170.142 80.2012 169.638 80.3507 169.477 79.9597C169.351 79.6607 169.328 79.3272 169.317 79.1892C169.317 79.1547 169.34 79.1202 169.374 79.1202C169.409 79.1202 169.466 79.1087 169.523 79.0857C169.581 79.0627 169.615 78.9707 169.707 78.9477C169.764 78.9362 169.81 78.9247 169.879 78.9362C169.902 78.9247 169.936 78.9477 169.97 78.9707Z" fill="#1D8CDD"/>
<path d="M170.326 80.0286C170.326 80.0286 170.119 80.1896 170.188 80.4426V80.5346C170.188 80.5346 170.142 80.2931 169.89 80.2126C169.89 80.2241 170.119 80.2471 170.326 80.0286Z" fill="#6BB7BF"/>
<path d="M170.681 80.5115C170.681 80.5115 171.415 80.638 171.748 79.833C171.748 79.8445 170.934 79.879 170.681 80.5115Z" fill="#6BB7BF"/>
<path d="M172.183 94.277L172.08 94.4725C172.069 94.507 172.023 94.4955 172.011 94.461C171.002 89.8725 170.67 85.675 170.624 83.1565C170.567 80.4195 170.762 78.7405 170.773 78.729C170.773 78.7405 170.635 80.431 170.693 83.168C170.739 85.6865 170.888 88.9525 172.206 94.2195C172.206 94.231 172.195 94.254 172.183 94.277Z" fill="#6BB7BF"/>
<path d="M170.624 78.1081C170.486 78.2921 169.947 79.0281 170.693 79.3501C170.693 79.3501 171.22 79.3961 171.301 78.9821C171.358 78.6601 171.323 78.3266 171.301 78.1886C171.301 78.1541 171.266 78.1311 171.22 78.1311C171.186 78.1311 171.129 78.1426 171.071 78.1311C171.002 78.1196 170.957 78.0391 170.865 78.0391C170.807 78.0391 170.75 78.0391 170.693 78.0621C170.67 78.0621 170.647 78.0736 170.624 78.1081Z" fill="#1D8CDD"/>
<path d="M170.486 79.2122C170.486 79.2122 170.716 79.3272 170.704 79.5917L170.727 79.6837C170.727 79.6837 170.727 79.4422 170.957 79.3157C170.945 79.3157 170.727 79.3962 170.486 79.2122Z" fill="#6BB7BF"/>
<path d="M171.289 79.6951C171.289 79.6951 171.289 79.1086 171.794 78.9246C171.794 78.9246 171.908 79.4076 171.289 79.6951Z" fill="#6BB7BF"/>
<path d="M170.108 78.752C170.108 78.752 170.119 78.3035 169.707 78.177C169.707 78.177 169.603 78.591 170.108 78.752Z" fill="#ED9F4A"/>
<path d="M171.461 81.4432C171.473 81.4547 171.679 81.0062 171.266 80.6497C171.266 80.6497 171.094 81.1212 171.461 81.4432Z" fill="#ED9F4A"/>
<path d="M171.748 81.4085C171.736 81.4085 171.748 81.19 171.954 81.1555C171.954 81.1555 171.989 81.3395 171.748 81.4085Z" fill="#6BB7BF"/>
<path d="M169.638 80.6496C169.638 80.6496 169.454 80.2816 168.893 80.3391C168.881 80.3391 168.973 80.7416 169.638 80.6496Z" fill="#6BB7BF"/>
<path d="M172.803 96.071H169.133C168.893 96.071 168.698 95.8525 168.732 95.611L170.441 83.812C170.452 83.697 170.555 83.6165 170.658 83.6165H171.209C171.324 83.6165 171.427 83.7085 171.45 83.8235L173.193 95.6225C173.227 95.8525 173.032 96.071 172.803 96.071Z" fill="#1D8CDD"/>
<path d="M169.947 95.7145L170.853 83.6165C170.75 83.628 170.681 83.7085 170.658 83.8005L168.95 95.5995C168.915 95.841 169.099 96.0595 169.351 96.0595H170.085C169.993 95.979 169.936 95.8525 169.947 95.7145Z" fill="#FFB278"/>
<path d="M270.212 122.9H269.444L269.455 122.843L269.685 120.784C269.696 120.715 269.753 120.669 269.811 120.669C269.822 120.669 269.822 120.669 269.834 120.669C269.879 120.669 269.914 120.692 269.948 120.727C269.983 120.761 270.006 120.807 270.017 120.865L270.212 122.9Z" fill="#2795F6"/>
<path d="M269.513 122.44H269.49L269.685 120.784C269.696 120.715 269.753 120.669 269.811 120.669C269.822 120.669 269.822 120.669 269.834 120.669C269.845 120.681 269.845 120.681 269.857 120.692C269.891 120.727 269.914 120.773 269.914 120.83L269.925 122.015C269.914 122.245 269.742 122.429 269.513 122.44Z" fill="#2795F6"/>
<path d="M270.705 132.077H269.214V197.857H270.705V132.077Z" fill="#2795F6"/>
<path d="M269.902 132.077H269.214V197.857H269.902V132.077Z" fill="#2795F6"/>
<path d="M272.322 187.358H267.586V204.757H272.322V187.358Z" fill="#2795F6"/>
<path d="M270.407 187.358H267.586V204.757H270.407V187.358Z" fill="#2795F6"/>
<path d="M272.54 123.901C272.54 124.717 271.324 125.373 269.822 125.373C269.707 125.373 269.593 125.373 269.49 125.361C268.148 125.269 267.104 124.648 267.104 123.901C267.104 123.153 268.148 122.532 269.49 122.44C269.604 122.429 269.707 122.429 269.822 122.429C271.324 122.429 272.54 123.084 272.54 123.901Z" fill="#2795F6"/>
<path d="M271.129 123.901C271.129 124.556 270.453 125.12 269.478 125.361C268.137 125.269 267.093 124.648 267.093 123.901C267.093 123.153 268.137 122.532 269.478 122.44C270.453 122.682 271.129 123.245 271.129 123.901Z" fill="#2795F6"/>
<path d="M272.31 133.377H267.586L265.912 125.315H273.732L272.31 133.377Z" fill="#2795F6"/>
<path d="M274.157 124.706H265.499V125.476H274.157V124.706Z" fill="#2795F6"/>
<path d="M270.934 124.706H265.499V125.476H270.934V124.706Z" fill="#2795F6"/>
<path d="M268.366 187.358H271.393L270.946 186.012C270.911 185.897 270.797 185.817 270.671 185.817H269.249C269.1 185.817 268.962 185.909 268.893 186.047L268.366 187.358Z" fill="#2795F6"/>
<path d="M266.474 125.707H273.148L271.84 132.952H268.01L266.474 125.707Z" fill="#2795F6"/>
<path d="M267.288 123.981C267.288 123.981 267.793 122.866 268.802 122.9C268.802 122.9 268.16 123.475 268.217 123.981C268.274 124.499 267.288 123.981 267.288 123.981Z" fill="#2795F6"/>
<path d="M273.595 124.706H266.05L266.669 123.832H273.01L273.595 124.706Z" fill="#2795F6"/>
<path d="M271.737 124.706H266.05L266.669 123.832H271.152L271.737 124.706Z" fill="#2795F6"/>
<path d="M266.921 125.959H268.446L268.893 132.721H268.446L266.921 125.959Z" fill="#2795F6"/>
<path d="M254.186 21.0813L116.554 26.0544L116.893 35.5018L254.525 30.5287L254.186 21.0813Z" fill="#E5A13E"/>
<path d="M179.751 40.71H139.171V49.4155H179.751V40.71Z" fill="#E5A13E"/>
<path d="M233.301 40.71H192.72V49.4155H233.301V40.71Z" fill="#E5A13E"/>
<path d="M179.751 117.219H139.171V125.925H179.751V117.219Z" fill="#E5A13E"/>
<path d="M233.301 117.219H192.72V125.925H233.301V117.219Z" fill="#E5A13E"/>
</svg>
